<svg width="16" height="19" viewBox="0 0 16 19" fill="none" xmlns="http://www.w3.org/2000/svg">
<path d="M14.4 2.13636H13.6V1.31818C13.6 0.868182 13.24 0.5 12.8 0.5C12.36 0.5 12 0.868182 12 1.31818V2.13636H4V1.31818C4 0.868182 3.64 0.5 3.2 0.5C2.76 0.5 2.4 0.868182 2.4 1.31818V2.13636H1.6C0.72 2.13636 0 2.87273 0 3.77273V16.8636C0 17.7636 0.72 18.5 1.6 18.5H14.4C15.28 18.5 16 17.7636 16 16.8636V3.77273C16 2.87273 15.28 2.13636 14.4 2.13636ZM13.6 16.8636H2.4C1.96 16.8636 1.6 16.4955 1.6 16.0455V6.22727H14.4V16.0455C14.4 16.4955 14.04 16.8636 13.6 16.8636Z" fill="#181818"/>
</svg>
