<?xml version="1.0" encoding="UTF-8" standalone="no"?>
<svg
   width="35"
   height="35"
   viewBox="0 0 35 35"
   fill="none"
   version="1.1"
   id="svg2"
   sodipodi:docname="clock.svg"
   inkscape:version="1.3.2 (091e20e, 2023-11-25, custom)"
   xmlns:inkscape="http://www.inkscape.org/namespaces/inkscape"
   xmlns:sodipodi="http://sodipodi.sourceforge.net/DTD/sodipodi-0.dtd"
   xmlns="http://www.w3.org/2000/svg"
   xmlns:svg="http://www.w3.org/2000/svg">
  <defs
     id="defs2" />
  <sodipodi:namedview
     id="namedview2"
     pagecolor="#ffffff"
     bordercolor="#cccccc"
     borderopacity="1"
     inkscape:showpageshadow="0"
     inkscape:pageopacity="1"
     inkscape:pagecheckerboard="0"
     inkscape:deskcolor="#d1d1d1"
     inkscape:zoom="33.742857"
     inkscape:cx="17.485182"
     inkscape:cy="17.5"
     inkscape:window-width="3440"
     inkscape:window-height="1377"
     inkscape:window-x="-8"
     inkscape:window-y="-8"
     inkscape:window-maximized="1"
     inkscape:current-layer="svg2" />
  <path
     style="color:#000000;fill:#0739a6;stroke-linecap:round;stroke-linejoin:round;-inkscape-stroke:none"
     d="M 17.5,3.7753906 C 9.9270398,3.7753906 3.7753906,9.9270398 3.7753906,17.5 c 0,7.57296 6.1516492,13.724609 13.7246094,13.724609 7.57296,0 13.724609,-6.151649 13.724609,-13.724609 C 31.224609,9.9270398 25.07296,3.7753906 17.5,3.7753906 Z m 0,1.1992188 c 6.924425,0 12.525391,5.6009656 12.525391,12.5253906 0,6.924425 -5.600966,12.525391 -12.525391,12.525391 C 10.575575,30.025391 4.9746094,24.424425 4.9746094,17.5 4.9746094,10.575575 10.575575,4.9746094 17.5,4.9746094 Z"
     id="path1" />
  <path
     style="color:#000000;fill:#0739a6;stroke-linecap:round;stroke-linejoin:round;-inkscape-stroke:none"
     d="M 17.5,8.1503906 A 0.60000002,0.60000002 0 0 0 16.900391,8.75 v 8.75 a 0.60006002,0.60006002 0 0 0 0.175781,0.423828 l 6.5625,6.5625 a 0.60000002,0.60000002 0 0 0 0.847656,0 0.60000002,0.60000002 0 0 0 0,-0.847656 L 18.099609,17.251953 V 8.75 A 0.60000002,0.60000002 0 0 0 17.5,8.1503906 Z"
     id="path2" />
</svg>
