<svg width="41" height="41" viewBox="0 0 41 41" fill="none" xmlns="http://www.w3.org/2000/svg">
<g clip-path="url(#clip0_229_51)">
<path d="M37.3619 14.5954C35.0814 12.8449 32.0619 11.8808 28.8593 11.8808C26.9229 11.8808 25.0537 12.2339 23.3741 12.8996C22.5346 11.3016 21.1341 9.88656 19.3525 8.85679C17.255 7.64427 14.7611 7.00342 12.1408 7.00342C8.93817 7.00342 5.91864 7.9675 3.63821 9.71804C1.292 11.5189 0 13.9338 0 16.5177C0 18.8449 1.06458 21.0598 3.00689 22.794L3.03994 28.4633C3.04161 28.7592 3.19172 29.0464 3.45504 29.1812C3.76765 29.3415 4.06578 29.3032 4.28442 29.1891L10.1657 25.9067C10.8177 25.99 11.4806 26.0322 12.1408 26.0322C12.1409 26.0322 12.1411 26.0322 12.1413 26.0322C14.0532 26.0322 15.9293 25.6813 17.619 25.0135C18.2355 26.1947 19.1582 27.2752 20.3567 28.1951C22.6371 29.9457 25.6567 30.9097 28.8593 30.9097C29.5227 30.9097 30.1893 30.867 30.8448 30.7828L36.7334 33.8863C37.0676 34.0565 37.3154 34.0149 37.5537 33.8637C37.8004 33.7071 37.9585 33.4433 37.9602 33.151L37.9933 27.6716C39.9354 25.9375 41 23.7224 41 21.3953C41 18.8113 39.708 16.3965 37.3619 14.5954ZM12.1412 24.3586C12.141 24.3586 12.1407 24.3586 12.1407 24.3586C11.4593 24.3586 10.7748 24.3083 10.1062 24.2092C9.86686 24.1739 9.63626 24.2432 9.46088 24.3834L4.70496 27.0379L4.67818 22.4203C4.67852 22.4036 4.67818 22.3867 4.67735 22.3698C4.66639 22.1347 4.55702 21.915 4.37579 21.7648C2.63329 20.3187 1.67347 18.4552 1.67347 16.5177C1.67347 12.1942 6.36914 8.6768 12.1408 8.6768C16.4168 8.6768 20.2828 10.6743 21.8596 13.6137C21.3305 13.9066 20.8276 14.234 20.3566 14.5954C18.0105 16.3964 16.7185 18.8113 16.7185 21.3953C16.7185 22.0984 16.815 22.789 17.0015 23.4583C15.5078 24.0485 13.8431 24.3586 12.1412 24.3586ZM36.6241 26.6423C36.4431 26.7926 36.3337 27.0124 36.3227 27.2475C36.3219 27.2627 36.3217 27.2778 36.3217 27.293L36.295 31.7636L31.5238 29.2491C31.3504 29.1168 31.1264 29.0523 30.8935 29.0868C30.2248 29.186 29.5403 29.2363 28.8591 29.2363C24.1326 29.2363 20.1285 26.8772 18.8331 23.6484C18.8277 23.6327 18.8208 23.6174 18.8144 23.6018C18.5399 22.9015 18.3918 22.1611 18.3918 21.3953C18.3918 18.6134 20.3362 16.1654 23.2601 14.7733C23.2621 14.7724 23.2643 14.7719 23.2664 14.7711C23.2991 14.7582 23.3302 14.7428 23.3604 14.7263C24.9593 13.9838 26.8435 13.5543 28.8591 13.5543C34.6308 13.5543 39.3264 17.0718 39.3264 21.3953C39.3265 23.3327 38.3667 25.1962 36.6241 26.6423Z" fill="white"/>
<path d="M33.7754 18.5918H23.9442C23.482 18.5918 23.1074 18.9664 23.1074 19.4285C23.1074 19.8907 23.482 20.2653 23.9442 20.2653H33.7754C34.2373 20.2653 34.6121 19.8907 34.6121 19.4285C34.6121 18.9664 34.2374 18.5918 33.7754 18.5918Z" fill="white"/>
<path d="M33.7754 22.3801H23.9442C23.482 22.3801 23.1074 22.7547 23.1074 23.2169C23.1074 23.679 23.482 24.0536 23.9442 24.0536H33.7754C34.2373 24.0536 34.6121 23.679 34.6121 23.2169C34.6121 22.7547 34.2374 22.3801 33.7754 22.3801Z" fill="white"/>
<path d="M37.3619 14.5954C35.0814 12.8449 32.0619 11.8808 28.8593 11.8808C26.9229 11.8808 25.0537 12.2339 23.3741 12.8996C22.5346 11.3016 21.1341 9.88656 19.3525 8.85679C17.255 7.64427 14.7611 7.00342 12.1408 7.00342C8.93817 7.00342 5.91864 7.9675 3.63821 9.71804C1.292 11.5189 0 13.9338 0 16.5177C0 18.8449 1.06458 21.0598 3.00689 22.794L3.03994 28.4633C3.04161 28.7592 3.19172 29.0464 3.45504 29.1812C3.76765 29.3415 4.06578 29.3032 4.28442 29.1891L10.1657 25.9067C10.8177 25.99 11.4806 26.0322 12.1408 26.0322C12.1409 26.0322 12.1411 26.0322 12.1413 26.0322C14.0532 26.0322 15.9293 25.6813 17.619 25.0135C18.2355 26.1947 19.1582 27.2752 20.3567 28.1951C22.6371 29.9457 25.6567 30.9097 28.8593 30.9097C29.5227 30.9097 30.1893 30.867 30.8448 30.7828L36.7334 33.8863C37.0676 34.0565 37.3154 34.0149 37.5537 33.8637C37.8004 33.7071 37.9585 33.4433 37.9602 33.151L37.9933 27.6716C39.9354 25.9375 41 23.7224 41 21.3953C41 18.8113 39.708 16.3965 37.3619 14.5954ZM12.1412 24.3586C12.141 24.3586 12.1407 24.3586 12.1407 24.3586C11.4593 24.3586 10.7748 24.3083 10.1062 24.2092C9.86686 24.1739 9.63626 24.2432 9.46088 24.3834L4.70496 27.0379L4.67818 22.4203C4.67852 22.4036 4.67818 22.3867 4.67735 22.3698C4.66639 22.1347 4.55702 21.915 4.37579 21.7648C2.63329 20.3187 1.67347 18.4552 1.67347 16.5177C1.67347 12.1942 6.36914 8.6768 12.1408 8.6768C16.4168 8.6768 20.2828 10.6743 21.8596 13.6137C21.3305 13.9066 20.8276 14.234 20.3566 14.5954C18.0105 16.3964 16.7185 18.8113 16.7185 21.3953C16.7185 22.0984 16.815 22.789 17.0015 23.4583C15.5078 24.0485 13.8431 24.3586 12.1412 24.3586ZM36.6241 26.6423C36.4431 26.7926 36.3337 27.0124 36.3227 27.2475C36.3219 27.2627 36.3217 27.2778 36.3217 27.293L36.295 31.7636L31.5238 29.2491C31.3504 29.1168 31.1264 29.0523 30.8935 29.0868C30.2248 29.186 29.5403 29.2363 28.8591 29.2363C24.1326 29.2363 20.1285 26.8772 18.8331 23.6484C18.8277 23.6327 18.8208 23.6174 18.8144 23.6018C18.5399 22.9015 18.3918 22.1611 18.3918 21.3953C18.3918 16.9872 23.161 13.5543 28.8591 13.5543C34.5573 13.5543 39.3265 17.0718 39.3265 21.3953C39.3265 23.3327 38.3667 25.1962 36.6241 26.6423Z" fill="white"/>
<path d="M33.7754 18.5918H23.9442C23.482 18.5918 23.1074 18.9664 23.1074 19.4285C23.1074 19.8907 23.482 20.2653 23.9442 20.2653H33.7754C34.2373 20.2653 34.6121 19.8907 34.6121 19.4285C34.6121 18.9664 34.2374 18.5918 33.7754 18.5918Z" fill="white"/>
<path d="M33.7754 22.3801H23.9442C23.482 22.3801 23.1074 22.7547 23.1074 23.2169C23.1074 23.679 23.482 24.0536 23.9442 24.0536H33.7754C34.2373 24.0536 34.6121 23.679 34.6121 23.2169C34.6121 22.7547 34.2374 22.3801 33.7754 22.3801Z" fill="white"/>
</g>
<defs>
<clipPath id="clip0_229_51">
<rect width="41" height="41" fill="white"/>
</clipPath>
</defs>
</svg>
