<svg width="30" height="30" viewBox="0 0 30 30" fill="none" xmlns="http://www.w3.org/2000/svg">
<path d="M17.5 2.50012H12.5C11.5054 2.50012 10.5516 2.89521 9.84835 3.59847C9.14509 4.30173 8.75 5.25556 8.75 6.25012V7.50012H6.25C5.25544 7.50012 4.30161 7.89521 3.59835 8.59847C2.89509 9.30173 2.5 10.2556 2.5 11.2501V23.7501C2.5 24.7447 2.89509 25.6985 3.59835 26.4018C4.30161 27.105 5.25544 27.5001 6.25 27.5001H23.75C24.7446 27.5001 25.6984 27.105 26.4017 26.4018C27.1049 25.6985 27.5 24.7447 27.5 23.7501V11.2501C27.5 10.2556 27.1049 9.30173 26.4017 8.59847C25.6984 7.89521 24.7446 7.50012 23.75 7.50012H21.25V6.25012C21.25 5.25556 20.8549 4.30173 20.1517 3.59847C19.4484 2.89521 18.4946 2.50012 17.5 2.50012ZM11.25 6.25012C11.25 5.9186 11.3817 5.60066 11.6161 5.36624C11.8505 5.13182 12.1685 5.00012 12.5 5.00012H17.5C17.8315 5.00012 18.1495 5.13182 18.3839 5.36624C18.6183 5.60066 18.75 5.9186 18.75 6.25012V7.50012H11.25V6.25012ZM25 11.2501V23.7501C25 24.0816 24.8683 24.3996 24.6339 24.634C24.3995 24.8684 24.0815 25.0001 23.75 25.0001H6.25C5.91848 25.0001 5.60054 24.8684 5.36612 24.634C5.1317 24.3996 5 24.0816 5 23.7501V11.2501C5 10.9186 5.1317 10.6007 5.36612 10.3662C5.60054 10.1318 5.91848 10.0001 6.25 10.0001H23.75C24.0815 10.0001 24.3995 10.1318 24.6339 10.3662C24.8683 10.6007 25 10.9186 25 11.2501ZM16.25 16.2501H18.75V18.7501H16.25V21.2501H13.75V18.7501H11.25V16.2501H13.75V13.7501H16.25V16.2501Z" fill="white"/>
</svg>
