<?xml version="1.0" encoding="UTF-8" standalone="no"?>
<svg
   width="40"
   height="40"
   viewBox="0 0 40 40"
   fill="none"
   version="1.1"
   id="svg3"
   sodipodi:docname="education.svg"
   inkscape:version="1.3.2 (091e20e, 2023-11-25, custom)"
   xmlns:inkscape="http://www.inkscape.org/namespaces/inkscape"
   xmlns:sodipodi="http://sodipodi.sourceforge.net/DTD/sodipodi-0.dtd"
   xmlns="http://www.w3.org/2000/svg"
   xmlns:svg="http://www.w3.org/2000/svg">
  <defs
     id="defs3" />
  <sodipodi:namedview
     id="namedview3"
     pagecolor="#ffffff"
     bordercolor="#cccccc"
     borderopacity="1"
     inkscape:showpageshadow="0"
     inkscape:pageopacity="1"
     inkscape:pagecheckerboard="0"
     inkscape:deskcolor="#d1d1d1"
     inkscape:zoom="29.525"
     inkscape:cx="19.983065"
     inkscape:cy="20"
     inkscape:window-width="3440"
     inkscape:window-height="1377"
     inkscape:window-x="-8"
     inkscape:window-y="-8"
     inkscape:window-maximized="1"
     inkscape:current-layer="svg3" />
  <path
     style="color:#000000;fill:#ffffff;stroke-linecap:round;stroke-linejoin:round;-inkscape-stroke:none"
     d="M 19.552734,6.6054687 2.8867188,14.939453 a 1.0001,1.0001 0 0 0 0,1.789063 l 16.6660152,8.332031 a 1.0001,1.0001 0 0 0 0.894532,0 l 16.666015,-8.332031 a 1.0001,1.0001 0 0 0 0,-1.789063 L 20.447266,6.6054687 a 1.0001,1.0001 0 0 0 -0.894532,0 z M 20,8.6191406 34.429687,15.833984 20,23.048828 5.5683594,15.833984 Z"
     id="path1" />
  <path
     style="color:#000000;fill:#ffffff;stroke-linecap:round;stroke-linejoin:round;-inkscape-stroke:none"
     d="m 8.3339844,17.333984 a 1,1 0 0 0 -1,1 v 8.332032 a 1.0001,1.0001 0 0 0 0.5527343,0.894531 l 11.6660153,5.833984 a 1.0001,1.0001 0 0 0 0.894532,0 l 11.666015,-5.833984 a 1.0001,1.0001 0 0 0 0.552735,-0.894531 v -8.332032 a 1,1 0 0 0 -1,-1 1,1 0 0 0 -1,1 v 7.714844 L 20,31.382812 9.3339844,26.048828 v -7.714844 a 1,1 0 0 0 -1,-1 z"
     id="path2" />
  <path
     style="color:#000000;fill:#ffffff;stroke-linecap:round;stroke-linejoin:round;-inkscape-stroke:none"
     d="m 36.667969,22.333984 a 1,1 0 0 0 -1,1 V 30 a 1,1 0 0 0 1,1 1,1 0 0 0 1,-1 v -6.666016 a 1,1 0 0 0 -1,-1 z"
     id="path3" />
</svg>
