<svg width="27" height="19" viewBox="0 0 27 19" fill="none" xmlns="http://www.w3.org/2000/svg">
<g clip-path="url(#clip0_179_938)">
<path d="M24.3417 18.8076H2.65824C1.95344 18.8067 1.27773 18.5249 0.779382 18.0238C0.281032 17.5227 0.000739527 16.8435 0 16.1349V2.67255C0.000739527 1.96403 0.281032 1.28472 0.779382 0.783686C1.27773 0.282652 1.95344 0.000811141 2.65824 0H24.3417C25.0465 0.000811141 25.7222 0.282652 26.2206 0.783686C26.7189 1.28472 26.9993 1.96403 27 2.67255V16.1349C26.9993 16.8435 26.7189 17.5227 26.2206 18.0238C25.7222 18.5249 25.0465 18.8067 24.3417 18.8076ZM2.65824 1.02143C2.2228 1.0219 1.80534 1.19602 1.49746 1.50557C1.18959 1.81512 1.01645 2.23482 1.01605 2.67255V16.1349C1.01645 16.5727 1.18959 16.9924 1.49746 17.3019C1.80534 17.6115 2.2228 17.7856 2.65824 17.786H24.3417C24.7772 17.7856 25.1946 17.6115 25.5026 17.3019C25.8104 16.9924 25.9836 16.5727 25.984 16.1349V2.67255C25.9836 2.23482 25.8104 1.81512 25.5026 1.50557C25.1946 1.19602 24.7772 1.0219 24.3417 1.02143H2.65824Z" fill="#0739A6"/>
<path d="M13.4996 12.4105C13.3758 12.4106 13.2562 12.3652 13.1633 12.2828L0.919922 1.41792L1.59229 0.651855L13.4996 11.2195L25.4075 0.653133L26.0798 1.4192L13.8364 12.2841C13.7434 12.3662 13.6235 12.4112 13.4996 12.4105Z" fill="#0739A6"/>
<path d="M0.643555 17.2028L8.86854 7.78174L9.63261 8.45587L1.40763 17.8769L0.643555 17.2028Z" fill="#0739A6"/>
<path d="M17.3936 8.44514L18.1577 7.771L26.3828 17.1923L25.6187 17.8665L17.3936 8.44514Z" fill="#0739A6"/>
</g>
<defs>
<clipPath id="clip0_179_938">
<rect width="27" height="19" fill="white"/>
</clipPath>
</defs>
</svg>
