<svg width="51" height="51" viewBox="0 0 51 51" fill="none" xmlns="http://www.w3.org/2000/svg">
<path d="M25.4997 33.2916C29.8029 33.2916 33.2913 29.8032 33.2913 25.5C33.2913 21.1968 29.8029 17.7083 25.4997 17.7083C21.1965 17.7083 17.708 21.1968 17.708 25.5C17.708 29.8032 21.1965 33.2916 25.4997 33.2916Z" stroke="#145FFF"/>
<path d="M43.4939 23.9735C44.0368 24.6646 44.3082 25.0101 44.3082 25.5C44.3082 25.9899 44.0368 26.3354 43.4939 27.0265C40.8347 30.4113 33.7822 38.25 25.5003 38.25C17.2183 38.25 10.1659 30.4113 7.50666 27.0265C6.9638 26.3354 6.69238 25.9899 6.69238 25.5C6.69238 25.0101 6.9638 24.6646 7.50666 23.9735C10.1659 20.5887 17.2183 12.75 25.5003 12.75C33.7822 12.75 40.8347 20.5887 43.4939 23.9735Z" stroke="#145FFF"/>
</svg>
