<?xml version="1.0" encoding="UTF-8" standalone="no"?>
<svg
   width="51"
   height="51"
   viewBox="0 0 51 51"
   fill="none"
   version="1.1"
   id="svg2"
   sodipodi:docname="eye.svg"
   inkscape:version="1.3.2 (091e20e, 2023-11-25, custom)"
   xmlns:inkscape="http://www.inkscape.org/namespaces/inkscape"
   xmlns:sodipodi="http://sodipodi.sourceforge.net/DTD/sodipodi-0.dtd"
   xmlns="http://www.w3.org/2000/svg"
   xmlns:svg="http://www.w3.org/2000/svg">
  <defs
     id="defs2" />
  <sodipodi:namedview
     id="namedview2"
     pagecolor="#ffffff"
     bordercolor="#cccccc"
     borderopacity="1"
     inkscape:showpageshadow="0"
     inkscape:pageopacity="1"
     inkscape:pagecheckerboard="0"
     inkscape:deskcolor="#d1d1d1"
     inkscape:zoom="23.156863"
     inkscape:cx="25.478408"
     inkscape:cy="25.5"
     inkscape:window-width="3440"
     inkscape:window-height="1377"
     inkscape:window-x="-8"
     inkscape:window-y="-8"
     inkscape:window-maximized="1"
     inkscape:current-layer="svg2" />
  <path
     style="color:#000000;fill:#145fff;-inkscape-stroke:none"
     d="m 25.5,17.208984 c -4.573421,0 -8.292969,3.717595 -8.292969,8.291016 0,4.573421 3.719556,8.291016 8.292969,8.291016 4.573413,0 8.291016,-3.717603 8.291016,-8.291016 0,-4.573413 -3.717595,-8.291016 -8.291016,-8.291016 z m 0,1 c 4.032971,0 7.291016,3.258038 7.291016,7.291016 0,4.032978 -3.258038,7.291016 -7.291016,7.291016 -4.032978,0 -7.292969,-3.258045 -7.292969,-7.291016 0,-4.032971 3.259998,-7.291016 7.292969,-7.291016 z"
     id="path1" />
  <path
     style="color:#000000;fill:#145fff;-inkscape-stroke:none"
     d="M 25.5,12.25 C 16.902517,12.25 9.8061499,20.236458 7.1132812,23.664062 6.8418542,24.009609 6.6270917,24.277426 6.4628906,24.560547 6.2986895,24.843668 6.1914062,25.162712 6.1914062,25.5 c 0,0.337288 0.1072833,0.656332 0.2714844,0.939453 0.1642011,0.283121 0.3789636,0.550938 0.6503906,0.896484 C 9.8061499,30.763542 16.902517,38.75 25.5,38.75 c 8.597387,0 15.693883,-7.986448 18.386719,-11.414063 0.27145,-0.34555 0.486187,-0.613358 0.65039,-0.896484 0.164204,-0.283125 0.271485,-0.602172 0.271485,-0.939453 0,-0.337281 -0.107281,-0.656328 -0.271485,-0.939453 -0.164203,-0.283126 -0.37894,-0.550934 -0.65039,-0.896485 C 41.193883,20.236448 34.097387,12.25 25.5,12.25 Z m 0,1 c 7.966397,0 14.976004,7.691224 17.601562,11.033203 0.271449,0.345549 0.463092,0.594423 0.570313,0.779297 0.107221,0.184874 0.136719,0.284882 0.136719,0.4375 0,0.152618 -0.0295,0.252626 -0.136719,0.4375 -0.107221,0.184874 -0.298864,0.433748 -0.570313,0.779297 C 40.476004,30.058776 33.466397,37.75 25.5,37.75 17.533499,37.75 10.525997,30.058786 7.9003906,26.716797 7.6289582,26.371244 7.4353486,26.122379 7.328125,25.9375 7.2209014,25.752621 7.1914062,25.652611 7.1914062,25.5 c 0,-0.152611 0.029495,-0.252621 0.1367188,-0.4375 C 7.4353486,24.877621 7.6289582,24.628756 7.9003906,24.283203 10.525997,20.941214 17.533499,13.25 25.5,13.25 Z"
     id="path2" />
</svg>
