<svg width="40" height="40" viewBox="0 0 40 40" fill="none" xmlns="http://www.w3.org/2000/svg">
<path d="M29.6 21.2843V25.5917C29.6 27.7287 28.751 29.7783 27.2398 31.2894C25.7287 32.8006 23.6791 33.6495 21.5421 33.6495C19.405 33.6495 17.3554 32.8006 15.8443 31.2894C14.3331 29.7783 13.4842 27.7287 13.4842 25.5917V24.6443C11.6937 24.3652 10.0619 23.4555 8.88297 22.0794C7.70406 20.7032 7.05565 18.9511 7.05469 17.139V11.0527C7.05495 10.464 7.20196 9.88472 7.48243 9.36716C7.7629 8.8496 8.16797 8.41013 8.661 8.08849C8.69604 7.52385 8.91851 6.98705 9.29315 6.56314C9.66779 6.13924 10.1732 5.85248 10.7292 5.74829C11.2853 5.64411 11.8602 5.72847 12.3629 5.98799C12.8656 6.24752 13.2673 6.66738 13.5043 7.18104C13.7414 7.6947 13.8003 8.27278 13.6717 8.82369C13.543 9.3746 13.2342 9.86683 12.7942 10.2224C12.3541 10.5779 11.808 10.7765 11.2424 10.7865C10.6768 10.7966 10.1239 10.6176 9.67153 10.278C9.48834 10.4946 9.38767 10.769 9.38732 11.0527V17.1369C9.38732 18.5328 9.94183 19.8715 10.9289 20.8585C11.9159 21.8456 13.2546 22.4001 14.6505 22.4001C16.0464 22.4001 17.3851 21.8456 18.3721 20.8585C19.3591 19.8715 19.9136 18.5328 19.9136 17.1369V11.0527C19.9137 10.8002 19.8341 10.5542 19.6863 10.3495C19.2169 10.6657 18.6555 10.8163 18.0909 10.7775C17.5263 10.7386 16.9908 10.5126 16.5692 10.1351C16.1475 9.75766 15.8638 9.25034 15.763 8.69348C15.6621 8.13662 15.7499 7.56203 16.0124 7.06067C16.2749 6.55932 16.6971 6.15984 17.2122 5.92547C17.7274 5.69111 18.3059 5.63525 18.8564 5.76675C19.4068 5.89824 19.8976 6.20957 20.2512 6.65145C20.6048 7.09333 20.8008 7.64052 20.8084 8.20639C21.2541 8.53521 21.6163 8.96405 21.8661 9.45841C22.1158 9.95277 22.246 10.4988 22.2463 11.0527V17.1369C22.2453 18.949 21.5969 20.7011 20.418 22.0773C19.2391 23.4534 17.6073 24.3631 15.8168 24.6422V25.5895C15.8168 27.1077 16.4199 28.5637 17.4934 29.6372C18.5669 30.7107 20.0228 31.3138 21.541 31.3138C23.0592 31.3138 24.5151 30.7107 25.5886 29.6372C26.6621 28.5637 27.2652 27.1077 27.2652 25.5895V21.2843C26.2072 21.0013 25.2881 20.3432 24.6794 19.4328C24.0706 18.5223 23.8136 17.4216 23.9563 16.3357C24.0991 15.2498 24.6317 14.2529 25.4551 13.5306C26.2784 12.8084 27.3363 12.4102 28.4315 12.4102C29.5268 12.4102 30.5846 12.8084 31.408 13.5306C32.2313 14.2529 32.764 15.2498 32.9067 16.3357C33.0494 17.4216 32.7925 18.5223 32.1837 19.4328C31.5749 20.3432 30.6559 21.0013 29.5978 21.2843H29.6ZM30.6105 16.9264C30.6105 16.4954 30.4827 16.0742 30.2433 15.7158C30.0038 15.3575 29.6635 15.0782 29.2654 14.9133C28.8672 14.7484 28.4291 14.7052 28.0064 14.7893C27.5838 14.8734 27.1955 15.0809 26.8908 15.3856C26.5861 15.6904 26.3785 16.0786 26.2945 16.5013C26.2104 16.924 26.2535 17.3621 26.4184 17.7602C26.5834 18.1584 26.8626 18.4987 27.221 18.7381C27.5793 18.9775 28.0006 19.1053 28.4315 19.1053C29.0094 19.1048 29.5636 18.8751 29.9724 18.4667C30.3813 18.0582 30.6115 17.5043 30.6126 16.9264H30.6105Z" fill="white"/>
</svg>
