<svg width="20" height="25" viewBox="0 0 20 25" fill="none" xmlns="http://www.w3.org/2000/svg">
<g clip-path="url(#clip0_179_935)">
<path d="M10 0C12.6521 0 15.1956 1.05356 17.071 2.92891C18.9464 4.80428 20 7.3478 20 9.99995C20.0081 12.4885 19.08 14.8891 17.4 16.7249L10.475 24.7811C10.4163 24.8498 10.3435 24.9047 10.2615 24.9426C10.1795 24.9804 10.0903 24.9999 10 24.9999C9.90972 24.9999 9.82051 24.9804 9.73851 24.9426C9.65651 24.9047 9.58367 24.8498 9.525 24.7811L2.60004 16.7249C0.919938 14.8891 -0.00817594 12.4885 5.42716e-05 9.99995C5.42716e-05 7.3478 1.05362 4.80428 2.92897 2.92891C4.80432 1.05356 7.34785 0 10 0ZM3.55004 15.9124L10 23.4186L16.45 15.9186C17.5975 14.6669 18.356 13.1081 18.6329 11.4326C18.9097 9.75711 18.6931 8.03725 18.0093 6.48278C17.3255 4.92831 16.2041 3.60641 14.7819 2.67832C13.3597 1.75022 11.6982 1.25605 10 1.25605C8.30177 1.25605 6.64025 1.75022 5.21807 2.67832C3.79589 3.60641 2.67451 4.92831 1.99071 6.48278C1.30692 8.03725 1.09025 9.75711 1.36712 11.4326C1.64401 13.1081 2.40249 14.6669 3.55004 15.9186V15.9124Z" fill="#0739A6"/>
<path d="M9.99998 5.625C10.8653 5.625 11.7111 5.88159 12.4306 6.36231C13.1501 6.84305 13.7108 7.52633 14.0419 8.32575C14.3731 9.12516 14.4597 10.0048 14.2908 10.8535C14.1221 11.7021 13.7055 12.4817 13.0936 13.0935C12.4817 13.7054 11.7021 14.1221 10.8535 14.2909C10.0048 14.4598 9.12516 14.373 8.32574 14.0419C7.52633 13.7107 6.84304 13.15 6.36231 12.4306C5.88159 11.7111 5.625 10.8653 5.625 9.99998C5.625 8.83966 6.08592 7.72686 6.9064 6.9064C7.72686 6.08594 8.83966 5.625 9.99998 5.625ZM9.99998 13.125C10.618 13.125 11.2222 12.9416 11.7361 12.5982C12.25 12.2549 12.6506 11.7669 12.8871 11.1959C13.1236 10.6248 13.1854 9.99651 13.0649 9.39033C12.9443 8.78414 12.6467 8.22731 12.2097 7.79028C11.7726 7.35324 11.2158 7.05561 10.6096 6.93504C10.0034 6.81446 9.37511 6.87635 8.80409 7.11286C8.23308 7.34939 7.74502 7.74993 7.40165 8.26383C7.05826 8.77773 6.87499 9.38191 6.87499 9.99998C6.87499 10.8288 7.20423 11.6236 7.79028 12.2097C8.37633 12.7958 9.17118 13.125 9.99998 13.125Z" fill="#0739A6"/>
</g>
<defs>
<clipPath id="clip0_179_935">
<rect width="20" height="25" fill="white"/>
</clipPath>
</defs>
</svg>
