<svg width="22" height="18" viewBox="0 0 22 18" fill="none" xmlns="http://www.w3.org/2000/svg">
<g clip-path="url(#clip0_179_665)">
<path d="M6.62995 3.78831C6.30017 2.64567 5.405 2.77091 4.79295 3.30309C3.28527 4.72743 1.32213 7.71703 2.57855 12.0218C3.63079 15.6688 8.00914 18.001 8.00914 18.001H2.90514C2.90514 18.001 0.269731 14.9801 0.034142 11.4271C-0.264244 6.93495 1.49487 4.10185 3.53653 2.25495C5.45254 0.517542 7.27434 0.0010376 7.27434 0.0010376L11.0009 12.4885L14.7276 0.0010376C14.7276 0.0010376 16.5494 0.517543 18.4654 2.25495C20.507 4.10185 22.2661 6.93495 21.9678 11.4271C21.7322 14.9801 19.0968 18.001 19.0968 18.001H13.9928C13.9928 18.001 18.3708 15.6688 19.4233 12.0218C20.6798 7.71752 18.7166 4.72792 17.2089 3.30309C16.5964 2.77091 15.7013 2.64567 15.3719 3.78831C14.2412 7.43526 11.0014 17.8846 11.0014 17.8846C11.0014 17.8846 7.76165 7.43177 6.63088 3.78831H6.62995Z" fill="#204982"/>
</g>
<defs>
<clipPath id="clip0_179_665">
<rect width="22" height="18" fill="white"/>
</clipPath>
</defs>
</svg>
