<?xml version="1.0" encoding="UTF-8" standalone="no"?>
<svg
   width="36"
   height="36"
   viewBox="0 0 36 36"
   fill="none"
   version="1.1"
   id="svg1"
   sodipodi:docname="phone.svg"
   inkscape:version="1.3.2 (091e20e, 2023-11-25, custom)"
   xmlns:inkscape="http://www.inkscape.org/namespaces/inkscape"
   xmlns:sodipodi="http://sodipodi.sourceforge.net/DTD/sodipodi-0.dtd"
   xmlns="http://www.w3.org/2000/svg"
   xmlns:svg="http://www.w3.org/2000/svg">
  <defs
     id="defs1" />
  <sodipodi:namedview
     id="namedview1"
     pagecolor="#ffffff"
     bordercolor="#cccccc"
     borderopacity="1"
     inkscape:showpageshadow="0"
     inkscape:pageopacity="1"
     inkscape:pagecheckerboard="0"
     inkscape:deskcolor="#d1d1d1"
     inkscape:zoom="32.805556"
     inkscape:cx="17.984759"
     inkscape:cy="18"
     inkscape:window-width="3440"
     inkscape:window-height="1377"
     inkscape:window-x="-8"
     inkscape:window-y="-8"
     inkscape:window-maximized="1"
     inkscape:current-layer="svg1" />
  <path
     style="color:#000000;fill:#0739a6;-inkscape-stroke:none"
     d="m 10.5,4.4179687 c -0.384937,-6e-7 -0.7697411,0.1447411 -1.0605469,0.4355469 L 7.8261719,6.4667969 C 5.5415068,8.751462 5.2840514,12.378106 7.2226562,14.962891 l 3.9062498,5.208984 c 1.33603,1.78151 2.917709,3.363189 4.699219,4.699219 l 5.208984,3.90625 c 2.584788,1.938671 6.211478,1.681101 8.496094,-0.603516 l 1.613281,-1.613281 c 0.581597,-0.581596 0.581597,-1.539498 0,-2.121094 l -4.585937,-4.585937 c -0.581596,-0.581597 -1.539498,-0.581597 -2.121094,0 l -1.884766,1.884765 c -0.09258,0.09258 -0.2306,0.115188 -0.347656,0.05664 -3.463298,-1.731649 -6.270304,-4.538655 -8.001953,-8.001953 v -0.002 c -0.05855,-0.117056 -0.03594,-0.253128 0.05664,-0.345703 l 1.884765,-1.884766 c 0.581597,-0.581596 0.581567,-1.539467 0,-2.1210939 L 11.560547,4.8535156 C 11.269752,4.5626988 10.884937,4.4179694 10.5,4.4179687 Z m -0.353516,1.1425782 c 0.199448,-0.1994476 0.507621,-0.1994256 0.707032,0 l 4.585937,4.5859371 c 0.199432,0.199453 0.199403,0.507629 0,0.707032 l -1.884765,1.884765 c -0.394224,0.394224 -0.493594,1.00321 -0.244141,1.501953 1.828406,3.656036 4.793002,6.621111 8.449219,8.449219 0.498743,0.249453 1.107729,0.150083 1.501953,-0.244141 l 1.884765,-1.884765 c 0.199403,-0.199403 0.507629,-0.199403 0.707032,0 l 4.585937,4.585937 c 0.199403,0.199403 0.199403,0.507629 0,0.707032 l -1.613281,1.613281 c -1.937979,1.937979 -4.996845,2.156243 -7.189453,0.511719 l -5.208985,-3.90625 c -1.705686,-1.279168 -3.220832,-2.794314 -4.5,-4.5 L 8.0214844,14.363281 C 6.3770128,12.170671 6.5951724,9.1118588 8.5332031,7.1738281 Z"
     id="path1" />
</svg>
