<svg width="36" height="36" viewBox="0 0 36 36" fill="none" xmlns="http://www.w3.org/2000/svg">
<path d="M8.1793 6.82035L9.79257 5.20708C10.1831 4.81655 10.8163 4.81655 11.2068 5.20708L15.7926 9.79286C16.1831 10.1834 16.1831 10.8166 15.7926 11.2071L13.9073 13.0924C13.6639 13.3358 13.6035 13.7077 13.7575 14.0156C15.5375 17.5756 18.4241 20.4622 21.9841 22.2422C22.292 22.3962 22.6639 22.3358 22.9073 22.0924L24.7926 20.2071C25.1831 19.8166 25.8163 19.8166 26.2068 20.2071L30.7926 24.7929C31.1831 25.1834 31.1831 25.8166 30.7926 26.2071L29.1793 27.8204C27.068 29.9317 23.7254 30.1693 21.3367 28.3777L16.1283 24.4714C14.3847 23.1638 12.8359 21.615 11.5283 19.8714L7.62194 14.663C5.8304 12.2743 6.06795 8.9317 8.1793 6.82035Z" stroke="#0739A6"/>
</svg>
