<svg width="26" height="26" viewBox="0 0 26 26" fill="none" xmlns="http://www.w3.org/2000/svg">
<g clip-path="url(#clip0_227_436)">
<path d="M8.63946 11.3042H6.05566V13.8882H8.63946V11.3042Z" fill="white"/>
<path d="M19.9442 11.3042H17.3604V13.8882H19.9442V11.3042Z" fill="white"/>
<path d="M16.1756 11.3042H13.5918V13.8882H16.1756V11.3042Z" fill="white"/>
<path d="M8.63946 15.3416H6.05566V17.9256H8.63946V15.3416Z" fill="white"/>
<path d="M16.1756 15.3416H13.5918V17.9256H16.1756V15.3416Z" fill="white"/>
<path d="M12.408 15.3416H9.82422V17.9256H12.408V15.3416Z" fill="white"/>
<path d="M19.9442 19.3787H17.3604V21.9627H19.9442V19.3787Z" fill="white"/>
<path d="M16.1756 19.3787H13.5918V21.9627H16.1756V19.3787Z" fill="white"/>
<path d="M12.408 19.3787H9.82422V21.9627H12.408V19.3787Z" fill="white"/>
<path d="M22.3067 2.79517H20.2056V4.80966C20.2056 5.56132 19.5863 6.17263 18.8252 6.17263H16.0817C15.3206 6.17263 14.7014 5.56132 14.7014 4.80966V2.79517H11.2943V4.79072C11.2943 5.55284 10.6682 6.17263 9.89859 6.17263H7.18566C6.41607 6.17263 5.78998 5.55284 5.78998 4.79072V2.79517H3.68886C2.32254 2.79517 1.21094 3.89671 1.21094 5.25064V23.5444C1.21094 24.8983 2.32254 25.9999 3.68886 25.9999H22.3067C23.6751 25.9999 24.7884 24.8983 24.7884 23.5444V5.25064C24.7884 3.89676 23.6751 2.79517 22.3067 2.79517ZM23.012 23.4967C23.012 23.9314 22.72 24.2233 22.2853 24.2233H3.714C3.27931 24.2233 2.98727 23.9314 2.98727 23.4967V9.04344H23.012V23.4967Z" fill="white"/>
<path d="M7.18604 5.20543H9.89735C10.1269 5.20543 10.3137 5.01993 10.3137 4.79187V1.04066C10.3137 0.466832 9.84296 0 9.26426 0H7.81908C7.24043 0 6.76953 0.466781 6.76953 1.04066V4.79187C6.76958 5.01993 6.95636 5.20543 7.18604 5.20543Z" fill="white"/>
<path d="M16.0819 5.20543H18.8254C19.0462 5.20543 19.2257 5.02704 19.2257 4.80802V1.02466C19.2257 0.459723 18.7622 0 18.1923 0H16.715C16.1452 0 15.6816 0.459723 15.6816 1.02466V4.80802C15.6816 5.02704 15.8612 5.20543 16.0819 5.20543Z" fill="white"/>
</g>
<defs>
<clipPath id="clip0_227_436">
<rect width="26" height="26" fill="white"/>
</clipPath>
</defs>
</svg>
