<svg width="35" height="35" viewBox="0 0 35 35" fill="none" xmlns="http://www.w3.org/2000/svg">
<mask id="mask0_179_796" style="mask-type:luminance" maskUnits="userSpaceOnUse" x="0" y="0" width="35" height="35">
<path d="M35 0H0V35H35V0Z" fill="white"/>
</mask>
<g mask="url(#mask0_179_796)">
<path d="M15.3122 24.7916C20.5474 24.7916 24.7913 20.5477 24.7913 15.3125C24.7913 10.0773 20.5474 5.83331 15.3122 5.83331C10.077 5.83331 5.83301 10.0773 5.83301 15.3125C5.83301 20.5477 10.077 24.7916 15.3122 24.7916Z" stroke="#145FFF" stroke-width="1.45833" stroke-linejoin="round"/>
<path d="M28.651 29.6823C28.9359 29.967 29.3976 29.967 29.6824 29.6823C29.967 29.3975 29.967 28.9358 29.6824 28.651L28.651 29.6823ZM29.6824 28.651L22.3907 21.3593L21.3594 22.3906L28.651 29.6823L29.6824 28.651Z" fill="#145FFF"/>
</g>
</svg>
