<?xml version="1.0" encoding="UTF-8" standalone="no"?>
<svg
   width="22"
   height="16"
   viewBox="0 0 22 16"
   fill="none"
   version="1.1"
   id="svg2"
   sodipodi:docname="views.svg"
   inkscape:version="1.3.2 (091e20e, 2023-11-25, custom)"
   xmlns:inkscape="http://www.inkscape.org/namespaces/inkscape"
   xmlns:sodipodi="http://sodipodi.sourceforge.net/DTD/sodipodi-0.dtd"
   xmlns="http://www.w3.org/2000/svg"
   xmlns:svg="http://www.w3.org/2000/svg">
  <defs
     id="defs2" />
  <sodipodi:namedview
     id="namedview2"
     pagecolor="#ffffff"
     bordercolor="#cccccc"
     borderopacity="1"
     inkscape:showpageshadow="0"
     inkscape:pageopacity="1"
     inkscape:pagecheckerboard="0"
     inkscape:deskcolor="#d1d1d1"
     inkscape:zoom="73.8125"
     inkscape:cx="11.000847"
     inkscape:cy="8"
     inkscape:window-width="3440"
     inkscape:window-height="1377"
     inkscape:window-x="-8"
     inkscape:window-y="-8"
     inkscape:window-maximized="1"
     inkscape:current-layer="svg2" />
  <path
     style="color:#000000;fill:#181818;stroke-linecap:round;stroke-linejoin:round;stroke-miterlimit:10;-inkscape-stroke:none"
     d="M 11,0.25 C 6.0191534,0.25 1.7770121,3.3866242 0.2890625,7.7578125 a 0.750075,0.750075 0 0 0 0,0.484375 C 1.7770124,12.613366 6.0191523,15.75 11,15.75 c 4.980894,0 9.22297,-3.136645 10.710937,-7.5078125 a 0.750075,0.750075 0 0 0 0,-0.484375 C 20.22297,3.3866344 15.980893,0.25 11,0.25 Z m 0,1.5 c 4.250071,0 7.804162,2.6297693 9.160156,6.25 C 18.804163,11.620222 15.25007,14.25 11,14.25 6.7499822,14.25 3.1958202,11.620213 1.8398437,8 3.1958204,4.3797785 6.7499812,1.75 11,1.75 Z"
     id="path1" />
  <path
     style="color:#000000;fill:#181818;stroke-linecap:round;stroke-linejoin:round;stroke-miterlimit:10;-inkscape-stroke:none"
     d="M 11,3.25 C 8.3855329,3.25 6.25,5.3855329 6.25,8 c 0,2.614434 2.1355239,4.75 4.75,4.75 2.614443,0 4.75,-2.135557 4.75,-4.75 0,-2.6144761 -2.135566,-4.75 -4.75,-4.75 z m 0,1.5 c 1.803761,0 3.25,1.4462005 3.25,3.25 0,1.8037521 -1.446248,3.25 -3.25,3.25 C 9.1962005,11.25 7.75,9.8037612 7.75,8 7.75,6.1961915 9.1961915,4.75 11,4.75 Z"
     id="path2" />
</svg>
