<svg width="27" height="27" viewBox="0 0 27 27" fill="none" xmlns="http://www.w3.org/2000/svg">
<path d="M13.8395 0.589722C6.73197 0.589722 0.949302 6.37241 0.949302 13.48C0.949302 15.6994 1.52264 17.8817 2.6099 19.8074L0.970038 25.6585C0.916236 25.8507 0.968357 26.057 1.10735 26.1999C1.21439 26.3103 1.36011 26.3703 1.50975 26.3703C1.55458 26.3703 1.59998 26.3647 1.64425 26.354L7.75086 24.8414C9.61546 25.8423 11.7154 26.3703 13.8395 26.3703C20.9471 26.3703 26.7298 20.5876 26.7298 13.48C26.7298 6.37241 20.9471 0.589722 13.8395 0.589722ZM20.3239 18.0286C20.0481 18.7919 18.7255 19.4885 18.0899 19.5821C17.5194 19.6656 16.7976 19.7015 16.0051 19.4527C15.5248 19.3014 14.9083 19.1007 14.1186 18.7639C10.7991 17.3482 8.63132 14.0477 8.46543 13.8297C8.3001 13.6117 7.1142 12.0581 7.1142 10.4502C7.1142 8.8423 7.96887 8.05151 8.27263 7.72421C8.5764 7.39691 8.93452 7.31508 9.15534 7.31508C9.37615 7.31508 9.59641 7.31788 9.78976 7.32685C9.9932 7.33694 10.2661 7.25007 10.5346 7.88786C10.8103 8.54246 11.4722 10.1504 11.554 10.3146C11.637 10.4782 11.6919 10.6694 11.5821 10.8874C11.4722 11.1054 11.4173 11.2416 11.2514 11.4327C11.0855 11.6238 10.9039 11.8586 10.7548 12.0055C10.589 12.1685 10.4169 12.3451 10.6097 12.6724C10.8025 12.9997 11.4666 14.0696 12.4508 14.936C13.7146 16.0491 14.7811 16.3943 15.1117 16.558C15.4424 16.7216 15.6358 16.6942 15.8286 16.4761C16.0213 16.2576 16.6558 15.5217 16.876 15.195C17.0963 14.8682 17.3171 14.922 17.6209 15.0313C17.9246 15.14 19.5516 15.9303 19.8822 16.0939C20.2129 16.2576 20.4337 16.3394 20.5167 16.4756C20.5996 16.6112 20.5996 17.2658 20.3239 18.0286Z" fill="#01CE22"/>
</svg>
