<svg width="83" height="83" viewBox="0 0 83 83" fill="none" xmlns="http://www.w3.org/2000/svg">
<g clip-path="url(#clip0_300_1105)">
<path d="M44.218 82.9478C43.2219 82.9478 42.2265 82.5686 41.4685 81.8112C41.4083 81.7511 41.3605 81.6797 41.3279 81.6011C41.2953 81.5225 41.2786 81.4382 41.2786 81.3531C41.2786 81.268 41.2953 81.1838 41.3279 81.1052C41.3605 81.0266 41.4083 80.9551 41.4685 80.895C41.5287 80.8348 41.6001 80.7871 41.6787 80.7545C41.7573 80.7219 41.8416 80.7051 41.9267 80.7051C42.0118 80.7051 42.0961 80.7219 42.1747 80.7545C42.2533 80.7871 42.3247 80.8348 42.3849 80.895C43.3973 81.9061 45.0427 81.9048 46.0526 80.8937C47.0621 79.8831 47.0614 78.239 46.05 77.2286C45.9898 77.1684 45.9421 77.097 45.9095 77.0184C45.8769 76.9398 45.8601 76.8556 45.8601 76.7705C45.8601 76.6854 45.8769 76.6011 45.9095 76.5225C45.9421 76.4439 45.9898 76.3725 46.05 76.3123C46.1102 76.2521 46.1816 76.2044 46.2602 76.1718C46.3388 76.1392 46.4231 76.1224 46.5082 76.1224C46.5933 76.1224 46.6775 76.1392 46.7561 76.1718C46.8347 76.2044 46.9061 76.2521 46.9663 76.3123C48.4825 77.8273 48.4836 80.2933 46.9689 81.8101C46.2107 82.568 45.2139 82.9478 44.218 82.9478ZM50.6351 76.5348C49.5954 76.5348 48.6183 76.1298 47.8837 75.3945C47.8234 75.3343 47.7757 75.2629 47.7431 75.1843C47.7105 75.1057 47.6937 75.0215 47.6937 74.9364C47.6937 74.8513 47.7105 74.767 47.7431 74.6884C47.7757 74.6098 47.8234 74.5384 47.8837 74.4782C47.9438 74.418 48.0152 74.3703 48.0938 74.3377C48.1724 74.3051 48.2567 74.2883 48.3418 74.2883C48.4269 74.2883 48.5111 74.3051 48.5897 74.3377C48.6684 74.3703 48.7398 74.418 48.7999 74.4782C49.7782 75.4572 51.486 75.4598 52.465 74.4808C53.4756 73.4704 53.475 71.8255 52.4637 70.8144L47.4241 65.7721C47.3639 65.712 47.3162 65.6406 47.2836 65.562C47.2511 65.4834 47.2343 65.3991 47.2343 65.314C47.2343 65.2289 47.2511 65.1447 47.2836 65.0661C47.3162 64.9875 47.3639 64.9161 47.4241 64.8559C47.4842 64.7957 47.5557 64.748 47.6343 64.7155C47.7129 64.6829 47.7971 64.6661 47.8822 64.6661C47.9673 64.6661 48.0515 64.6829 48.1301 64.7155C48.2087 64.748 48.2802 64.7957 48.3403 64.8559L53.38 69.8982C54.8968 71.4144 54.8968 73.8817 53.3813 75.3972C52.6487 76.1305 51.6731 76.5348 50.6351 76.5348ZM57.0474 70.1188C56.0512 70.1188 55.056 69.7398 54.2978 68.9816L49.2582 63.9418C49.198 63.8816 49.1503 63.8102 49.1177 63.7316C49.0852 63.653 49.0684 63.5687 49.0684 63.4837C49.0684 63.3986 49.0852 63.3143 49.1177 63.2357C49.1503 63.1571 49.198 63.0857 49.2582 63.0255C49.3183 62.9654 49.3898 62.9176 49.4684 62.8851C49.547 62.8525 49.6312 62.8358 49.7163 62.8358C49.8014 62.8358 49.8856 62.8525 49.9642 62.8851C50.0428 62.9176 50.1143 62.9654 50.1744 63.0255L55.2141 68.0653C56.2253 69.0764 57.8694 69.0764 58.8805 68.0653C59.8917 67.0541 59.8917 65.4087 58.8805 64.3975L53.8396 59.3591C53.5863 59.106 53.5863 58.6959 53.8396 58.4429C54.0928 58.1898 54.5029 58.1896 54.7558 58.4429L59.7967 63.4812C61.3136 64.9976 61.3136 67.4655 59.7967 68.9818C59.0389 69.7398 58.0435 70.1188 57.0474 70.1188ZM63.4627 63.7035C62.4673 63.7035 61.4721 63.3249 60.7138 62.5681L55.6722 57.5253C55.612 57.4652 55.5643 57.3937 55.5317 57.3151C55.4992 57.2365 55.4824 57.1523 55.4824 57.0672C55.4824 56.9821 55.4992 56.8979 55.5317 56.8193C55.5643 56.7407 55.612 56.6692 55.6722 56.6091C55.7323 56.5489 55.8037 56.5011 55.8824 56.4685C55.961 56.4359 56.0452 56.4191 56.1303 56.4191C56.2154 56.4191 56.2997 56.4359 56.3783 56.4685C56.4569 56.5011 56.5283 56.5489 56.5884 56.6091L61.6294 61.6513C62.6406 62.6601 64.2847 62.6613 65.2947 61.6513C66.3058 60.6401 66.3058 58.9948 65.2947 57.9836L48.3419 41.0317C48.2817 40.9715 48.234 40.9001 48.2014 40.8215C48.1688 40.7429 48.152 40.6586 48.152 40.5735C48.152 40.4884 48.1688 40.4042 48.2014 40.3256C48.234 40.247 48.2817 40.1756 48.3419 40.1154C48.4021 40.0552 48.4735 40.0074 48.5521 39.9749C48.6307 39.9423 48.715 39.9255 48.8001 39.9255C48.8852 39.9255 48.9694 39.9423 49.048 39.9749C49.1266 40.0074 49.198 40.0552 49.2582 40.1154L66.2111 57.067C67.7278 58.5834 67.7278 61.0512 66.2111 62.5674C65.4544 63.3249 64.4589 63.7035 63.4627 63.7035ZM15.8504 54.0106C15.7308 54.0108 15.6135 53.9778 15.5115 53.9153C15.4095 53.8528 15.3268 53.7633 15.2726 53.6567C12.4662 48.152 11.5428 42.7403 11.5049 42.5124C11.4767 42.343 11.517 42.1693 11.6167 42.0296C11.7165 41.8898 11.8677 41.7954 12.0371 41.767C12.3934 41.7138 12.7236 41.9473 12.7831 42.2992C12.792 42.3537 13.7152 47.7488 16.4268 53.0685C16.4773 53.1672 16.5015 53.2772 16.4973 53.3879C16.4931 53.4987 16.4605 53.6065 16.4026 53.7011C16.3448 53.7956 16.2636 53.8738 16.1669 53.928C16.0702 53.9822 15.9612 54.0106 15.8504 54.0106ZM35.2542 30.9371C35.1684 30.9372 35.0834 30.9202 35.0042 30.887C30.505 29.0032 27.4529 27.4167 27.4225 27.4009C27.2703 27.3212 27.1558 27.1843 27.1043 27.0204C27.0528 26.8564 27.0685 26.6787 27.1479 26.5263C27.1871 26.4507 27.2409 26.3835 27.3061 26.3287C27.3714 26.274 27.4468 26.2326 27.5281 26.2071C27.6094 26.1816 27.6949 26.1724 27.7798 26.18C27.8646 26.1877 27.9471 26.212 28.0225 26.2517C28.0523 26.2676 31.0593 27.8306 35.5042 29.691C35.6421 29.749 35.7556 29.8529 35.8257 29.9851C35.8957 30.1172 35.9179 30.2696 35.8885 30.4162C35.8591 30.5629 35.7799 30.6949 35.6643 30.7898C35.5487 30.8847 35.4038 30.9368 35.2542 30.9371ZM66.0537 54.8055C65.9346 54.8055 65.8178 54.7727 65.7162 54.7107C65.6145 54.6487 65.5319 54.5599 65.4775 54.4541C65.423 54.3482 65.3987 54.2293 65.4074 54.1106C65.416 53.9918 65.4573 53.8778 65.5265 53.7809C69.3948 48.3572 70.1403 40.5927 70.1473 40.5149C70.1802 40.1592 70.4858 39.8922 70.8516 39.9282C71.0228 39.9439 71.1807 40.0269 71.2907 40.159C71.4006 40.2911 71.4537 40.4614 71.4381 40.6326C71.4077 40.9641 70.6516 48.8275 66.5822 54.5341C66.5221 54.6181 66.4427 54.6866 66.3508 54.7338C66.2589 54.781 66.157 54.8056 66.0537 54.8055ZM38.7195 81.1163H38.7188C37.681 81.1163 36.7046 80.7113 35.9706 79.9775C34.4557 78.463 34.4557 75.9962 35.9699 74.4789L38.7195 71.7293C40.1901 70.2602 42.7505 70.2613 44.2174 71.7306C45.7329 73.2462 45.7329 75.7129 44.2174 77.2286L41.4696 79.9762C40.7343 80.7113 39.7578 81.1163 38.7195 81.1163ZM41.469 71.8874C41.1283 71.8866 40.7909 71.9532 40.4761 72.0834C40.1614 72.2137 39.8755 72.4049 39.635 72.6462L36.8868 75.3945C35.8775 76.4064 35.8769 78.0511 36.8868 79.0611C37.1268 79.3025 37.4123 79.4939 37.7267 79.6242C38.0412 79.7546 38.3784 79.8212 38.7188 79.8204H38.7195C39.4118 79.8204 40.063 79.5503 40.5532 79.0599L43.301 76.3123C44.3114 75.3018 44.3114 73.6575 43.301 72.647C43.0611 72.4054 42.7757 72.2139 42.4612 72.0835C42.1467 71.9531 41.8094 71.8864 41.469 71.8874ZM32.304 74.7016C31.2661 74.7016 30.2904 74.2973 29.5564 73.5633C28.0415 72.0466 28.0415 69.5798 29.5564 68.0629L33.2217 64.3976C34.691 62.9302 37.254 62.9289 38.7195 64.3976C40.2357 65.914 40.2357 68.3806 38.7195 69.8969L35.0543 73.562C34.3195 74.2967 33.3424 74.7016 32.304 74.7016ZM35.9717 64.5558C35.6311 64.5547 35.2937 64.6212 34.9789 64.7513C34.6642 64.8814 34.3783 65.0726 34.1379 65.3139L30.4726 68.9792C29.4627 69.9902 29.4627 71.6358 30.4726 72.6469C30.7125 72.8882 30.9979 73.0795 31.3123 73.2097C31.6266 73.34 31.9637 73.4066 32.304 73.4057C32.6447 73.4065 32.9822 73.3397 33.297 73.2092C33.6118 73.0788 33.8976 72.8873 34.1379 72.6457L37.803 68.9806C38.8136 67.97 38.8136 66.3246 37.803 65.314C37.5632 65.0727 37.2778 64.8814 36.9634 64.7512C36.649 64.6211 36.312 64.5547 35.9717 64.5558ZM25.8898 68.2855C24.8507 68.2855 23.8749 67.8818 23.142 67.1475C22.4074 66.4143 22.0024 65.4377 22.0018 64.3992C22.0001 63.8883 22.0998 63.382 22.2951 62.9098C22.4904 62.4376 22.7775 62.0089 23.1396 61.6484L25.8898 58.8995C27.3585 57.4295 29.9215 57.4306 31.3889 58.9008C32.1235 59.6337 32.528 60.6095 32.528 61.6484C32.528 62.6862 32.1235 63.6628 31.3889 64.3973L28.6387 67.1475C27.904 67.8818 26.9276 68.2855 25.8898 68.2855ZM28.6388 59.0568C28.2983 59.0558 27.961 59.1224 27.6464 59.2528C27.3318 59.3831 27.0463 59.5746 26.8062 59.8161L24.056 62.565C23.8147 62.8053 23.6234 63.0912 23.4933 63.4059C23.3632 63.7207 23.2968 64.0582 23.298 64.3988C23.2974 64.7393 23.3644 65.0766 23.4949 65.3912C23.6255 65.7057 23.8171 65.9913 24.0586 66.2314C25.0356 67.2097 26.743 67.2097 27.7226 66.2314L30.4728 63.4812C30.7143 63.2411 30.9057 62.9555 31.0361 62.641C31.1664 62.3264 31.2331 61.9891 31.2323 61.6486C31.2323 60.9564 30.9627 60.3065 30.4734 59.8179C30.2332 59.5759 29.9474 59.384 29.6324 59.2534C29.3175 59.1227 28.9798 59.0559 28.6388 59.0568ZM19.4751 61.8715H19.4745C18.436 61.8715 17.4603 61.4677 16.7269 60.7335C15.2112 59.2168 15.2112 56.7501 16.7269 55.2344L18.5595 53.4017C20.0282 51.9324 22.5873 51.9348 24.056 53.403C24.7907 54.1376 25.1952 55.1135 25.1958 56.1513C25.1964 57.1891 24.792 58.165 24.0573 58.8995L22.2247 60.7322C21.4898 61.467 20.5134 61.8715 19.4751 61.8715ZM21.3065 53.5595C20.9663 53.5587 20.6294 53.6253 20.3151 53.7556C20.0009 53.8858 19.7156 54.0771 19.4758 54.3183L17.6431 56.151C16.6332 57.1616 16.6332 58.8061 17.6431 59.8174C17.8831 60.0586 18.1685 60.2498 18.4828 60.38C18.7972 60.5101 19.1342 60.5766 19.4745 60.5756H19.4751C20.1675 60.5756 20.8185 60.306 21.3084 59.8161L23.1411 57.9834C23.6308 57.4937 23.8999 56.8432 23.8999 56.1514C23.8999 55.4597 23.6297 54.8093 23.1399 54.3195C22.6492 53.8297 21.9987 53.5595 21.3065 53.5595ZM33.2228 44.459C32.2266 44.459 31.2306 44.0793 30.4726 43.3211C28.9571 41.8056 28.9571 39.3402 30.4726 37.8247L36.4287 31.8662C42.0151 26.2797 54.5916 24.4287 55.1236 24.3522C55.4743 24.2958 55.8059 24.5471 55.8572 24.9021C55.8815 25.0723 55.8372 25.2452 55.734 25.3827C55.6309 25.5202 55.4773 25.6112 55.3071 25.6355C55.1805 25.6532 42.625 27.5022 37.3448 32.7824L31.3889 38.7409C30.3789 39.7508 30.3789 41.395 31.3889 42.4049C32.3995 43.4161 34.0434 43.4161 35.0542 42.4062C35.3909 42.0695 43.3483 34.2088 47.4255 38.2816C47.4857 38.3418 47.5334 38.4132 47.566 38.4918C47.5986 38.5704 47.6153 38.6547 47.6153 38.7398C47.6153 38.8249 47.5986 38.9091 47.566 38.9877C47.5334 39.0663 47.4857 39.1377 47.4255 39.1979C47.3654 39.2581 47.294 39.3059 47.2154 39.3385C47.1368 39.371 47.0525 39.3878 46.9674 39.3878C46.8823 39.3878 46.7981 39.371 46.7194 39.3385C46.6408 39.3059 46.5694 39.2581 46.5093 39.1979C43.8805 36.573 38.0105 41.2836 35.9704 43.3224C35.213 44.08 34.2177 44.459 33.2228 44.459ZM73.543 40.3053C73.4579 40.3054 73.3736 40.2887 73.2949 40.2561C73.2163 40.2235 73.1449 40.1757 73.0849 40.1154L55.6737 22.7031C55.6135 22.6429 55.5658 22.5715 55.5332 22.4929C55.5006 22.4143 55.4839 22.3301 55.4839 22.245C55.4839 22.1599 55.5006 22.0756 55.5332 21.997C55.5658 21.9184 55.6135 21.847 55.6737 21.7869C55.7338 21.7266 55.8052 21.6789 55.8838 21.6463C55.9624 21.6137 56.0467 21.5969 56.1318 21.5969C56.2169 21.5969 56.3011 21.6137 56.3797 21.6463C56.4584 21.6789 56.5298 21.7266 56.5899 21.7869L74.0011 39.1992C74.0918 39.2898 74.1535 39.4052 74.1786 39.5309C74.2036 39.6566 74.1908 39.7869 74.1418 39.9053C74.0927 40.0238 74.0096 40.125 73.903 40.1962C73.7965 40.2673 73.6711 40.3053 73.543 40.3053ZM79.9583 37.5551C79.8732 37.5552 79.7889 37.5385 79.7103 37.5059C79.6316 37.4733 79.5602 37.4255 79.5002 37.3652L58.4226 16.2889C58.3624 16.2288 58.3146 16.1573 58.2821 16.0787C58.2495 16.0001 58.2327 15.9159 58.2327 15.8308C58.2327 15.7457 58.2495 15.6615 58.2821 15.5829C58.3146 15.5042 58.3624 15.4328 58.4226 15.3727C58.4827 15.3125 58.5541 15.2647 58.6327 15.2321C58.7113 15.1995 58.7956 15.1827 58.8807 15.1827C58.9658 15.1827 59.05 15.1995 59.1286 15.2321C59.2072 15.2647 59.2787 15.3125 59.3388 15.3727L80.4164 36.449C80.5071 36.5396 80.5689 36.655 80.5939 36.7807C80.6189 36.9064 80.6061 37.0367 80.5571 37.1552C80.508 37.2736 80.4249 37.3748 80.3184 37.446C80.2118 37.5172 80.0865 37.5551 79.9583 37.5551Z" fill="#0739A6"/>
<path d="M56.1328 22.893C56.0047 22.893 55.8794 22.8551 55.7728 22.7839C55.6662 22.7127 55.5831 22.6115 55.5341 22.4931C55.485 22.3747 55.4722 22.2444 55.4972 22.1187C55.5223 21.9929 55.584 21.8775 55.6747 21.7869L58.4236 19.0379C58.4838 18.9777 58.5552 18.93 58.6338 18.8974C58.7124 18.8649 58.7966 18.8481 58.8817 18.8481C58.9668 18.8481 59.0511 18.8649 59.1297 18.8974C59.2083 18.93 59.2797 18.9777 59.3398 19.0379C59.4 19.098 59.4477 19.1694 59.4803 19.248C59.5128 19.3267 59.5296 19.4109 59.5296 19.496C59.5296 19.5811 59.5128 19.6653 59.4803 19.7439C59.4477 19.8225 59.4 19.8939 59.3398 19.9541L56.591 22.7032C56.5309 22.7634 56.4595 22.8113 56.3809 22.8438C56.3022 22.8764 56.2179 22.8931 56.1328 22.893ZM73.544 40.3053C73.4589 40.3055 73.3746 40.2887 73.296 40.2562C73.2174 40.2236 73.146 40.1758 73.0859 40.1155C73.0257 40.0554 72.9779 39.9839 72.9453 39.9053C72.9128 39.8267 72.896 39.7425 72.896 39.6574C72.896 39.5723 72.9128 39.488 72.9453 39.4094C72.9779 39.3308 73.0257 39.2594 73.0859 39.1992L75.8348 36.4502C75.895 36.39 75.9664 36.3423 76.045 36.3098C76.1236 36.2772 76.2079 36.2604 76.293 36.2605C76.3781 36.2605 76.4623 36.2772 76.5409 36.3098C76.6195 36.3424 76.691 36.3901 76.7511 36.4503C76.8113 36.5104 76.859 36.5819 76.8916 36.6605C76.9241 36.7391 76.9409 36.8234 76.9409 36.9085C76.9408 36.9935 76.9241 37.0778 76.8915 37.1564C76.8589 37.235 76.8112 37.3064 76.751 37.3666L74.0022 40.1155C73.9421 40.1757 73.8707 40.2235 73.792 40.2561C73.7134 40.2887 73.6291 40.3054 73.544 40.3053ZM58.8817 16.4788C58.7536 16.4789 58.6282 16.4409 58.5217 16.3697C58.4151 16.2985 58.332 16.1973 58.2829 16.0789C58.2339 15.9605 58.2211 15.8302 58.2461 15.7045C58.2712 15.5788 58.3329 15.4633 58.4236 15.3727L73.5542 0.24225C73.6144 0.182089 73.6858 0.134366 73.7644 0.101807C73.843 0.0692482 73.9273 0.0524902 74.0124 0.0524902C74.0974 0.0524902 74.1817 0.0692482 74.2603 0.101807C74.3389 0.134366 74.4103 0.182089 74.4705 0.24225C74.5306 0.302412 74.5784 0.373833 74.6109 0.452438C74.6435 0.531043 74.6602 0.61529 74.6602 0.700371C74.6602 0.785452 74.6435 0.8697 74.6109 0.948305C74.5784 1.02691 74.5306 1.09833 74.4705 1.15849L59.3398 16.289C59.2798 16.3493 59.2084 16.3971 59.1298 16.4297C59.0511 16.4622 58.9668 16.4789 58.8817 16.4788ZM79.9593 37.5551C79.8742 37.5553 79.7899 37.5386 79.7113 37.506C79.6327 37.4734 79.5613 37.4256 79.5012 37.3653C79.441 37.3052 79.3932 37.2337 79.3607 37.1551C79.3281 37.0765 79.3113 36.9923 79.3113 36.9072C79.3113 36.8221 79.3281 36.7378 79.3607 36.6592C79.3932 36.5806 79.441 36.5092 79.5012 36.4491L81.8946 34.0583C81.9548 33.9981 82.0262 33.9504 82.1048 33.9178C82.1834 33.8853 82.2676 33.8685 82.3527 33.8685C82.4378 33.8685 82.5221 33.8853 82.6007 33.9178C82.6793 33.9504 82.7507 33.9981 82.8108 34.0583C82.871 34.1184 82.9187 34.1898 82.9513 34.2685C82.9839 34.3471 83.0006 34.4313 83.0006 34.5164C83.0006 34.6015 82.9839 34.6857 82.9513 34.7643C82.9187 34.8429 82.871 34.9143 82.8108 34.9745L80.4175 37.3653C80.3574 37.4256 80.286 37.4734 80.2074 37.5059C80.1287 37.5385 80.0444 37.5552 79.9593 37.5551ZM9.39622 42.1354C9.26803 42.1355 9.1427 42.0975 9.03609 42.0263C8.92948 41.9552 8.84638 41.854 8.79731 41.7355C8.74824 41.6171 8.73541 41.4868 8.76045 41.3611C8.78548 41.2354 8.84725 41.1199 8.93794 41.0293L26.3503 23.6194C26.6033 23.3662 27.0135 23.3662 27.2665 23.6194C27.5196 23.8726 27.5197 24.2826 27.2665 24.5356L9.85434 41.9455C9.79422 42.0058 9.72281 42.0535 9.6442 42.0861C9.56559 42.1187 9.48132 42.1354 9.39622 42.1354ZM2.98204 39.3878C2.89693 39.3879 2.81265 39.3712 2.73403 39.3386C2.65541 39.306 2.584 39.2582 2.52392 39.1979C2.46371 39.1378 2.41594 39.0664 2.38335 38.9878C2.35076 38.9092 2.33398 38.8249 2.33398 38.7398C2.33398 38.6547 2.35076 38.5705 2.38335 38.4919C2.41594 38.4132 2.46371 38.3418 2.52392 38.2817L23.6015 17.2054C23.6617 17.1452 23.7331 17.0974 23.8117 17.0648C23.8903 17.0322 23.9746 17.0154 24.0597 17.0154C24.1448 17.0154 24.229 17.0322 24.3076 17.0648C24.3862 17.0974 24.4576 17.1452 24.5178 17.2054C24.578 17.2655 24.6258 17.3369 24.6583 17.4155C24.6909 17.4941 24.7077 17.5784 24.7077 17.6635C24.7077 17.7486 24.6909 17.8329 24.6583 17.9115C24.6258 17.9901 24.578 18.0615 24.5178 18.1216L3.44016 39.1979C3.38007 39.2582 3.30866 39.306 3.23004 39.3386C3.15142 39.3712 3.06714 39.3879 2.98204 39.3878Z" fill="#0739A6"/>
<path d="M9.39566 42.1353C9.31054 42.1354 9.22624 42.1186 9.1476 42.0861C9.06895 42.0535 8.99751 42.0057 8.93737 41.9455L6.18849 39.1979C5.93527 38.9447 5.93527 38.5347 6.18849 38.2816C6.4417 38.0286 6.85168 38.0284 7.10473 38.2816L9.85378 41.0292C9.94446 41.1198 10.0062 41.2353 10.0313 41.361C10.0563 41.4867 10.0435 41.617 9.99443 41.7354C9.94539 41.8538 9.86231 41.955 9.75573 42.0262C9.64914 42.0974 9.52383 42.1354 9.39566 42.1353ZM26.808 24.7254C26.7229 24.7255 26.6386 24.7088 26.56 24.6762C26.4814 24.6437 26.4099 24.5959 26.3499 24.5356L23.6008 21.7867C23.5406 21.7266 23.4928 21.6551 23.4602 21.5765C23.4277 21.4979 23.4109 21.4137 23.4109 21.3286C23.4109 21.2435 23.4277 21.1592 23.4602 21.0806C23.4928 21.002 23.5406 20.9306 23.6008 20.8705C23.6609 20.8102 23.7324 20.7625 23.811 20.7299C23.8896 20.6973 23.9738 20.6805 24.0589 20.6805C24.144 20.6805 24.2283 20.6973 24.3069 20.7299C24.3855 20.7625 24.4569 20.8102 24.5171 20.8705L27.2661 23.6193C27.3263 23.6795 27.3741 23.7509 27.4067 23.8295C27.4393 23.9081 27.456 23.9924 27.456 24.0775C27.456 24.1626 27.4393 24.2468 27.4067 24.3254C27.3741 24.404 27.3263 24.4754 27.2661 24.5356C27.206 24.5958 27.1346 24.6436 27.056 24.6762C26.9774 24.7088 26.8931 24.7255 26.808 24.7254ZM2.98148 39.3877C2.89637 39.3878 2.81209 39.3711 2.73346 39.3385C2.65484 39.306 2.58344 39.2582 2.52335 39.1979L0.237612 36.9121C0.117349 36.7904 0.0501418 36.626 0.0506643 36.4548C0.0511868 36.2837 0.119396 36.1197 0.240401 35.9987C0.361406 35.8777 0.525378 35.8094 0.696519 35.8089C0.867661 35.8083 1.03207 35.8755 1.15385 35.9957L3.4396 38.2815C3.49981 38.3416 3.54757 38.413 3.58016 38.4916C3.61275 38.5702 3.62953 38.6545 3.62953 38.7396C3.62953 38.8247 3.61275 38.909 3.58016 38.9876C3.54757 39.0662 3.49981 39.1376 3.4396 39.1977C3.37954 39.258 3.30814 39.3059 3.22952 39.3385C3.15089 39.3711 3.06659 39.3878 2.98148 39.3877ZM24.0589 18.3114C23.9738 18.3115 23.8896 18.2947 23.811 18.2621C23.7323 18.2296 23.6609 18.1818 23.6008 18.1216L6.64288 1.16347C6.38966 0.910251 6.38966 0.500276 6.64288 0.247223C6.89609 -0.00582933 7.30607 -0.00599144 7.55912 0.247223L24.5171 17.2052C24.5773 17.2653 24.625 17.3367 24.6576 17.4153C24.6902 17.4939 24.707 17.5782 24.707 17.6633C24.707 17.7484 24.6902 17.8326 24.6576 17.9112C24.625 17.9899 24.5773 18.0613 24.5171 18.1214C24.457 18.1817 24.3856 18.2295 24.307 18.2621C24.2283 18.2948 24.1441 18.3115 24.0589 18.3114ZM1.94235 33.7012C1.68677 33.702 1.43357 33.652 1.19741 33.5543C0.961248 33.4565 0.74682 33.3129 0.566532 33.1318C-0.189708 32.3718 -0.188411 31.1391 0.567829 30.3829C1.29943 29.6488 2.58463 29.6482 3.31737 30.3835C3.49825 30.5634 3.64161 30.7774 3.73915 31.0132C3.83668 31.2489 3.88645 31.5016 3.88556 31.7567C3.88652 32.0122 3.83673 32.2653 3.73908 32.5013C3.64143 32.7374 3.49786 32.9516 3.31672 33.1318C3.13679 33.313 2.92263 33.4567 2.68669 33.5544C2.45076 33.6522 2.19774 33.7021 1.94235 33.7012ZM1.94235 31.1093C1.7689 31.1093 1.6063 31.1764 1.48488 31.2985C1.36331 31.4203 1.29498 31.5853 1.29486 31.7574C1.29474 31.9295 1.36284 32.0947 1.48423 32.2166C1.72594 32.4577 2.15569 32.4596 2.39983 32.216C2.46026 32.1559 2.50815 32.0844 2.54074 32.0056C2.57332 31.9269 2.58995 31.8425 2.58966 31.7572C2.58966 31.5838 2.52254 31.4212 2.40048 31.2991C2.34054 31.2386 2.26916 31.1907 2.19051 31.1581C2.11185 31.1255 2.02749 31.1089 1.94235 31.1093Z" fill="#0739A6"/>
</g>
<defs>
<clipPath id="clip0_300_1105">
<rect width="83" height="83" fill="white"/>
</clipPath>
</defs>
</svg>
