<svg width="87" height="87" viewBox="0 0 87 87" fill="none" xmlns="http://www.w3.org/2000/svg">
<path d="M37.0303 67.9144C37.0303 67.9144 42.7125 74.589 39.4771 81.9976" stroke="#0739A6" stroke-width="2" stroke-miterlimit="10" stroke-linecap="round" stroke-linejoin="round"/>
<path d="M50.5828 58.1133C48.2175 65.9569 44.0714 67.0988 44.0714 67.0988L28.357 68.9203C24.9994 69.3146 21.9136 67.0988 21.1931 63.8091L18.5288 51.6155L14.07 51.466C12.5475 51.4116 11.5416 49.8619 12.0989 48.4481L16.3945 37.4916C15.7692 35.5885 15.3342 33.5902 15.1167 31.5239H22.838" stroke="#0739A6" stroke-width="2" stroke-miterlimit="10" stroke-linecap="round" stroke-linejoin="round"/>
<path d="M53.125 31.5239H75.0517C75.0789 49.6852 60.8734 59.2688 65.8623 81.9975" stroke="#0739A6" stroke-width="2" stroke-miterlimit="10" stroke-linecap="round" stroke-linejoin="round"/>
<path d="M46.2324 47.6053V8.45532" stroke="#0739A6" stroke-width="2" stroke-miterlimit="10" stroke-linecap="round" stroke-linejoin="round"/>
<path d="M46.233 45.3895C46.233 12.479 21.5467 16.6251 21.5467 16.6251C21.5467 16.6251 19.698 32.2443 43.6502 29.7431" stroke="#0739A6" stroke-width="2" stroke-miterlimit="10" stroke-linecap="round" stroke-linejoin="round"/>
<path d="M46.2324 33.93C46.2324 1.01952 70.9187 5.16561 70.9187 5.16561C70.9187 5.16561 72.7674 20.7848 48.8152 18.2836" stroke="#0739A6" stroke-width="2" stroke-miterlimit="10" stroke-linecap="round" stroke-linejoin="round"/>
</svg>
