<svg width="85" height="78" viewBox="0 0 85 78" fill="none" xmlns="http://www.w3.org/2000/svg">
<path d="M42.5 32C47.7467 32 52 27.7467 52 22.5C52 17.2533 47.7467 13 42.5 13C37.2533 13 33 17.2533 33 22.5C33 27.7467 37.2533 32 42.5 32Z" stroke="#0739A6" stroke-width="1.3" stroke-linecap="round" stroke-linejoin="round"/>
<path d="M48.9992 21.7752V24.2376C49.0008 24.3536 48.9808 24.4689 48.9406 24.5766C48.9004 24.6843 48.8406 24.7824 48.7648 24.8651C48.689 24.9477 48.5987 25.0134 48.499 25.0582C48.3994 25.103 48.2925 25.1261 48.1845 25.1261H44.4772V29.1115C44.4772 29.3472 44.3901 29.5731 44.2352 29.7398C44.0802 29.9064 43.8699 30 43.6508 30H41.3248C41.1056 30 40.8954 29.9064 40.7404 29.7398C40.5854 29.5731 40.4984 29.3472 40.4984 29.1115V25.1261H36.8265C36.6073 25.1261 36.3971 25.0324 36.2421 24.8658C36.0871 24.6992 36 24.4732 36 24.2376V21.7752C36 21.6585 36.0214 21.543 36.0629 21.4352C36.1044 21.3274 36.1653 21.2295 36.2421 21.147C36.3188 21.0645 36.4099 20.999 36.5102 20.9544C36.6105 20.9097 36.7179 20.8867 36.8265 20.8867H40.5338V16.8759C40.5338 16.7598 40.5552 16.6449 40.5969 16.5378C40.6386 16.4307 40.6996 16.3336 40.7765 16.2521C40.8534 16.1706 40.9447 16.1063 41.0449 16.0631C41.1451 16.0198 41.2523 15.9984 41.3602 16.0001H43.6862C43.7941 15.9984 43.9014 16.0198 44.0016 16.0631C44.1018 16.1063 44.193 16.1706 44.2699 16.2521C44.3468 16.3336 44.4078 16.4307 44.4495 16.5378C44.4912 16.6449 44.5127 16.7598 44.5126 16.8759V20.8613H48.22C48.327 20.8662 48.432 20.8938 48.5291 20.9424C48.6262 20.991 48.7135 21.0597 48.7859 21.1446C48.8582 21.2294 48.9143 21.3288 48.951 21.437C48.9876 21.5453 49.004 21.6602 48.9992 21.7752Z" stroke="#0739A6" stroke-width="1.3" stroke-linecap="round" stroke-linejoin="round"/>
<path d="M43 1L66 19.5026V70" stroke="#0739A6" stroke-width="1.3" stroke-linecap="round" stroke-linejoin="round"/>
<path d="M83 36H66V70H83V36Z" stroke="#0739A6" stroke-width="1.3" stroke-linecap="round" stroke-linejoin="round"/>
<path d="M50 39H45V44H50V39Z" stroke="#0739A6" stroke-width="1.3" stroke-linecap="round" stroke-linejoin="round"/>
<path d="M59 39H55V44H59V39Z" stroke="#0739A6" stroke-width="1.3" stroke-linecap="round" stroke-linejoin="round"/>
<path d="M50 48H45V53H50V48Z" stroke="#0739A6" stroke-width="1.3" stroke-linecap="round" stroke-linejoin="round"/>
<path d="M59 48H55V53H59V48Z" stroke="#0739A6" stroke-width="1.3" stroke-linecap="round" stroke-linejoin="round"/>
<path d="M59 57H55V62H59V57Z" stroke="#0739A6" stroke-width="1.3" stroke-linecap="round" stroke-linejoin="round"/>
<path d="M77 57H72V62H77V57Z" stroke="#0739A6" stroke-width="1.3" stroke-linecap="round" stroke-linejoin="round"/>
<path d="M77 48H72V53H77V48Z" stroke="#0739A6" stroke-width="1.3" stroke-linecap="round" stroke-linejoin="round"/>
<path d="M84 30H66V36H84V30Z" stroke="#0739A6" stroke-width="1.3" stroke-linecap="round" stroke-linejoin="round"/>
<path d="M42 1L20 19.5026V70" stroke="#0739A6" stroke-width="1.3" stroke-linecap="round" stroke-linejoin="round"/>
<path d="M83 70H2V77H83V70Z" stroke="#0739A6" stroke-width="1.3" stroke-linecap="round" stroke-linejoin="round"/>
<path d="M20 36H2V70H20V36Z" stroke="#0739A6" stroke-width="1.3" stroke-linecap="round" stroke-linejoin="round"/>
<path d="M40 39H36V44H40V39Z" stroke="#0739A6" stroke-width="1.3" stroke-linecap="round" stroke-linejoin="round"/>
<path d="M30 39H26V44H30V39Z" stroke="#0739A6" stroke-width="1.3" stroke-linecap="round" stroke-linejoin="round"/>
<path d="M40 48H36V53H40V48Z" stroke="#0739A6" stroke-width="1.3" stroke-linecap="round" stroke-linejoin="round"/>
<path d="M30 48H26V53H30V48Z" stroke="#0739A6" stroke-width="1.3" stroke-linecap="round" stroke-linejoin="round"/>
<path d="M30 57H26V62H30V57Z" stroke="#0739A6" stroke-width="1.3" stroke-linecap="round" stroke-linejoin="round"/>
<path d="M14 57H8V62H14V57Z" stroke="#0739A6" stroke-width="1.3" stroke-linecap="round" stroke-linejoin="round"/>
<path d="M14 48H8V53H14V48Z" stroke="#0739A6" stroke-width="1.3" stroke-linecap="round" stroke-linejoin="round"/>
<path d="M20 30H1V36H20V30Z" stroke="#0739A6" stroke-width="1.3" stroke-linecap="round" stroke-linejoin="round"/>
<path d="M50 57H36V70H50V57Z" stroke="#0739A6" stroke-width="1.3" stroke-linecap="round" stroke-linejoin="round"/>
<path d="M43 57L42 70" stroke="#0739A6" stroke-width="1.3" stroke-linecap="round" stroke-linejoin="round"/>
</svg>
