<svg width="131" height="38" viewBox="0 0 131 38" fill="none" xmlns="http://www.w3.org/2000/svg">
<path d="M114.103 30.2564C116.219 30.2564 117.72 29.8709 118.835 29.0633V25.3317C117.681 26.1392 116.296 26.6398 114.372 26.6398C111.102 26.6398 109.756 24.1003 109.756 20.0992C109.756 15.9053 111.41 13.7513 114.411 13.7513C116.181 13.7513 117.912 14.367 118.835 14.9443V11.0583C117.873 10.5193 116.181 10.1348 113.911 10.1348C108.063 10.1348 105.023 14.3286 105.023 20.2143C105.023 26.6782 107.986 30.2564 114.103 30.2564ZM85.4798 28.5627V24.8311C84.0566 25.793 81.6714 26.6398 79.4398 26.6398C76.0918 26.6398 74.8229 25.0622 74.6302 21.8303H85.6716V19.4068C85.6716 12.6743 82.7091 10.1348 78.1316 10.1348C72.5529 10.1348 69.8973 14.4054 69.8973 20.2526C69.8973 26.986 73.207 30.2554 79.0542 30.2554C81.9784 30.2554 84.1333 29.4863 85.4798 28.5627ZM43.5448 10.5193V18.1754H37.4271V10.5193H32.8496V29.8709H37.4271V21.7928H43.5448V29.8718H48.1233V10.5212H43.5448V10.5193ZM68.7829 26.2562H66.7431V10.5193H53.3942V12.1737C53.3942 16.9056 53.0872 23.0233 51.4713 26.2553H50.0471V34.2958H54.2793V29.8709H64.5516V34.2958H68.7838V26.2553L68.7829 26.2562ZM100.099 29.8718H105.293L97.9444 19.4461L104.408 10.5203H99.7915L93.3276 19.4461V10.5203H88.7501V29.8718H93.3276V20.3687L100.099 29.8718ZM78.054 13.7522C80.324 13.7522 81.0164 15.6377 81.0164 18.0612V18.4458H74.6302C74.7462 15.3673 75.8607 13.7522 78.054 13.7522ZM62.1655 26.2562H55.7016C56.9714 23.3321 57.3176 18.0612 57.3176 14.7142V14.1368H62.1646L62.1655 26.2562Z" fill="black"/>
<path d="M29.0024 29.8708H24.3472V6.74935H22.2699C18.4616 6.74935 16.461 8.67224 16.461 11.5196C16.461 14.7506 17.8459 16.2515 20.6923 18.1754L23.0391 19.753L16.2683 29.8708H11.2285L17.3069 20.83C13.8064 18.3288 11.8442 15.9053 11.8442 11.7891C11.8442 6.63332 15.4224 3.13281 22.2316 3.13281H29.0024V29.8708Z" fill="#FC3F1D"/>
</svg>
