<svg width="73" height="29" viewBox="0 0 73 29" fill="none" xmlns="http://www.w3.org/2000/svg">
<g clip-path="url(#clip0_179_882)">
<mask id="mask0_179_882" style="mask-type:luminance" maskUnits="userSpaceOnUse" x="0" y="0" width="73" height="29">
<path d="M0 0H73V29H0V0Z" fill="white"/>
</mask>
<g mask="url(#mask0_179_882)">
<path d="M31.15 14.5C31.1454 12.7641 30.8072 11.0453 30.154 9.437C29.985 14.63 24.314 18.653 20.986 21.315H29.32C30.517 19.2431 31.1481 16.8928 31.15 14.5ZM25.125 3.063C22.487 1.149 19.178 0 15.574 0C6.973 0 0 6.492 0 14.5C0 22.508 6.973 29 15.574 29C19.514 29 23.101 27.629 25.843 25.383H14.566L14.533 22.299C21.327 16.801 25.493 13.082 25.493 9.49C25.493 8.155 24.946 6.47 22.489 6.47C20.543 6.47 18.665 7.52 19.005 11.906H15.045C14.055 6.821 17.025 2.783 22.693 2.783C23.57 2.783 24.383 2.881 25.125 3.063Z" fill="#AFCA0B"/>
<path d="M45.5959 10.0218H49.2799C49.4059 7.41281 48.4619 3.27881 42.3849 3.27881C37.9129 3.27881 34.6689 5.77181 34.6689 10.9598C34.6689 11.6638 34.6999 15.2988 34.6999 17.5568C34.6999 23.1848 38.8899 24.4168 42.4149 24.4168C44.5249 24.4168 47.5789 23.9768 48.9969 22.5398V13.5698H42.0699V16.8238H45.1559V20.7798C42.8249 21.5128 38.5739 21.8068 38.5739 16.8238V10.9598C38.5739 7.47181 40.3059 6.26881 42.2259 6.26881C44.2109 6.26881 45.5959 7.20781 45.5959 10.0218ZM72.9979 18.7298C73.1569 10.6968 63.2689 13.3638 63.3639 8.87781C63.3939 7.29581 64.4979 6.26881 66.2919 6.26881C68.2119 6.26881 69.346 7.32481 69.3139 10.0808H72.9349C73.0309 7.58781 72.4019 3.33781 66.4189 3.33781C62.7029 3.33781 59.6479 5.03781 59.5849 8.81981C59.4269 16.5298 69.3769 14.0098 69.2189 18.6698C69.1569 20.5748 67.6769 21.4248 66.0079 21.4248C64.056 21.4248 62.4819 20.3698 62.7969 17.2048H59.1429C58.7349 21.3958 60.7189 24.3868 65.9769 24.3868C70.4169 24.3868 72.9349 22.0998 72.9979 18.7298ZM56.3649 24.1218H52.6489V3.60181H56.3649V24.1218ZM56.3649 24.1218H52.6489V3.60181H56.3649V24.1218Z" fill="#3C3C3B"/>
</g>
</g>
<defs>
<clipPath id="clip0_179_882">
<rect width="73" height="29" fill="white"/>
</clipPath>
</defs>
</svg>
