<svg width="81" height="81" viewBox="0 0 81 81" fill="none" xmlns="http://www.w3.org/2000/svg">
<path d="M70.3301 23.8064L69.9757 44.4361C69.9757 47.4609 67.5204 49.9036 64.5082 49.9036L57.2941 50.2326C56.2057 50.2326 55.2312 50.9034 54.8135 51.9159L50.1434 65.7745C49.6371 66.9769 48.612 67.4578 47.321 67.2047C45.8023 66.9009 45.6504 65.8378 45.6504 64.8126C45.701 64.2811 45.7516 64.028 45.9288 63.5091L50.2573 50.1947C51.3077 46.8155 54.2187 44.8284 56.4588 44.7525L60.7873 44.4614C62.4959 44.4614 63.1666 43.4616 63.483 41.7783L63.964 33.4758L59.6988 34.9059C58.4459 35.3109 57.1043 35.3362 55.8513 34.9692L49.4726 33.0961C48.4474 32.7923 47.6627 31.8811 47.6627 30.8053C47.6754 29.4764 48.7765 28.5905 49.9155 28.5905C50.1054 28.5905 50.2826 28.6158 50.4724 28.6664L56.3196 30.1598C57.0916 30.3623 58.2054 30.5142 59.876 30.0333C60.9518 29.7295 61.901 29.0334 62.5718 28.1348L65.5587 24.1608" stroke="#0739A6" stroke-width="2" stroke-miterlimit="10" stroke-linecap="round" stroke-linejoin="round"/>
<path d="M75.1782 26.5022L74.6339 54.4472H60.8386C59.6489 54.4472 58.6238 55.2699 58.358 56.4216L55.3838 67.1034" stroke="#0739A6" stroke-width="2" stroke-miterlimit="10" stroke-linecap="round" stroke-linejoin="round"/>
<path d="M74.6338 54.4471L76.6968 67.4325" stroke="#0739A6" stroke-width="2" stroke-miterlimit="10" stroke-linecap="round" stroke-linejoin="round"/>
<path d="M67.5836 24.5531C70.6172 24.5531 73.0764 22.0939 73.0764 19.0603C73.0764 16.0267 70.6172 13.5675 67.5836 13.5675C64.55 13.5675 62.0908 16.0267 62.0908 19.0603C62.0908 22.0939 64.55 24.5531 67.5836 24.5531Z" stroke="#0739A6" stroke-width="2" stroke-miterlimit="10" stroke-linecap="round" stroke-linejoin="round"/>
<path d="M10.6689 23.8064L11.0233 44.4361C11.0233 47.4609 13.4786 49.9036 16.4908 49.9036L23.7049 50.2326C24.7933 50.2326 25.7679 50.9034 26.1855 51.9159L30.8557 65.7745C31.3619 66.9769 32.3871 67.4578 33.678 67.2047C35.1968 66.9009 35.3486 65.8378 35.3486 64.8126C35.298 64.2811 35.2474 64.028 35.0702 63.5091L30.7418 50.1947C29.6913 46.8155 26.7804 44.8284 24.5402 44.7525L20.2118 44.4614C18.5032 44.4614 17.8324 43.4616 17.516 41.7783L17.035 33.4758L21.3002 34.9059C22.5532 35.3109 23.8947 35.3362 25.1477 34.9692L31.5264 33.0961C32.5516 32.7923 33.3363 31.8811 33.3363 30.8053C33.3236 29.4764 32.2225 28.5905 31.0835 28.5905C30.8936 28.5905 30.7164 28.6158 30.5266 28.6664L24.6794 30.1598C23.9074 30.3623 22.7936 30.5142 21.123 30.0333C20.0472 29.7295 19.098 29.0334 18.4272 28.1348L15.4404 24.1608" stroke="#0739A6" stroke-width="2" stroke-miterlimit="10" stroke-linecap="round" stroke-linejoin="round"/>
<path d="M5.82129 26.5022L6.36551 54.4472H20.1608C21.3505 54.4472 22.3757 55.2699 22.6414 56.4216L25.6157 67.1034" stroke="#0739A6" stroke-width="2" stroke-miterlimit="10" stroke-linecap="round" stroke-linejoin="round"/>
<path d="M6.3657 54.4471L4.30273 67.4325" stroke="#0739A6" stroke-width="2" stroke-miterlimit="10" stroke-linecap="round" stroke-linejoin="round"/>
<path d="M13.4157 24.5531C16.4493 24.5531 18.9085 22.0939 18.9085 19.0603C18.9085 16.0267 16.4493 13.5675 13.4157 13.5675C10.3821 13.5675 7.92285 16.0267 7.92285 19.0603C7.92285 22.0939 10.3821 24.5531 13.4157 24.5531Z" stroke="#0739A6" stroke-width="2" stroke-miterlimit="10" stroke-linecap="round" stroke-linejoin="round"/>
</svg>
