<svg width="85" height="84" viewBox="0 0 85 84" fill="none" xmlns="http://www.w3.org/2000/svg">
<path d="M21.6352 16.4982C16.0438 20.8819 12.4579 27.6675 12.4579 35.28C12.4579 37.8788 12.8829 40.3857 13.6399 42.7088L10.0672 51.7257C9.60239 52.8938 10.4524 54.1669 11.7141 54.2063L15.4196 54.3244L17.6243 64.3519C18.2219 67.0688 20.7985 68.8932 23.5876 68.565L36.6829 67.0688C36.6829 67.0688 40.136 66.1238 42.1016 59.6532" stroke="#0739A6" stroke-width="2" stroke-miterlimit="10" stroke-linecap="round" stroke-linejoin="round"/>
<path d="M54.8387 79.3407C50.27 58.7345 65.0918 51.2401 62.1036 32.9964C61.9309 31.9464 61.7317 30.9357 61.4926 29.9645" stroke="#0739A6" stroke-width="2" stroke-miterlimit="10" stroke-linecap="round" stroke-linejoin="round"/>
<path d="M30.8262 67.7513C30.8262 67.7513 35.5676 73.2507 32.8715 79.3407" stroke="#0739A6" stroke-width="2" stroke-miterlimit="10" stroke-linecap="round" stroke-linejoin="round"/>
<path d="M31.2111 26.4863C31.2111 26.4863 26.5361 24.7407 29.5244 20.7375C29.5244 20.7375 25.2346 17.8632 26.6158 13.4663C27.9971 9.06942 33.3627 10.0538 33.3627 10.0538C33.3627 10.0538 34.0135 5.22379 38.9541 4.71192C43.8947 4.20004 45.3955 7.83567 45.3955 7.83567C45.3955 7.83567 47.4275 4.46254 50.8408 4.65942C54.2541 4.85629 55.0908 8.45254 55.0908 8.45254C55.0908 8.45254 58.4244 4.29192 65.3174 5.88004C72.0643 7.44192 71.9447 15.8288 71.9447 15.8288C71.9447 15.8288 76.4736 17.8763 74.6408 22.68C72.7416 27.6807 66.008 24.8719 66.008 24.8719C66.008 24.8719 59.1947 29.19 53.8291 23.3625C53.8291 23.3625 42.9916 26.355 41.7697 20.3307C41.7697 20.3307 41.69 25.2919 37.5994 24.57" stroke="#0739A6" stroke-width="2" stroke-miterlimit="10" stroke-linecap="round" stroke-linejoin="round"/>
<path d="M52.2754 19.0182C52.2754 19.0182 51.8504 21.1969 53.8028 23.3757" stroke="#0739A6" stroke-width="2" stroke-miterlimit="10" stroke-linecap="round" stroke-linejoin="round"/>
<path d="M71.9314 15.8419C71.9314 15.8419 69.5143 14.8575 67.5088 15.4219" stroke="#0739A6" stroke-width="2" stroke-miterlimit="10" stroke-linecap="round" stroke-linejoin="round"/>
<path d="M41.252 12.7313C41.252 12.7313 43.7355 10.5 46.6574 12.7313" stroke="#0739A6" stroke-width="2" stroke-miterlimit="10" stroke-linecap="round" stroke-linejoin="round"/>
<path d="M60.0315 14.6869C60.0315 14.6869 59.0487 16.9575 62.1034 18.3225" stroke="#0739A6" stroke-width="2" stroke-miterlimit="10" stroke-linecap="round" stroke-linejoin="round"/>
</svg>
