<svg width="92" height="92" viewBox="0 0 92 92" fill="none" xmlns="http://www.w3.org/2000/svg">
<path d="M61.0908 84.8044H0.728516C0.331227 84.8044 0.00976562 84.4829 0.00976562 84.0858V78.0478C0.00976562 73.6043 2.29054 71.9088 6.499 70.334C7.30741 70.0308 8.36901 69.7306 9.59789 69.3824C13.7923 68.1952 20.1306 66.4013 20.1306 62.96C20.1306 62.8656 20.1491 62.7721 20.1852 62.6849C20.2213 62.5977 20.2742 62.5184 20.3409 62.4517C20.4077 62.385 20.4869 62.332 20.5741 62.2959C20.6613 62.2599 20.7548 62.2413 20.8492 62.2414C20.9436 62.2413 21.037 62.2599 21.1242 62.296C21.2114 62.3321 21.2907 62.385 21.3574 62.4518C21.4241 62.5185 21.4771 62.5977 21.5132 62.6849C21.5493 62.7721 21.5678 62.8656 21.5678 62.96C21.5678 67.4875 14.8759 69.3824 9.98943 70.7663C8.79145 71.1045 7.75627 71.3979 7.00338 71.68C3.23857 73.0891 1.44691 74.3999 1.44691 78.0478V83.3673H60.3722V78.0478C60.3722 74.3999 58.5798 73.0891 54.8157 71.6815C54.0607 71.3979 53.0262 71.1045 51.8275 70.7649C46.942 69.3809 40.2513 67.4861 40.2513 62.9598C40.2513 62.8654 40.2698 62.7719 40.3059 62.6847C40.342 62.5975 40.3949 62.5183 40.4616 62.4515C40.5284 62.3848 40.6076 62.3319 40.6948 62.2958C40.782 62.2597 40.8755 62.2411 40.9699 62.2412C41.0643 62.2412 41.1577 62.2597 41.2449 62.2958C41.3321 62.3319 41.4114 62.3848 41.4781 62.4516C41.5448 62.5183 41.5978 62.5975 41.6339 62.6847C41.67 62.7719 41.6885 62.8654 41.6885 62.9598C41.6885 66.3999 48.0255 68.195 52.219 69.3822C53.4485 69.7304 54.5095 70.0307 55.3194 70.3352C59.5286 71.9086 61.8092 73.6039 61.8092 78.0476V84.0856C61.8093 84.18 61.7908 84.2735 61.7547 84.3608C61.7187 84.448 61.6657 84.5273 61.599 84.594C61.5323 84.6608 61.4531 84.7137 61.3658 84.7498C61.2786 84.7859 61.1851 84.8045 61.0908 84.8044Z" fill="#0739A6"/>
<path d="M30.9098 66.1209C24.1659 66.1209 14.3074 56.0563 13.0789 45.3643C13.0573 45.1751 13.1116 44.985 13.2301 44.8358C13.3485 44.6866 13.5212 44.5904 13.7105 44.5685C13.8044 44.5573 13.8995 44.5649 13.9905 44.5907C14.0815 44.6165 14.1664 44.6602 14.2404 44.719C14.3144 44.7779 14.376 44.8508 14.4216 44.9337C14.4673 45.0165 14.4961 45.1075 14.5063 45.2015C15.3709 52.7173 23.2285 64.6838 30.91 64.6838C38.5921 64.6838 46.449 52.7159 47.3122 45.2001C47.3578 44.8057 47.7381 44.532 48.1073 44.567C48.2967 44.5889 48.4696 44.685 48.5882 44.8342C48.7069 44.9833 48.7615 45.1735 48.7402 45.3629C47.5118 56.0548 37.6544 66.1209 30.9098 66.1209Z" fill="#0739A6"/>
<path d="M20.8494 63.6787C20.755 63.6788 20.6616 63.6602 20.5744 63.6242C20.4871 63.5881 20.4079 63.5351 20.3412 63.4684C20.2744 63.4017 20.2215 63.3224 20.1854 63.2352C20.1493 63.148 20.1308 63.0545 20.1309 62.9601V59.7349C20.1309 59.3376 20.4521 59.0162 20.8494 59.0162C20.9438 59.0161 21.0373 59.0347 21.1245 59.0708C21.2117 59.1069 21.291 59.1598 21.3577 59.2266C21.4244 59.2934 21.4774 59.3726 21.5135 59.4598C21.5495 59.5471 21.5681 59.6405 21.568 59.7349V62.9601C21.568 63.0545 21.5495 63.148 21.5134 63.2352C21.4773 63.3224 21.4244 63.4016 21.3576 63.4683C21.2909 63.5351 21.2117 63.588 21.1245 63.6241C21.0373 63.6602 20.9438 63.6788 20.8494 63.6787ZM40.9703 63.6787C40.8759 63.6788 40.7824 63.6602 40.6952 63.6242C40.608 63.5881 40.5288 63.5351 40.462 63.4684C40.3953 63.4017 40.3424 63.3224 40.3063 63.2352C40.2702 63.148 40.2517 63.0545 40.2517 62.9601V59.7349C40.2517 59.3376 40.573 59.0162 40.9703 59.0162C41.0647 59.0161 41.1582 59.0347 41.2454 59.0708C41.3326 59.1069 41.4118 59.1598 41.4786 59.2266C41.5453 59.2934 41.5982 59.3726 41.6343 59.4598C41.6704 59.5471 41.6889 59.6405 41.6889 59.7349V62.9601C41.6889 63.0545 41.6704 63.148 41.6343 63.2352C41.5982 63.3224 41.5452 63.4016 41.4785 63.4683C41.4118 63.5351 41.3325 63.588 41.2453 63.6241C41.1581 63.6602 41.0647 63.6788 40.9703 63.6787ZM61.091 37.3768C60.9593 37.3768 60.8286 37.3403 60.7135 37.27C60.6093 37.2054 60.5233 37.1153 60.4637 37.0083C60.404 36.9012 60.3726 36.7808 60.3724 36.6582V34.5023H56.7794C56.685 34.5024 56.5915 34.4838 56.5043 34.4477C56.4171 34.4116 56.3378 34.3586 56.2711 34.2919C56.2044 34.2251 56.1515 34.1459 56.1154 34.0587C56.0793 33.9714 56.0607 33.8779 56.0608 33.7836V7.91413C56.0608 7.81975 56.0793 7.72629 56.1154 7.63909C56.1515 7.55188 56.2044 7.47265 56.2712 7.40592C56.3379 7.33918 56.4171 7.28625 56.5043 7.25016C56.5915 7.21406 56.685 7.19551 56.7794 7.19556H91.2724C91.3668 7.19551 91.4602 7.21406 91.5474 7.25016C91.6346 7.28625 91.7139 7.33918 91.7806 7.40592C91.8473 7.47265 91.9002 7.55188 91.9363 7.63909C91.9724 7.72629 91.991 7.81975 91.9909 7.91413V33.7837C91.9909 34.181 91.6695 34.5025 91.2724 34.5025H67.0097L61.4126 37.3011C61.3115 37.3514 61.2006 37.3768 61.091 37.3768ZM57.4981 33.0652H61.091C61.1854 33.0651 61.2788 33.0837 61.366 33.1198C61.4532 33.1559 61.5325 33.2088 61.5992 33.2755C61.6659 33.3423 61.7189 33.4215 61.755 33.5087C61.791 33.5959 61.8096 33.6894 61.8096 33.7837V35.496L66.5184 33.141C66.6184 33.0916 66.7283 33.0657 66.8397 33.0652H90.5536V8.6327H57.4981V33.0652Z" fill="#0739A6"/>
<path d="M67.1782 24.4391C67.0613 24.4396 66.9461 24.4112 66.8428 24.3565L65.4027 23.5985L63.9627 24.3565C63.844 24.4194 63.7099 24.4476 63.5759 24.4379C63.4419 24.4282 63.3133 24.381 63.2048 24.3016C63.0963 24.223 63.012 24.1156 62.9614 23.9916C62.9108 23.8676 62.8959 23.7318 62.9184 23.5998L63.1935 21.9928L62.0271 20.856C61.9309 20.7623 61.8629 20.6436 61.8307 20.5133C61.7984 20.383 61.8033 20.2463 61.8448 20.1186C61.8863 19.991 61.9627 19.8774 62.0653 19.791C62.168 19.7045 62.2928 19.6484 62.4257 19.6292L64.0369 19.3962L64.7584 17.9351C64.9999 17.4467 65.8054 17.4467 66.0469 17.9351L66.7682 19.3962L68.3796 19.6292C68.4672 19.5441 68.575 19.4827 68.6929 19.4508C68.8108 19.4189 68.9349 19.4175 69.0534 19.4469C69.172 19.4763 69.2811 19.5353 69.3704 19.6186C69.4598 19.7018 69.5265 19.8064 69.5643 19.9226C69.602 20.0387 69.6095 20.1626 69.586 20.2825C69.5626 20.4023 69.509 20.5142 69.4303 20.6076C69.3517 20.701 69.2505 20.7729 69.1363 20.8163C69.0222 20.8598 68.8989 20.8734 68.778 20.856L67.6118 21.9928L67.8867 23.5998C67.9092 23.7318 67.8943 23.8675 67.8437 23.9915C67.7931 24.1156 67.7089 24.223 67.6005 24.3016C67.4779 24.3911 67.33 24.4392 67.1782 24.4391ZM65.4029 22.0672C65.5181 22.0672 65.6331 22.0953 65.7384 22.1501L66.2253 22.407L66.1314 21.8624C66.112 21.7475 66.1208 21.6296 66.157 21.5189C66.1932 21.4081 66.2556 21.3078 66.3391 21.2265L66.7323 20.8434L66.1891 20.7649C66.0737 20.7481 65.9641 20.7036 65.8697 20.6351C65.7753 20.5666 65.699 20.4762 65.6473 20.3717L65.4031 19.8763L65.1589 20.3717C65.0538 20.5837 64.8516 20.7311 64.6171 20.7649L64.0741 20.8434L64.4671 21.2265C64.5506 21.3078 64.6131 21.4081 64.6493 21.5188C64.6855 21.6296 64.6942 21.7475 64.6748 21.8624L64.5809 22.407L65.068 22.1501C65.1713 22.0958 65.2862 22.0674 65.4029 22.0672ZM75.8016 24.4391C75.6847 24.4396 75.5695 24.4112 75.4661 24.3565L74.0261 23.5985L72.5861 24.3565C72.4674 24.4194 72.3333 24.4476 72.1993 24.4379C72.0652 24.4282 71.9366 24.381 71.8282 24.3016C71.7197 24.223 71.6354 24.1156 71.5848 23.9916C71.5342 23.8676 71.5193 23.7318 71.5418 23.5998L71.8169 21.9928L70.6505 20.856C70.5543 20.7623 70.4863 20.6436 70.454 20.5133C70.4218 20.383 70.4267 20.2463 70.4682 20.1186C70.5097 19.991 70.5861 19.8774 70.6887 19.791C70.7914 19.7045 70.9162 19.6484 71.0491 19.6292L72.6603 19.3962L73.3818 17.9351C73.6231 17.4467 74.4288 17.4467 74.6701 17.9351L75.3916 19.3962L77.0028 19.6292C77.0904 19.5441 77.1982 19.4827 77.3161 19.4508C77.434 19.4189 77.558 19.4175 77.6766 19.4469C77.7951 19.4762 77.9042 19.5353 77.9936 19.6185C78.083 19.7017 78.1497 19.8063 78.1874 19.9225C78.2252 20.0386 78.2327 20.1625 78.2093 20.2823C78.1859 20.4022 78.1323 20.5141 78.0536 20.6075C77.975 20.7009 77.8738 20.7728 77.7597 20.8162C77.6456 20.8597 77.5223 20.8734 77.4014 20.856L76.2352 21.9928L76.5101 23.5998C76.5326 23.7318 76.5177 23.8675 76.4671 23.9915C76.4165 24.1156 76.3323 24.223 76.2239 24.3016C76.1012 24.391 75.9534 24.4392 75.8016 24.4391ZM74.0261 22.0672C74.1413 22.0672 74.2563 22.0953 74.3616 22.1501L74.8486 22.407L74.7546 21.8624C74.7352 21.7475 74.7439 21.6296 74.7801 21.5189C74.8163 21.4081 74.8788 21.3078 74.9623 21.2265L75.3553 20.8434L74.8123 20.7649C74.6969 20.7481 74.5873 20.7036 74.4929 20.6351C74.3985 20.5666 74.3222 20.4762 74.2705 20.3717L74.0263 19.8763L73.7821 20.3717C73.6768 20.5837 73.4748 20.7311 73.2403 20.7649L72.6973 20.8434L73.0903 21.2265C73.1738 21.3078 73.2363 21.4081 73.2725 21.5188C73.3087 21.6296 73.3174 21.7475 73.298 21.8624L73.2041 22.407L73.691 22.1501C73.7944 22.0958 73.9094 22.0674 74.0261 22.0672ZM84.4248 24.4391C84.3079 24.4396 84.1927 24.4112 84.0893 24.3565L82.6493 23.5985L81.2093 24.3565C81.0905 24.4194 80.9565 24.4476 80.8224 24.4379C80.6883 24.4282 80.5597 24.381 80.4512 24.3016C80.3428 24.223 80.2586 24.1156 80.208 23.9915C80.1574 23.8675 80.1425 23.7318 80.165 23.5998L80.4399 21.9928L79.2737 20.856C79.1775 20.7623 79.1095 20.6437 79.0772 20.5134C79.045 20.3831 79.0499 20.2464 79.0913 20.1187C79.1328 19.991 79.2092 19.8775 79.3118 19.791C79.4144 19.7045 79.5392 19.6485 79.6721 19.6292L81.2835 19.3962L82.0048 17.9351C82.2463 17.4467 83.052 17.4467 83.2933 17.9351L84.0148 19.3962L85.626 19.6292C85.7136 19.5441 85.8214 19.4827 85.9393 19.4508C86.0572 19.4189 86.1812 19.4175 86.2998 19.4469C86.4183 19.4762 86.5274 19.5353 86.6168 19.6185C86.7062 19.7017 86.7729 19.8063 86.8107 19.9225C86.8484 20.0386 86.8559 20.1625 86.8325 20.2823C86.8091 20.4022 86.7555 20.5141 86.6769 20.6075C86.5982 20.7009 86.497 20.7728 86.3829 20.8162C86.2688 20.8597 86.1455 20.8734 86.0246 20.856L84.8582 21.9928L85.1333 23.5998C85.1558 23.7318 85.1409 23.8676 85.0903 23.9916C85.0397 24.1156 84.9554 24.223 84.8469 24.3016C84.7243 24.3911 84.5765 24.4392 84.4248 24.4391ZM82.6493 22.0672C82.7645 22.0672 82.8795 22.0953 82.9848 22.1501L83.4718 22.407L83.3778 21.8624C83.3584 21.7475 83.3671 21.6296 83.4033 21.5189C83.4395 21.4081 83.502 21.3078 83.5855 21.2265L83.9785 20.8434L83.4355 20.7649C83.3201 20.7481 83.2105 20.7036 83.1161 20.6351C83.0217 20.5666 82.9454 20.4762 82.8937 20.3717L82.6495 19.8763L82.4053 20.3717C82.3536 20.4762 82.2773 20.5666 82.1829 20.6351C82.0885 20.7036 81.9789 20.7481 81.8635 20.7649L81.3205 20.8434L81.7135 21.2265C81.797 21.3078 81.8595 21.4081 81.8957 21.5188C81.9319 21.6296 81.9407 21.7475 81.9212 21.8624L81.8273 22.407L82.3142 22.1501C82.4176 22.0958 82.5326 22.0674 82.6493 22.0672ZM51.0308 41.6884C50.9364 41.6884 50.843 41.6699 50.7558 41.6338C50.6686 41.5977 50.5893 41.5448 50.5226 41.478C50.4558 41.4113 50.4029 41.3321 50.3668 41.2449C50.3307 41.1577 50.3122 41.0642 50.3122 40.9698C50.3122 30.2709 41.6083 21.5675 30.9099 21.5675C20.2115 21.5675 11.5076 30.2707 11.5076 40.9698C11.5077 41.0642 11.4891 41.1577 11.453 41.2449C11.4169 41.3321 11.364 41.4113 11.2973 41.478C11.2305 41.5448 11.1513 41.5977 11.0641 41.6338C10.9769 41.6699 10.8834 41.6884 10.7891 41.6884C10.3918 41.6884 10.0703 41.3669 10.0703 40.9698C10.0703 29.4792 19.4191 20.1304 30.9099 20.1304C42.4004 20.1304 51.7494 29.4792 51.7494 40.9698C51.7494 41.0642 51.7309 41.1577 51.6948 41.2449C51.6587 41.3321 51.6057 41.4113 51.539 41.478C51.4723 41.5448 51.393 41.5977 51.3058 41.6338C51.2186 41.6699 51.1252 41.6884 51.0308 41.6884Z" fill="#0739A6"/>
<path d="M10.7891 67.558C10.3918 67.558 10.0703 67.2367 10.0703 66.8394V40.9698C10.0703 40.8754 10.0888 40.7819 10.1249 40.6947C10.161 40.6075 10.214 40.5283 10.2807 40.4615C10.3475 40.3948 10.4267 40.3419 10.514 40.3058C10.6012 40.2697 10.6947 40.2512 10.7891 40.2512C10.8834 40.2512 10.9769 40.2697 11.0641 40.3058C11.1513 40.3419 11.2305 40.3948 11.2973 40.4616C11.364 40.5283 11.4169 40.6075 11.453 40.6948C11.4891 40.782 11.5077 40.8754 11.5076 40.9698V66.8394C11.5077 66.9338 11.4891 67.0272 11.453 67.1144C11.4169 67.2016 11.364 67.2809 11.2973 67.3476C11.2305 67.4143 11.1513 67.4673 11.0641 67.5034C10.9769 67.5395 10.8834 67.558 10.7891 67.558ZM51.0306 67.558C50.9362 67.558 50.8428 67.5395 50.7556 67.5034C50.6684 67.4673 50.5891 67.4143 50.5224 67.3476C50.4557 67.2809 50.4027 67.2016 50.3666 67.1144C50.3306 67.0272 50.312 66.9338 50.312 66.8394V40.9698C50.312 40.8754 50.3306 40.782 50.3666 40.6948C50.4027 40.6075 50.4557 40.5283 50.5224 40.4616C50.5891 40.3948 50.6684 40.3419 50.7556 40.3058C50.8428 40.2697 50.9362 40.2512 51.0306 40.2512C51.125 40.2512 51.2185 40.2697 51.3057 40.3058C51.3929 40.3419 51.4721 40.3948 51.5389 40.4615C51.6056 40.5283 51.6586 40.6075 51.6946 40.6947C51.7307 40.7819 51.7493 40.8754 51.7492 40.9698V66.8394C51.7493 66.9338 51.7307 67.0273 51.6946 67.1145C51.6586 67.2017 51.6056 67.2809 51.5389 67.3477C51.4721 67.4144 51.3929 67.4673 51.3057 67.5034C51.2185 67.5395 51.125 67.558 51.0306 67.558Z" fill="#0739A6"/>
<path d="M10.7889 44.5627C10.6351 44.5626 10.4854 44.5131 10.3618 44.4217C10.2381 44.3302 10.147 44.2016 10.1018 44.0546C10.046 43.8722 10.0649 43.6752 10.1542 43.5068C10.2436 43.3384 10.3961 43.2123 10.5783 43.1563C35.7518 35.4384 43.1848 25.2474 43.257 25.145C43.367 24.9895 43.5341 24.8841 43.7217 24.8518C43.9093 24.8194 44.1021 24.8628 44.2577 24.9725C44.4134 25.0817 44.5194 25.2484 44.5523 25.4357C44.5852 25.6231 44.5424 25.8159 44.4333 25.9717C44.13 26.404 36.7195 36.6455 10.9994 44.532C10.9311 44.5524 10.8602 44.5628 10.7889 44.5627Z" fill="#0739A6"/>
<path d="M51.0295 44.5627C50.9407 44.563 50.8526 44.5463 50.7701 44.5136C39.605 40.1753 34.8338 33.635 34.6357 33.3584C34.5249 33.2035 34.4802 33.0109 34.5114 32.8229C34.5426 32.635 34.6472 32.4672 34.8021 32.3563C34.8787 32.3011 34.9654 32.2616 35.0573 32.24C35.1493 32.2184 35.2445 32.2153 35.3377 32.2307C35.4308 32.2461 35.52 32.2797 35.6001 32.3297C35.6801 32.3797 35.7495 32.4451 35.8042 32.522C35.8506 32.5853 40.553 39.0006 51.2894 43.1746C51.3774 43.2085 51.4578 43.2595 51.5261 43.3247C51.5944 43.3898 51.6491 43.4678 51.6872 43.5541C51.7253 43.6404 51.7459 43.7334 51.7479 43.8277C51.75 43.9221 51.7334 44.0159 51.699 44.1038C51.6468 44.2389 51.5548 44.355 51.4354 44.4369C51.3159 44.5188 51.1744 44.5627 51.0295 44.5627ZM30.9088 73.3069C20.5249 73.3069 17.4393 67.4134 17.313 67.1623C17.2705 67.0781 17.2452 66.9863 17.2383 66.8922C17.2313 66.7981 17.2431 66.7036 17.2727 66.614C17.3024 66.5245 17.3494 66.4417 17.4111 66.3703C17.4728 66.2989 17.5479 66.2404 17.6323 66.1981C17.8019 66.1125 17.9987 66.0976 18.1793 66.1568C18.3599 66.2161 18.5096 66.3445 18.5956 66.514C18.7108 66.7386 21.4679 71.8698 30.9087 71.8698C40.353 71.8698 43.0904 66.7345 43.202 66.5155C43.2889 66.3465 43.439 66.2185 43.6196 66.1594C43.8002 66.1003 43.9969 66.1147 44.1669 66.1996C44.3365 66.285 44.4654 66.4341 44.5253 66.6143C44.5851 66.7946 44.5711 66.9912 44.4862 67.1611C44.3608 67.4119 41.2941 73.3069 30.9088 73.3069Z" fill="#0739A6"/>
</svg>
