<svg width="58" height="84" viewBox="0 0 58 84" fill="none" xmlns="http://www.w3.org/2000/svg">
<path d="M40 18.3787C39.9285 20.7202 39.4488 23.0285 38.5842 25.1907C38.086 26.5358 37.466 27.8283 36.7327 29.0509C34.7287 32.4569 31.9624 35 28.9238 35C25.8851 35 23.2713 32.525 21.3 29.2552C20.5116 27.9501 19.8512 26.5656 19.3287 25.1226C18.5144 22.9719 18.0648 20.69 18 18.3787C18.0033 17.9186 18.0397 17.4594 18.1089 17.005L19.5574 12.8497C20.5812 11.9414 23.4891 11.0218 25.798 10.4087C27.8564 9.86376 30.0129 9.86376 32.0713 10.4087C34.4455 11.0218 37.5168 11.9414 38.4861 12.861L39.8911 16.619C39.9024 16.7588 39.9024 16.8993 39.8911 17.0391C39.9609 17.482 39.9973 17.9299 40 18.3787Z" stroke="#0739A6" stroke-width="1.3" stroke-linecap="round" stroke-linejoin="round"/>
<path d="M18 25.6005C17.7022 25.8536 17.3423 25.9934 16.9712 26C15.2943 26 13.0001 22.9217 13.0001 21.0065C12.9947 20.3015 13.1399 19.6055 13.4231 18.979C13.7064 18.3525 14.1191 17.8144 14.6256 17.4112C14.9949 17.1437 15.4229 17.0012 15.8601 17C16.1788 17.0071 16.4946 17.0705 16.7963 17.188C16.7379 17.6589 16.7104 18.1341 16.714 18.6097C16.7839 21.0076 17.2191 23.3732 18 25.6005Z" stroke="#0739A6" stroke-width="1.3" stroke-linecap="round" stroke-linejoin="round"/>
<path d="M44.9987 21.017C44.9987 22.9372 42.2329 26 40.2292 26C39.7859 25.9926 39.3562 25.8525 39 25.5995C39.9237 23.3646 40.4353 20.993 40.512 18.5903C40.5549 18.1161 40.5549 17.6392 40.512 17.1649H40.5734C40.9155 17.0609 41.2717 17.0054 41.6306 17C42.0219 17.0023 42.4079 17.0868 42.7615 17.2474C43.4565 17.6217 44.032 18.1704 44.4262 18.8345C44.8204 19.4987 45.0183 20.2532 44.9987 21.017Z" stroke="#0739A6" stroke-width="1.3" stroke-linecap="round" stroke-linejoin="round"/>
<path d="M41.1855 49.1724L43.9684 53.9655L29 75L33.4408 58.5172L38.7105 39L47 45.6897L41.1855 49.1724Z" stroke="#0739A6" stroke-width="1.3" stroke-linecap="round" stroke-linejoin="round"/>
<path d="M39 39L29 42" stroke="#0739A6" stroke-width="1.3" stroke-linecap="round" stroke-linejoin="round"/>
<path d="M42.9992 17L42.6066 16.9073C42.2745 16.7494 41.9119 16.6663 41.5444 16.664C41.2073 16.6693 40.8728 16.7239 40.5514 16.8262C40.5634 16.6836 40.5634 16.5402 40.5514 16.3975L39.062 12.551C37.9766 11.6126 34.7784 10.6741 32.2614 10.0485C30.0791 9.4924 27.793 9.4924 25.6108 10.0485C23.1631 10.6741 20.0803 11.6126 18.9949 12.5395L17.4362 16.7799C17.0976 16.664 16.7432 16.6015 16.3855 16.5945C15.8948 16.5956 15.4144 16.7362 15 17C15 17 15 10.2686 16.7204 7.41854C18.4407 4.56843 20.9924 1.18537 26.8809 1H28.3241H28.3934H29.0862H29.8598H31.1529C37.0414 1.18537 39.5354 4.47574 41.3135 7.41854C43.0916 10.3613 42.9992 17 42.9992 17Z" stroke="#0739A6" stroke-width="1.3" stroke-linecap="round" stroke-linejoin="round"/>
<path d="M41 17H40.991H40.973L40.1712 16.7051L40.1622 16.677V16.6629L39 12" stroke="#0739A6" stroke-width="1.3" stroke-linecap="round" stroke-linejoin="round"/>
<path d="M18 12V17" stroke="#0739A6" stroke-width="1.3" stroke-linecap="round" stroke-linejoin="round"/>
<path d="M14.0276 53.9655L16.8187 49.1724L11 45.6897L19.2904 39L24.5887 58.6322L29 75L14.0276 53.9655Z" stroke="#0739A6" stroke-width="1.3" stroke-linecap="round" stroke-linejoin="round"/>
<path d="M33 58.5115L28.9893 75L25 58.6265L29.0963 42L33 58.5115Z" stroke="#0739A6" stroke-width="1.3" stroke-linecap="round" stroke-linejoin="round"/>
<path d="M29 42L19 39" stroke="#0739A6" stroke-width="1.3" stroke-linecap="round" stroke-linejoin="round"/>
<path d="M28.9077 83H1V62.4851C1.00041 59.9304 1.56484 57.4073 2.65314 55.0951C3.74144 52.783 5.32684 50.7387 7.29654 49.1078L19.5321 39L29.1269 42.0047L38.3526 39H38.4794L50.715 49.1423C52.6781 50.7706 54.2586 52.8098 55.3447 55.1156C56.4308 57.4213 56.9959 59.9372 57 62.4851V83H29.0923" stroke="#0739A6" stroke-width="1.3" stroke-linecap="round" stroke-linejoin="round"/>
<path d="M15.3262 77H18V69.43C18 67.7247 17.3152 66.0892 16.0962 64.8833C14.8772 63.6775 13.2239 63 11.5 63C9.77609 63 8.12279 63.6775 6.90381 64.8833C5.68482 66.0892 5 67.7247 5 69.43V77H7.75215" stroke="#0739A6" stroke-width="1.3" stroke-linecap="round" stroke-linejoin="round"/>
<path d="M47 67V45" stroke="#0739A6" stroke-width="1.3" stroke-linecap="round" stroke-linejoin="round"/>
<path d="M12 63V44" stroke="#0739A6" stroke-width="1.3" stroke-linecap="round" stroke-linejoin="round"/>
<path d="M46.5 74C48.433 74 50 72.433 50 70.5C50 68.567 48.433 67 46.5 67C44.567 67 43 68.567 43 70.5C43 72.433 44.567 74 46.5 74Z" stroke="#0739A6" stroke-width="1.3" stroke-linecap="round" stroke-linejoin="round"/>
</svg>
