<svg width="717" height="754" viewBox="0 0 717 754" fill="none" xmlns="http://www.w3.org/2000/svg">
<g clip-path="url(#clip0_179_590)">
<mask id="mask0_179_590" style="mask-type:luminance" maskUnits="userSpaceOnUse" x="0" y="0" width="1440" height="754">
<path d="M1440 0H0V754H1440V0Z" fill="white"/>
</mask>
<g mask="url(#mask0_179_590)">
<g opacity="0.8">
<mask id="mask1_179_590" style="mask-type:luminance" maskUnits="userSpaceOnUse" x="-77" y="-20" width="1594" height="774">
<g opacity="0.8">
<path d="M1476.7 -19.4119H-37C-59.0915 -19.4119 -77 -1.50325 -77 20.5881V714C-77 736.092 -59.0912 754 -37 754H1476.7C1498.79 754 1516.7 736.092 1516.7 714V20.5881C1516.7 -1.50324 1498.79 -19.4119 1476.7 -19.4119Z" fill="white"/>
</g>
</mask>
<g mask="url(#mask1_179_590)">
<g opacity="0.4">
<path d="M-86.708 409.057C-57.6265 401.912 -27.5043 392.367 3.31895 388.95C43.8715 384.385 84.7212 386.845 125.486 387.232C173.112 387.697 216.214 397.905 262.608 406.227L271.51 407.775C386.05 428.58 498.553 453.39 615.96 459.655C684.978 463.32 754.463 464.295 823.523 459.81C893.455 455.277 961.155 442.64 1027.97 425.577C1044.96 421.277 1061.72 416.667 1078.54 411.842C1188.82 380.147 1295.22 339.372 1409.08 316.882C1441.86 310.432 1491.25 305.42 1524.71 307.167C1526.83 307.277 1521.35 307.355 1524.71 307.54" stroke="url(#paint0_radial_179_590)" stroke-width="0.75" stroke-miterlimit="10"/>
<path d="M-86.708 422.315C-75.1093 419.22 -63.1285 416.128 -51.1263 413.158C-31.2598 408.223 -10.671 404.995 10.2229 403.535C52.326 400.705 96.1925 403.893 141.015 404.108C190.786 404.433 237.542 411.625 287.42 415.138L296.768 415.818C306.92 416.575 317.033 417.365 327.185 417.905C386.665 421 445.635 428.733 501.993 443.213C553.89 456.56 593.933 472.71 645.913 478.123C711.405 484.93 779.338 485.223 847.103 480.228C914.868 475.23 980.89 462.253 1045.26 445.16C1061.67 440.798 1077.96 436.2 1094.12 431.363C1155.21 413.095 1213.24 392.49 1266.61 375.508C1314.59 360.225 1362.45 344.988 1412.25 334.193C1417.03 333.155 1422.13 332.15 1427.46 331.205C1457.88 325.763 1496.07 321.925 1524.24 323.115C1526.19 323.115 1521.63 323.27 1524.62 323.425" stroke="url(#paint1_radial_179_590)" stroke-width="0.75" stroke-miterlimit="10"/>
<path d="M-86.708 435.54C-74.4295 432.09 -61.5353 428.75 -48.7258 425.825C-27.3393 421.145 -5.19636 418.542 17.1268 418.09C60.7807 416.87 107.685 420.907 156.564 420.985C208.482 421.155 258.785 425.47 312.275 424.077C315.525 423.985 318.795 423.937 322.068 423.83C332.688 423.597 343.31 423.35 353.76 422.64C417.745 418.37 480.708 423.382 538.19 443.475C592.488 462.455 622.63 488.332 675.865 496.577C737.81 506.197 804.235 506.152 870.705 500.615C936.068 495.247 1000.39 481.757 1062.55 464.742C1078.48 460.35 1094.26 455.74 1109.88 450.915C1172.08 431.532 1229.09 410.265 1276.17 394.595C1322.35 379.22 1367.81 362.807 1415.67 351.455C1420.3 350.34 1425.21 349.272 1430.3 348.267C1459.75 342.405 1496.16 338.245 1524.03 338.987C1525.79 338.987 1522.12 339.095 1524.77 339.202" stroke="url(#paint2_radial_179_590)" stroke-width="0.75" stroke-miterlimit="10"/>
<path d="M-86.708 448.765C-73.7498 444.93 -59.942 441.432 -46.3465 438.495C-25.6138 434.04 -1.99168 433.095 23.9882 432.725C69.1292 432.09 119.135 437.985 172.05 437.922C226.134 437.922 279.963 439.467 337.043 432.957C340.463 432.57 343.883 432.215 347.303 431.797C358.265 430.56 369.31 429.227 380.293 427.325C448.823 415.43 515.673 418.045 574.325 443.66C630.958 468.41 651.265 503.615 705.755 514.952C764.15 527.112 829.09 527.02 894.24 520.955C957.353 515.217 1020 501.372 1079.82 484.25C1095.26 479.81 1110.54 475.2 1125.51 470.327C1188.52 449.94 1244.64 427.96 1285.51 413.682C1329.87 398.215 1372.97 380.705 1418.85 368.717C1423.34 367.542 1428.05 366.397 1432.94 365.345C1461.38 359.065 1495.99 354.517 1523.56 354.965C1525.15 354.965 1522.39 355.042 1524.69 355.12" stroke="url(#paint3_radial_179_590)" stroke-width="0.75" stroke-miterlimit="10"/>
<path d="M-86.708 462.005C-72.7783 457.722 -58.48 454.105 -43.9038 451.177C-22.491 446.832 2.68172 446.305 30.9135 447.327C77.6475 449.012 130.627 455.06 187.6 454.827C243.83 454.69 301.208 453.545 361.898 441.865C365.445 441.185 369.013 440.52 372.518 439.792C383.905 437.55 395.398 435.152 406.783 432.06C479.795 412.382 550.555 412.895 610.415 443.922C669.365 474.472 679.923 518.775 735.643 533.407C790.555 547.84 853.9 547.932 917.758 541.357C978.595 535.17 1039.56 520.97 1097.05 503.832C1111.92 499.362 1126.79 494.737 1141.1 489.91C1205.07 468.41 1260.19 445.67 1294.88 432.862C1337.37 417.18 1378.13 398.617 1422.04 386.057C1426.29 384.82 1430.92 383.627 1435.57 382.5C1463.04 375.8 1495.86 370.372 1523.13 370.99C1524.54 370.99 1522.69 370.99 1524.62 371.067" stroke="url(#paint4_radial_179_590)" stroke-width="0.75" stroke-miterlimit="10"/>
<path d="M-86.708 475.232C-72.0775 470.57 -56.9618 466.762 -41.5033 463.847C-19.3895 459.592 7.35514 459.98 37.796 461.912C85.9747 465.007 142.098 472.075 203.128 471.72C261.525 471.442 322.513 467.682 386.708 450.775C390.425 449.802 394.143 448.827 397.86 447.775C409.673 444.542 421.61 440.97 433.443 436.747C510.81 409.15 585.52 407.697 646.678 444.11C707.835 480.522 708.878 533.655 765.638 551.8C817.215 568.302 878.84 568.815 941.4 561.682C1000.01 555.125 1059.28 540.537 1114.42 523.337C1128.89 518.82 1143.1 514.165 1156.91 509.415C1221.78 486.77 1275.87 463.227 1304.44 451.982C1345.04 436.005 1383.44 416.405 1425.52 403.335C1429.77 402.025 1434.1 400.772 1438.5 399.575C1464.97 392.46 1495.99 387.31 1522.96 386.922C1524.2 386.922 1523.26 386.922 1524.83 386.922" stroke="url(#paint5_radial_179_590)" stroke-width="0.75" stroke-miterlimit="10"/>
<path d="M-86.708 488.457C-71.3698 483.437 -55.4355 479.445 -39.1028 476.53C-16.2881 472.37 11.9861 473.637 44.7 476.53C94.408 480.892 153.59 489.137 218.657 488.642C279.198 488.21 343.863 481.882 411.54 459.702C415.385 458.432 419.273 457.15 423.14 455.787C435.375 451.55 447.698 446.832 459.995 441.465C541.568 405.887 620.338 402.577 682.855 444.357C746.158 486.662 737.98 548.335 795.59 570.237C844.003 588.645 903.738 589.712 965 582.07C1021.32 575.11 1078.88 560.09 1131.72 542.905C1145.69 538.342 1159.33 533.625 1172.5 528.89C1238.35 505.055 1291.25 480.66 1313.79 471.07C1352.34 454.657 1388.58 434.21 1428.65 420.597C1432.68 419.205 1436.82 417.89 1441.05 416.652C1466.54 409.12 1495.75 403.737 1522.43 402.855C1523.5 402.855 1523.45 402.855 1524.69 402.855" stroke="url(#paint6_radial_179_590)" stroke-width="0.75" stroke-miterlimit="10"/>
<path d="M-86.708 501.682C-70.6463 496.29 -53.8693 492.105 -36.6388 489.2C59.9735 472.617 263.713 559.595 486.57 446.182C572.243 402.577 655.09 397.457 719.03 444.635C784.438 492.85 767.338 562.842 825.543 588.722C980.89 657.68 1278.82 511.147 1323.3 490.127C1363.26 471.24 1400.9 447.73 1443.84 433.682C1469.41 425.28 1496.8 420.177 1524.77 418.602" stroke="url(#paint7_radial_179_590)" stroke-width="0.75" stroke-miterlimit="10"/>
<path d="M1524.71 404.295C1504.11 405.63 1483.8 408.747 1464.21 413.575C1455.92 415.585 1447.81 417.845 1439.93 420.32C1394.57 434.58 1354.28 457.83 1312.07 477.552L1304.29 481.202C1233.4 514.427 1072.24 594.322 938.405 607.887C887.423 613.92 838.265 612.527 796.715 597.445C737.83 575.992 743.928 514.537 679.733 470.607C665.795 461 649.875 453.045 632.55 447.032C579.445 428.887 519.965 433.53 459.485 457.49C444.723 463.1 429.498 468.045 413.9 472.292C411.775 472.865 409.8 473.407 407.74 473.947C306.58 501.945 210.033 492.602 126.124 482.517C61.673 474.782 6.35677 466.06 -34.047 472.045C-35.4632 472.262 -36.8795 472.492 -38.2955 472.74C-54.9885 475.7 -71.2292 479.877 -86.7715 485.207" stroke="url(#paint8_radial_179_590)" stroke-width="0.75" stroke-miterlimit="10"/>
<path d="M1524.7 389.985C1503.19 391.647 1482 395.055 1461.53 400.147C1452.86 402.22 1444.36 404.542 1436.04 407.062C1388.28 421.635 1345.29 444.542 1300.85 465.037L1292.67 468.842C1197.63 512.82 1041.03 594.91 916.27 610.27C864.31 618.235 812.965 619.347 767.975 606.232C708.75 588.97 703.673 536.145 640.518 496.7C626.438 487.87 610.903 480.352 594.273 474.317C542.97 455.85 488.057 454.302 432.55 468.875C418.672 472.072 404.542 474.655 390.235 476.607L384.5 477.382C292.007 492.247 202.109 476.485 119.687 464.775C58.9748 456.16 5.18808 449.06 -35.6617 455.665C-37.0637 455.88 -38.4445 456.112 -39.8042 456.375C-55.9652 459.37 -71.6827 463.515 -86.7295 468.75" stroke="url(#paint9_radial_179_590)" stroke-width="0.75" stroke-miterlimit="10"/>
<path d="M1524.71 375.692C1502.29 377.655 1480.22 381.325 1458.85 386.645C1449.8 388.795 1440.9 391.177 1432.22 393.76C1382.06 408.625 1336.39 431.192 1289.72 452.54C1287.13 453.715 1284.28 455.045 1281.22 456.482C1162.03 511.195 1009.97 595.542 894.283 612.712C841.178 622.612 788.07 626.015 739.38 615.08C680.05 601.73 663.395 557.925 601.303 522.827C587.115 514.772 571.965 507.657 556.035 501.572C506.603 482.795 456.193 475.06 405.678 480.227C392.673 480.942 379.625 481.147 366.593 480.845L361.303 480.752C277.478 482.485 194.206 460.365 113.314 446.985C56.2982 437.55 4.06233 431.982 -37.2335 439.252C-38.593 439.485 -39.9315 439.715 -41.2485 439.98C-56.8888 443.022 -72.0853 447.167 -86.623 452.352" stroke="url(#paint10_radial_179_590)" stroke-width="0.75" stroke-miterlimit="10"/>
<path d="M1524.7 361.385C1501.68 363.288 1477.63 368.038 1456.16 373.14C1446.75 375.368 1437.46 377.783 1428.37 380.443C1375.79 395.615 1327.47 417.845 1278.55 439.962L1269.56 444.047C1126.17 509.415 978.68 596.1 872.085 615.032C817.873 626.882 762.875 632.357 710.64 623.802C651.33 614.105 622.95 579.61 562.195 548.845C547.808 541.62 532.918 534.938 517.585 528.828C470.023 509.74 424.118 495.805 378.573 491.565C366.528 489.803 354.61 487.575 342.735 485.115L337.915 484.14C262.735 472.74 186.07 444.34 106.707 429.198C53.388 419.02 2.61771 414.89 -39.0395 422.763L-42.8842 423.52C-58.0072 426.62 -72.6892 430.762 -86.7295 435.895" stroke="url(#paint11_radial_179_590)" stroke-width="0.75" stroke-miterlimit="10"/>
<path d="M1524.71 347.077C1500.7 349.227 1475.59 354.425 1453.48 359.637C1443.69 361.937 1434.04 364.432 1424.5 367.125C1369.53 382.592 1318.52 404.495 1267.31 427.45C1264.31 428.78 1261.19 430.202 1257.94 431.672C1090.42 507.637 947.56 596.687 850.035 617.415C794.803 631.197 737.938 638.545 681.898 632.605C622.631 626.31 582.461 601.39 522.961 574.91C508.366 568.412 493.688 562.225 479.285 556.085C433.57 536.672 392.19 516.547 351.615 502.92C340.655 498.62 329.82 494.025 319.03 489.37L314.653 487.53C248.142 462.997 178.062 428.425 100.271 411.41C50.6055 400.582 1.49223 397.782 -40.6748 406.32L-44.3923 407.095C-58.9873 410.255 -73.1465 414.397 -86.6865 419.467" stroke="url(#paint12_radial_179_590)" stroke-width="0.75" stroke-miterlimit="10"/>
<path d="M1524.71 332.77C1499.73 335.183 1473.55 340.798 1450.8 346.133C1440.63 348.535 1430.59 351.115 1420.66 353.868C1363.3 369.645 1309.58 391.193 1256.2 414.92C1253.01 416.328 1249.83 417.798 1246.43 419.298C1054.35 505.673 916.313 597.323 827.943 619.845C771.501 635.56 712.956 644.593 653.178 641.5C593.933 638.405 541.973 623.325 483.768 601.08C469.216 595.528 454.878 589.728 440.943 583.448C397.118 563.725 360.218 537.413 324.638 514.383C314.761 507.545 305.031 500.583 295.301 493.748L291.371 491.025C233.527 453.375 169.969 412.74 93.8137 393.73C47.8019 382.253 0.345524 380.735 -42.3101 389.985L-45.9001 390.79C-59.9701 394.003 -73.6078 398.145 -86.6436 403.165" stroke="url(#paint13_radial_179_590)" stroke-width="0.75" stroke-miterlimit="10"/>
<path d="M1524.71 318.46C1498.75 321.12 1471.6 327.17 1448.1 332.645C1372.78 350.232 1303.38 376.095 1234.85 406.892C1018.64 503.91 885.298 597.862 805.808 622.18C748.24 639.845 687.845 650.192 624.415 650.177C550.065 650.177 468.77 642.21 402.578 610.592C360.623 590.485 328.228 558.002 297.615 525.627C288.843 516.267 280.198 506.925 271.53 497.907L268.068 494.302C218.891 443.52 161.747 396.962 87.2917 375.847C45.187 364.082 -1.20012 363.247 -44.0525 373.48C-58.8088 376.855 -73.0915 381.242 -86.708 386.582" stroke="url(#paint14_radial_179_590)" stroke-width="0.75" stroke-miterlimit="10"/>
</g>
<path d="M-101.833 382.22C-75.683 419.345 -19.3685 417.675 18.21 411.008C71.1895 401.633 122.895 375.028 160.664 334.27C248.461 239.65 334.43 138.457 460.188 138.906C526.507 139.153 604.277 188.868 660.167 224.646C714.887 259.683 745.605 312.538 836.865 357.55C889.547 383.535 924.745 279.883 978.617 256.805C1032.49 233.726 1108.2 275.088 1159.39 245.977C1218.32 212.566 1278.2 178.752 1344.5 167.8C1413.82 156.338 1481.82 173.74 1540.53 215.752" stroke="url(#paint15_radial_179_590)" stroke-width="0.75" stroke-miterlimit="10"/>
<path d="M-101.875 391.735C-74.4505 428.208 -18.4121 426.925 20.441 419.885C73.548 410.313 125.805 383.505 165.423 342.545C212.157 294.098 254.431 241.677 303.501 204.089C350.958 167.692 404.488 142.479 465.563 143.314C531.416 144.196 606.018 194.359 660.083 231.576C713.231 268.298 743.588 321.755 832.723 365.113C885.213 390.465 924.301 294.5 980.126 271.84C995.611 265.545 1012.59 263.92 1030.17 264.183C1074.78 264.925 1122.33 277.083 1158.35 255.398C1175.35 245.172 1192.34 234.979 1209.82 225.574C1252.12 202.851 1296.05 183.346 1343.21 175.349C1412.52 163.639 1480.99 180.469 1540.51 223.3" stroke="url(#paint16_radial_179_590)" stroke-width="0.75" stroke-miterlimit="10"/>
<path d="M-101.917 401.232C-73.1967 437.01 -17.5195 436.175 22.6719 428.717C75.7788 418.942 128.716 391.997 170.182 350.852C218.892 302.327 258.913 247.554 307.686 209.735C355.313 172.611 410.416 146.315 471.256 147.738C536.578 149.285 608.058 199.835 660.316 238.521C711.618 276.775 741.591 331.175 828.813 372.677C881.008 397.52 924.023 309.102 981.763 286.875C997.481 280.827 1014.52 278.97 1032.09 278.8C1076.59 278.46 1122.26 287.277 1157.42 264.88C1174.01 254.205 1190.77 243.641 1208.19 234.128C1250.38 211.049 1294.58 191.204 1342.02 182.974C1411.36 171.002 1480.29 187.259 1540.64 230.926" stroke="url(#paint17_radial_179_590)" stroke-width="0.75" stroke-miterlimit="10"/>
<path d="M-101.938 410.745C-71.9647 445.825 -16.5424 445.377 24.966 437.565C78.264 427.527 131.69 400.442 175.004 359.142C225.647 310.525 263.458 253.432 311.893 215.38C359.668 177.622 416.363 150.089 476.758 152.162C541.548 154.327 610.036 205.233 660.296 245.451C710.003 285.25 739.531 340.472 824.693 380.24C876.653 404.495 923.536 323.69 983.356 301.895C999.288 296.092 1016.39 294.02 1033.91 293.417C1078.25 291.995 1122.22 297.532 1156.53 274.205C1172.8 263.13 1189.22 252.165 1206.57 242.527C1248.66 219.093 1293.14 198.907 1340.83 190.445C1410.17 178.195 1479.57 193.895 1540.72 238.49" stroke="url(#paint18_radial_179_590)" stroke-width="0.75" stroke-miterlimit="10"/>
<path d="M-101.981 420.257C-70.6272 454.627 -15.5871 454.612 27.0896 446.415C80.5153 436.175 134.493 409.012 179.655 367.432C232.21 318.74 267.835 259.295 315.928 221.011C364.02 182.727 422.143 153.894 482.173 156.586C546.455 159.385 611.755 210.724 660.23 252.395C708.283 293.79 737.428 349.752 820.528 387.79C872.255 411.472 922.983 338.29 984.843 316.93C1000.99 311.36 1018.15 309.04 1035.66 308.02C1079.78 305.467 1122.01 307.742 1155.46 283.61C1171 272.032 1187.47 261.145 1204.79 251.005C1246.77 227.214 1291.52 206.687 1339.51 197.979C1408.85 185.48 1478.72 200.593 1540.68 246.085" stroke="url(#paint19_radial_179_590)" stroke-width="0.75" stroke-miterlimit="10"/>
<path d="M-102.023 429.77C-69.4794 463.43 -14.6519 463.8 29.3631 455.277C82.8951 444.822 137.446 417.52 184.436 375.71C238.902 326.952 272.466 265.235 320.071 226.642C368.271 187.6 428.026 157.7 487.718 160.995C551.448 164.444 613.773 216.17 660.296 259.325C706.816 302.482 735.453 359.035 816.493 395.355C868.006 418.432 922.558 352.815 986.436 331.935C1002.77 326.597 1020.02 324.06 1037.42 322.652C1081.35 319.017 1121.82 318.012 1154.42 293.032C1170.06 281.075 1185.86 269.38 1203.05 259.497C1244.92 235.35 1289.95 214.484 1338.22 205.543C1407.55 192.782 1477.87 207.322 1540.66 253.68" stroke="url(#paint20_radial_179_590)" stroke-width="0.75" stroke-miterlimit="10"/>
<path d="M-102.066 439.282C-68.2479 472.23 -13.6964 473.097 31.5718 464.125C85.2526 453.482 140.356 426.027 189.215 384C245.614 335.167 276.968 271.082 324.233 232.287C372.583 192.503 433.93 161.567 493.283 165.418C556.523 169.502 615.685 221.645 660.358 266.255C705.033 310.865 733.518 368.345 812.478 402.917C863.758 425.392 922.113 367.34 988.05 347C1004.52 342.17 1021.78 338.895 1039.39 337.255C1083.11 332.537 1121.82 328.145 1153.62 302.405C1168.91 290.03 1184.4 277.95 1201.5 267.957C1243.28 243.455 1288.59 222.248 1337.11 213.06C1406.47 200.052 1477.31 214.019 1540.87 261.26" stroke="url(#paint21_radial_179_590)" stroke-width="0.75" stroke-miterlimit="10"/>
<path d="M-102.109 448.797C-66.9949 481.047 -12.7409 482.348 33.8446 472.973C87.6526 462.145 143.309 434.535 194.015 392.29C252.328 343.365 281.493 276.99 328.418 237.918C376.915 197.515 439.838 165.217 498.85 169.858C561.6 174.575 617.638 227.09 660.465 273.217C703.29 319.342 731.605 377.565 808.463 410.497C859.445 432.37 921.688 381.897 989.685 362.05C1006.35 357.385 1023.63 353.96 1041.24 351.825C1084.77 346.025 1121.71 338.307 1152.66 311.762C1167.53 298.94 1182.83 286.502 1199.84 276.387C1241.52 251.53 1287.08 229.983 1335.79 220.563C1405.15 207.291 1476.4 220.686 1540.83 268.792" stroke="url(#paint22_radial_179_590)" stroke-width="0.75" stroke-miterlimit="10"/>
<path d="M-102.151 458.31C-65.7626 489.85 -11.8059 491.612 36.0329 481.76C89.9471 470.73 146.177 442.98 198.731 400.52C258.955 351.517 285.955 282.79 332.56 243.502C381.228 202.418 445.743 169.038 504.393 174.189C566.635 179.556 619.55 232.566 660.528 280.07C701.803 327.927 729.673 386.8 804.428 417.967C855.41 439.237 921.263 396.312 991.363 376.992C1008.26 372.545 1025.59 369.007 1043.2 366.412C1086.55 359.545 1121.79 348.485 1151.83 321.152C1166.47 307.895 1181.36 295.087 1198.31 284.847C1239.86 259.635 1285.73 237.748 1334.82 228.095C1404.18 214.545 1475.89 227.384 1541.13 276.372" stroke="url(#paint23_radial_179_590)" stroke-width="0.75" stroke-miterlimit="10"/>
<path d="M-102.193 467.837C-64.5086 498.665 -10.8494 500.877 38.2639 490.7C92.3056 479.485 149.087 451.565 203.49 408.872C265.646 359.807 290.438 288.747 336.641 249.209C385.498 207.445 451.543 172.92 509.876 178.69C571.586 184.691 621.358 238.134 660.508 287.075C700.083 336.575 727.678 396.017 800.306 425.61C850.991 446.26 920.668 410.882 992.828 392.105C1009.99 387.635 1027.52 384.37 1044.92 381.107C1088.06 373.172 1121.39 358.755 1150.77 330.635C1165.05 316.93 1179.64 303.765 1196.51 293.387C1237.93 267.817 1284.09 245.59 1333.52 235.69C1402.88 221.893 1475.06 234.143 1541.11 284.012" stroke="url(#paint24_radial_179_590)" stroke-width="0.75" stroke-miterlimit="10"/>
<path d="M-102.236 477.32C-63.2771 507.453 -9.89385 510.128 40.4939 499.533C94.6632 488.133 151.997 460.058 208.312 417.148C272.38 367.99 294.96 294.593 340.845 254.84C389.81 212.38 457.49 176.71 515.46 183.098C576.663 189.734 623.29 243.61 660.613 294.005C698.468 345.05 725.828 405.208 796.333 433.22C846.805 453.235 920.22 425.393 994.465 407.188C1011.84 402.933 1029.45 399.453 1046.83 395.77C1089.78 386.768 1121.39 368.98 1149.88 340.085C1163.81 325.933 1178.13 312.413 1194.91 301.91C1236.27 276 1282.67 253.433 1332.33 243.301C1401.69 229.24 1474.34 240.919 1541.19 291.67" stroke="url(#paint25_radial_179_590)" stroke-width="0.75" stroke-miterlimit="10"/>
<path d="M-102.279 486.832C-62.1305 516.27 -9.02362 519.392 42.7237 508.38C97.0202 496.81 154.907 468.565 213.006 425.44C279.007 376.205 299.272 300.395 344.902 260.47C393.91 217.268 463.31 180.5 520.92 187.507C581.61 194.792 625.01 249.101 660.59 300.935C696.705 353.667 723.852 414.395 792.297 440.722C842.6 460.087 919.753 439.777 996.078 422.16C1013.65 418.107 1031.34 414.425 1048.7 410.312C1091.46 400.257 1121.26 379.112 1148.94 349.412C1162.54 334.842 1176.56 320.935 1193.26 310.325C1234.53 284.027 1281.18 261.135 1331.12 250.772C1400.5 236.464 1473.62 247.57 1541.3 299.187" stroke="url(#paint26_radial_179_590)" stroke-width="0.75" stroke-miterlimit="10"/>
<path d="M-102.321 496.345C-60.7915 525.07 -7.98208 528.66 44.9337 517.228C99.379 505.488 157.818 477.01 217.765 433.7C285.743 384.388 303.755 306.225 349.045 266.07C398.2 222.187 469.173 184.274 526.465 191.823C586.645 199.743 626.943 254.5 660.635 307.835C695.025 362.205 721.94 423.538 788.09 448.24C838.245 466.955 919.073 454.18 997.523 437.15C1015.28 433.298 1033.06 429.415 1050.38 424.898C1092.86 413.778 1120.99 389.32 1147.86 358.788C1161.09 343.768 1174.82 329.505 1191.45 318.77C1232.62 292.165 1279.54 268.885 1329.76 258.29C1399.14 243.703 1472.7 254.253 1541.21 306.753" stroke="url(#paint27_radial_179_590)" stroke-width="0.75" stroke-miterlimit="10"/>
<path d="M-102.363 505.86C-59.559 533.872 -6.89813 537.988 47.1647 526.09C101.759 514.228 160.729 485.58 222.524 442.022C292.348 392.632 308.238 312.088 353.188 271.748C402.493 227.183 475.058 188.11 531.988 196.339C591.661 204.909 628.643 260.145 660.698 314.81C693.201 370.853 720.178 432.725 784.098 455.835C834.083 473.87 918.628 468.627 999.181 452.215C1017.18 448.675 1034.9 444.447 1052.29 439.547C1094.77 427.42 1120.82 399.453 1146.97 368.223C1159.82 352.755 1173.31 338.137 1189.86 327.277C1230.9 300.317 1278.12 276.698 1328.61 265.853C1397.97 251.02 1472.02 260.997 1541.34 314.362" stroke="url(#paint28_radial_179_590)" stroke-width="0.75" stroke-miterlimit="10"/>
<path d="M-102.491 515.372C-58.3062 542.672 -6.04896 547.235 49.3948 534.94C104.116 522.89 163.638 494.088 227.282 450.298C299.04 400.798 312.74 318.013 357.308 277.378C406.783 232.133 480.92 191.916 537.533 200.763C596.673 209.967 630.533 265.623 660.74 321.74C691.52 379.405 718.095 441.867 780.06 463.397C829.898 480.737 918.14 483.028 1000.75 467.25C1018.98 463.875 1036.82 459.5 1054.14 454.165C1096.37 440.97 1120.69 409.645 1146.01 377.628C1158.54 361.695 1171.72 346.69 1188.18 335.755C1229.13 308.438 1276.61 284.478 1327.4 273.403C1396.76 258.305 1471.28 267.71 1541.4 321.958" stroke="url(#paint29_radial_179_590)" stroke-width="0.75" stroke-miterlimit="10"/>
<path d="M-102.491 524.885C-57.1377 551.49 -5.15673 556.5 51.5615 543.785C106.41 531.55 166.485 502.58 231.976 458.588C305.645 409.09 317.16 323.875 361.388 283.022C411.01 237.082 486.72 195.705 542.993 205.187C601.623 215.025 632.36 271.113 660.72 328.67C689.8 387.96 716.248 450.978 775.94 470.978C825.628 487.605 917.545 497.427 1002.28 482.3C1020.73 479.087 1038.69 474.557 1055.92 468.78C1097.96 454.52 1120.5 419.855 1145.01 387.048C1157.19 370.68 1170.06 355.338 1186.46 344.245C1227.31 316.573 1275.06 292.273 1326.13 280.965C1395.49 265.605 1470.58 274.437 1541.42 329.55" stroke="url(#paint30_radial_179_590)" stroke-width="0.75" stroke-miterlimit="10"/>
<path d="M-102.491 534.35C-11.6358 584.792 98.3805 557.692 236.777 466.832C312.36 417.21 321.748 329.705 365.573 288.607C415.343 242.001 492.645 199.463 548.558 209.549C666.668 230.864 658.7 442.145 771.925 478.465C832.085 497.767 959.945 519.207 1057.81 483.337C1120.61 460.382 1135.96 386.365 1184.82 352.707C1280.67 286.86 1416.69 239.681 1541.55 337.13" stroke="url(#paint31_radial_179_590)" stroke-width="0.75" stroke-miterlimit="10"/>
<path d="M-102.491 504.867C-11.6358 567.127 101.843 536.052 242.385 451.1C319.135 404.695 332.753 327.045 376.215 293.772C426.348 255.335 503.67 201.211 565.275 213.555C682.96 237.082 668.708 452.525 781.74 485.162C845.34 503.522 972.52 521.435 1065.37 483.94C1136.13 455.355 1128.1 378.895 1180.09 339.342C1272.21 269.225 1415.88 224.507 1541.4 320.162" stroke="url(#paint32_radial_179_590)" stroke-width="0.75" stroke-miterlimit="10"/>
<path d="M-102.491 475.34C-11.5296 549.417 105.412 514.382 248.015 435.355C325.933 392.182 343.608 324.602 386.73 298.925C437.098 268.915 514.675 202.882 582.163 217.531C699.465 243.022 679.095 462.672 791.723 491.83C858.85 509.2 984.885 522.935 1073.13 484.512C1151.94 450.205 1120.56 371.595 1175.5 326.01C1264.4 252.165 1415.31 209.379 1541.42 303.21" stroke="url(#paint33_radial_179_590)" stroke-width="0.75" stroke-miterlimit="10"/>
<path d="M-102.363 445.81C-11.4866 531.69 108.917 492.695 253.731 419.515C332.796 379.667 354.228 322.435 397.416 304.012C447.656 282.682 525.766 204.413 598.926 221.444C715.931 248.683 689.526 472.57 801.581 498.432C872.361 514.782 996.781 523.895 1080.73 485.037C1167.62 444.82 1113 364.385 1170.78 312.612C1256.86 235.381 1414.58 194.173 1541.34 286.21" stroke="url(#paint34_radial_179_590)" stroke-width="0.75" stroke-miterlimit="10"/>
<path d="M-102.321 416.283C-11.4234 513.98 112.422 471.008 259.358 403.768C339.593 367.048 364.085 320.318 408.058 309.133C457.49 296.573 536.853 205.914 615.748 225.389C732.583 254.223 700.145 482.3 811.5 505.085C885.978 520.323 1008.53 524.545 1088.42 485.595C1183.31 439.33 1105.65 357.44 1166.13 299.25C1249.68 218.815 1413.93 178.999 1541.32 269.24" stroke="url(#paint35_radial_179_590)" stroke-width="0.75" stroke-miterlimit="10"/>
<path d="M-102.279 386.753C-11.3815 496.268 115.926 449.338 265.007 388.005C346.39 354.503 376.745 327.835 418.635 314.253C462.545 300.023 547.897 207.337 632.487 229.333C749.025 259.635 710.787 491.875 821.335 511.72C899.595 525.765 1019.98 524.945 1096.01 486.138C1198.84 433.668 1098.36 350.528 1161.39 285.9C1242.69 202.526 1413.18 163.84 1541.21 252.273" stroke="url(#paint36_radial_179_590)" stroke-width="0.75" stroke-miterlimit="10"/>
<path d="M-102.236 357.225C-11.3384 478.557 119.432 427.65 270.638 372.227C353.208 341.942 382.353 327.077 429.238 319.342C473.848 312.087 558.988 208.683 649.27 233.246C765.638 264.925 721.495 501.25 831.213 518.325C913.295 531.117 1031.32 525.147 1103.65 486.662C1214.26 427.805 1091.29 343.675 1156.76 272.505C1236.02 186.285 1412.54 148.635 1541.25 235.257" stroke="url(#paint37_radial_179_590)" stroke-width="0.75" stroke-miterlimit="10"/>
<path d="M-102.193 327.695C-11.2955 460.845 122.938 405.965 276.288 356.465C360.008 329.412 389.938 312.072 439.858 324.525C483.046 335.275 570.118 210.059 666.051 237.252C782.293 270.215 732.393 510.575 841.093 524.962C927.018 536.377 1042.56 525.225 1111.28 487.202C1229.52 421.787 1084.39 336.915 1152.02 259.125C1229.43 170.167 1411.76 133.491 1541.06 218.319" stroke="url(#paint38_radial_179_590)" stroke-width="0.75" stroke-miterlimit="10"/>
<path d="M-102.151 298.168C-11.1474 443.088 126.442 384.31 282.003 340.673C366.975 316.853 399.073 308.035 450.543 329.63C492.01 347 581.378 211.281 682.918 241.182C799.073 275.383 743.353 519.703 851.055 531.645C940.868 541.605 1053.75 525.27 1119.01 487.793C1244.68 415.663 1077.72 330.263 1147.41 245.807C1223.06 154.095 1411.06 118.333 1541 201.351" stroke="url(#paint39_radial_179_590)" stroke-width="0.75" stroke-miterlimit="10"/>
<path d="M-102.109 268.637C-11.1477 425.407 129.947 362.655 287.568 324.895C373.603 304.292 408.823 303.75 461.08 334.75C501.44 358.647 592.488 212.473 699.615 245.126C815.728 280.517 754.145 528.72 860.848 538.28C954.57 546.68 1064.78 525.177 1126.55 488.347C1259.43 409.275 1071.02 323.627 1142.63 232.442C1216.75 138.086 1410.29 103.159 1540.94 184.382" stroke="url(#paint40_radial_179_590)" stroke-width="0.75" stroke-miterlimit="10"/>
<path d="M-102.066 239.109C-11.1473 407.698 133.431 340.998 293.198 309.118C380.293 291.748 419.23 299.498 471.638 339.87C511.298 370.388 603.683 213.617 716.355 249.071C832.445 285.608 764.978 537.645 870.683 544.933C968.4 551.645 1075.57 525.04 1134.09 488.905C1273.87 402.67 1064.48 317.038 1137.83 219.078C1210.5 122.03 1409.55 87.9843 1540.77 167.398" stroke="url(#paint41_radial_179_590)" stroke-width="0.75" stroke-miterlimit="10"/>
<path d="M-102.023 209.518C-11.1043 389.925 136.937 319.187 298.848 293.277C387.218 279.14 430.023 295.29 482.301 344.927C521.581 382.22 615.006 214.638 733.178 252.952C849.271 290.602 775.898 546.417 880.603 551.49C982.123 556.425 1086.49 524.777 1141.89 489.385C1288.27 395.755 1058.34 310.417 1133.39 205.636C1204.56 106.036 1408.95 72.8254 1540.79 150.429" stroke="url(#paint42_radial_179_590)" stroke-width="0.75" stroke-miterlimit="10"/>
<path d="M-101.981 180.129C-11.0624 372.353 140.441 297.688 304.478 277.578C394.015 266.658 440.985 291.393 492.903 350.125C532.01 394.348 626.328 215.752 749.94 256.99C866.053 295.66 786.71 555.248 890.46 558.218C995.868 561.313 1097.26 524.668 1149.45 490.02C1302.06 388.748 1052.14 303.998 1128.55 192.379C1198.65 90.0416 1408.23 57.6666 1540.66 133.476" stroke="url(#paint43_radial_179_590)" stroke-width="0.75" stroke-miterlimit="10"/>
<path d="M-101.938 150.522C-11.0193 354.547 143.947 275.892 310.171 261.785C400.856 254.05 452.096 287.54 503.481 355.23C542.461 406.49 637.651 216.711 766.701 260.872C882.876 300.657 797.566 567.777 900.318 564.807C1009.51 561.715 1107.94 524.375 1157.08 490.56C1315.49 381.355 1046.11 297.485 1123.83 178.999C1192.72 74.0317 1407.55 42.4612 1540.66 116.477" stroke="url(#paint44_radial_179_590)" stroke-width="0.75" stroke-miterlimit="10"/>
<path d="M-101.917 120.993C-10.9767 336.838 147.452 254.205 315.758 246.023C407.613 241.537 463.121 283.813 514.123 360.348C553.041 418.758 649.101 217.654 783.503 264.863C899.786 305.7 808.421 575.233 910.238 571.49C1023.21 567.345 1118.65 524.173 1164.75 491.055C1328.47 373.59 1040.27 290.958 1119.18 165.573C1186.95 58.0376 1406.85 27.3021 1540.6 99.5078" stroke="url(#paint45_radial_179_590)" stroke-width="0.75" stroke-miterlimit="10"/>
<path d="M-101.875 91.4643C-10.9346 319.125 150.914 232.519 321.408 230.245C414.411 228.993 474.186 280.162 524.746 365.467C563.618 431.085 660.528 218.521 800.286 268.808C916.673 310.665 819.021 581.065 920.116 578.172C1036.95 574.77 1129.25 524.033 1172.39 491.69C1340.83 365.655 1034.49 284.6 1114.49 152.301C1181.15 42.0588 1406.15 12.1742 1540.51 82.57" stroke="url(#paint46_radial_179_590)" stroke-width="0.75" stroke-miterlimit="10"/>
<path d="M-101.833 61.9357C-10.8714 301.415 154.546 210.848 327.038 214.468C421.228 216.448 485.252 276.572 535.345 370.59C574.175 443.475 672.02 219.371 817.065 272.752C933.583 315.63 829.662 589.573 929.907 584.778C1050.52 578.993 1139.7 523.71 1179.94 492.215C1352.43 357.21 1028.77 278.15 1109.71 138.905C1175.35 25.9875 1405.36 -3.03092 1540.36 65.5707" stroke="url(#paint47_radial_179_590)" stroke-width="0.75" stroke-miterlimit="10"/>
</g>
</g>
</g>
</g>
<defs>
<radialGradient id="paint0_radial_179_590" cx="0" cy="0" r="1" gradientUnits="userSpaceOnUse" gradientTransform="translate(2868.19 1540.41) scale(2392.69 706.947)">
<stop stop-color="#F1F1F1"/>
<stop offset="1" stop-color="#2782CC" stop-opacity="0.5"/>
</radialGradient>
<radialGradient id="paint1_radial_179_590" cx="0" cy="0" r="1" gradientUnits="userSpaceOnUse" gradientTransform="translate(2867.26 1614.3) scale(2392 728.53)">
<stop stop-color="#F1F1F1"/>
<stop offset="1" stop-color="#2782CC" stop-opacity="0.5"/>
</radialGradient>
<radialGradient id="paint2_radial_179_590" cx="0" cy="0" r="1" gradientUnits="userSpaceOnUse" gradientTransform="translate(2867.31 1687.81) scale(2392.04 749.97)">
<stop stop-color="#F1F1F1"/>
<stop offset="1" stop-color="#2782CC" stop-opacity="0.5"/>
</radialGradient>
<radialGradient id="paint3_radial_179_590" cx="0" cy="0" r="1" gradientUnits="userSpaceOnUse" gradientTransform="translate(2867.14 1761.09) scale(2391.91 770.621)">
<stop stop-color="#F1F1F1"/>
<stop offset="1" stop-color="#2782CC" stop-opacity="0.5"/>
</radialGradient>
<radialGradient id="paint4_radial_179_590" cx="0" cy="0" r="1" gradientUnits="userSpaceOnUse" gradientTransform="translate(2867.02 1834.31) scale(2391.82 791.366)">
<stop stop-color="#F1F1F1"/>
<stop offset="1" stop-color="#2782CC" stop-opacity="0.5"/>
</radialGradient>
<radialGradient id="paint5_radial_179_590" cx="0" cy="0" r="1" gradientUnits="userSpaceOnUse" gradientTransform="translate(2867.44 1907.28) scale(2392.13 811.8)">
<stop stop-color="#F1F1F1"/>
<stop offset="1" stop-color="#2782CC" stop-opacity="0.5"/>
</radialGradient>
<radialGradient id="paint6_radial_179_590" cx="0" cy="0" r="1" gradientUnits="userSpaceOnUse" gradientTransform="translate(2867.14 1980.17) scale(2391.91 832.473)">
<stop stop-color="#F1F1F1"/>
<stop offset="1" stop-color="#2782CC" stop-opacity="0.5"/>
</radialGradient>
<radialGradient id="paint7_radial_179_590" cx="0" cy="0" r="1" gradientUnits="userSpaceOnUse" gradientTransform="translate(2867.31 2038.17) scale(2392.04 886.989)">
<stop stop-color="#F1F1F1"/>
<stop offset="1" stop-color="#2782CC" stop-opacity="0.5"/>
</radialGradient>
<radialGradient id="paint8_radial_179_590" cx="0" cy="0" r="1" gradientUnits="userSpaceOnUse" gradientTransform="translate(2867.06 2032.59) scale(2392.04 937.832)">
<stop stop-color="#F1F1F1"/>
<stop offset="1" stop-color="#2782CC" stop-opacity="0.5"/>
</radialGradient>
<radialGradient id="paint9_radial_179_590" cx="0" cy="0" r="1" gradientUnits="userSpaceOnUse" gradientTransform="translate(2867.14 2014.06) scale(2391.97 1025.21)">
<stop stop-color="#F1F1F1"/>
<stop offset="1" stop-color="#2782CC" stop-opacity="0.5"/>
</radialGradient>
<radialGradient id="paint10_radial_179_590" cx="0" cy="0" r="1" gradientUnits="userSpaceOnUse" gradientTransform="translate(2867.36 1996.95) scale(2391.82 1115.64)">
<stop stop-color="#F1F1F1"/>
<stop offset="1" stop-color="#2782CC" stop-opacity="0.5"/>
</radialGradient>
<radialGradient id="paint11_radial_179_590" cx="0" cy="0" r="1" gradientUnits="userSpaceOnUse" gradientTransform="translate(2867.14 1980.7) scale(2391.97 1208.17)">
<stop stop-color="#F1F1F1"/>
<stop offset="1" stop-color="#2782CC" stop-opacity="0.5"/>
</radialGradient>
<radialGradient id="paint12_radial_179_590" cx="0" cy="0" r="1" gradientUnits="userSpaceOnUse" gradientTransform="translate(2867.23 1965.68) scale(2391.91 1303.45)">
<stop stop-color="#F1F1F1"/>
<stop offset="1" stop-color="#2782CC" stop-opacity="0.5"/>
</radialGradient>
<radialGradient id="paint13_radial_179_590" cx="0" cy="0" r="1" gradientUnits="userSpaceOnUse" gradientTransform="translate(2867.31 1952.07) scale(2391.85 1401.94)">
<stop stop-color="#F1F1F1"/>
<stop offset="1" stop-color="#2782CC" stop-opacity="0.5"/>
</radialGradient>
<radialGradient id="paint14_radial_179_590" cx="0" cy="0" r="1" gradientUnits="userSpaceOnUse" gradientTransform="translate(2867.19 1939.77) scale(2391.94 1503.38)">
<stop stop-color="#F1F1F1"/>
<stop offset="1" stop-color="#2782CC" stop-opacity="0.5"/>
</radialGradient>
<radialGradient id="paint15_radial_179_590" cx="0" cy="0" r="1" gradientUnits="userSpaceOnUse" gradientTransform="translate(2868.42 1109.41) scale(2437.88 1250.23)">
<stop stop-color="#F1F1F1"/>
<stop offset="1" stop-color="#2782CC" stop-opacity="0.5"/>
</radialGradient>
<radialGradient id="paint16_radial_179_590" cx="0" cy="0" r="1" gradientUnits="userSpaceOnUse" gradientTransform="translate(2868.29 1136.35) scale(2437.92 1271.41)">
<stop stop-color="#F1F1F1"/>
<stop offset="1" stop-color="#2782CC" stop-opacity="0.5"/>
</radialGradient>
<radialGradient id="paint17_radial_179_590" cx="0" cy="0" r="1" gradientUnits="userSpaceOnUse" gradientTransform="translate(2868.46 1163.23) scale(2438.17 1292.46)">
<stop stop-color="#F1F1F1"/>
<stop offset="1" stop-color="#2782CC" stop-opacity="0.5"/>
</radialGradient>
<radialGradient id="paint18_radial_179_590" cx="0" cy="0" r="1" gradientUnits="userSpaceOnUse" gradientTransform="translate(2868.59 1190.05) scale(2438.33 1313.54)">
<stop stop-color="#F1F1F1"/>
<stop offset="1" stop-color="#2782CC" stop-opacity="0.5"/>
</radialGradient>
<radialGradient id="paint19_radial_179_590" cx="0" cy="0" r="1" gradientUnits="userSpaceOnUse" gradientTransform="translate(2868.42 1216.87) scale(2438.33 1334.73)">
<stop stop-color="#F1F1F1"/>
<stop offset="1" stop-color="#2782CC" stop-opacity="0.5"/>
</radialGradient>
<radialGradient id="paint20_radial_179_590" cx="0" cy="0" r="1" gradientUnits="userSpaceOnUse" gradientTransform="translate(2868.29 1243.61) scale(2438.36 1355.95)">
<stop stop-color="#F1F1F1"/>
<stop offset="1" stop-color="#2782CC" stop-opacity="0.5"/>
</radialGradient>
<radialGradient id="paint21_radial_179_590" cx="0" cy="0" r="1" gradientUnits="userSpaceOnUse" gradientTransform="translate(2868.63 1270.46) scale(2438.74 1377.31)">
<stop stop-color="#F1F1F1"/>
<stop offset="1" stop-color="#2782CC" stop-opacity="0.5"/>
</radialGradient>
<radialGradient id="paint22_radial_179_590" cx="0" cy="0" r="1" gradientUnits="userSpaceOnUse" gradientTransform="translate(2868.46 1297.22) scale(2438.74 1398.73)">
<stop stop-color="#F1F1F1"/>
<stop offset="1" stop-color="#2782CC" stop-opacity="0.5"/>
</radialGradient>
<radialGradient id="paint23_radial_179_590" cx="0" cy="0" r="1" gradientUnits="userSpaceOnUse" gradientTransform="translate(2868.97 1323.82) scale(2439.24 1420.39)">
<stop stop-color="#F1F1F1"/>
<stop offset="1" stop-color="#2782CC" stop-opacity="0.5"/>
</radialGradient>
<radialGradient id="paint24_radial_179_590" cx="0" cy="0" r="1" gradientUnits="userSpaceOnUse" gradientTransform="translate(2868.84 1350.8) scale(2439.27 1441.62)">
<stop stop-color="#F1F1F1"/>
<stop offset="1" stop-color="#2782CC" stop-opacity="0.5"/>
</radialGradient>
<radialGradient id="paint25_radial_179_590" cx="0" cy="0" r="1" gradientUnits="userSpaceOnUse" gradientTransform="translate(2868.92 1377.49) scale(2439.46 1463.08)">
<stop stop-color="#F1F1F1"/>
<stop offset="1" stop-color="#2782CC" stop-opacity="0.5"/>
</radialGradient>
<radialGradient id="paint26_radial_179_590" cx="0" cy="0" r="1" gradientUnits="userSpaceOnUse" gradientTransform="translate(2869.05 1404.22) scale(2439.68 1484.66)">
<stop stop-color="#F1F1F1"/>
<stop offset="1" stop-color="#2782CC" stop-opacity="0.5"/>
</radialGradient>
<radialGradient id="paint27_radial_179_590" cx="0" cy="0" r="1" gradientUnits="userSpaceOnUse" gradientTransform="translate(2868.8 1430.78) scale(2439.62 1506.58)">
<stop stop-color="#F1F1F1"/>
<stop offset="1" stop-color="#2782CC" stop-opacity="0.5"/>
</radialGradient>
<radialGradient id="paint28_radial_179_590" cx="0" cy="0" r="1" gradientUnits="userSpaceOnUse" gradientTransform="translate(2868.97 1457.73) scale(2439.87 1527.89)">
<stop stop-color="#F1F1F1"/>
<stop offset="1" stop-color="#2782CC" stop-opacity="0.5"/>
</radialGradient>
<radialGradient id="paint29_radial_179_590" cx="0" cy="0" r="1" gradientUnits="userSpaceOnUse" gradientTransform="translate(2868.84 1484.44) scale(2440.15 1549.41)">
<stop stop-color="#F1F1F1"/>
<stop offset="1" stop-color="#2782CC" stop-opacity="0.5"/>
</radialGradient>
<radialGradient id="paint30_radial_179_590" cx="0" cy="0" r="1" gradientUnits="userSpaceOnUse" gradientTransform="translate(2868.88 1511.16) scale(2440.19 1571)">
<stop stop-color="#F1F1F1"/>
<stop offset="1" stop-color="#2782CC" stop-opacity="0.5"/>
</radialGradient>
<radialGradient id="paint31_radial_179_590" cx="0" cy="0" r="1" gradientUnits="userSpaceOnUse" gradientTransform="translate(2869.13 1537.66) scale(2440.38 1592.6)">
<stop stop-color="#F1F1F1"/>
<stop offset="1" stop-color="#2782CC" stop-opacity="0.5"/>
</radialGradient>
<radialGradient id="paint32_radial_179_590" cx="0" cy="0" r="1" gradientUnits="userSpaceOnUse" gradientTransform="translate(2868.84 1501.3) scale(2440.15 1477.01)">
<stop stop-color="#F1F1F1"/>
<stop offset="1" stop-color="#2782CC" stop-opacity="0.5"/>
</radialGradient>
<radialGradient id="paint33_radial_179_590" cx="0" cy="0" r="1" gradientUnits="userSpaceOnUse" gradientTransform="translate(2868.88 1465.33) scale(2440.19 1362.61)">
<stop stop-color="#F1F1F1"/>
<stop offset="1" stop-color="#2782CC" stop-opacity="0.5"/>
</radialGradient>
<radialGradient id="paint34_radial_179_590" cx="0" cy="0" r="1" gradientUnits="userSpaceOnUse" gradientTransform="translate(2868.97 1465.22) scale(2439.87 1329.86)">
<stop stop-color="#F1F1F1"/>
<stop offset="1" stop-color="#2782CC" stop-opacity="0.5"/>
</radialGradient>
<radialGradient id="paint35_radial_179_590" cx="0" cy="0" r="1" gradientUnits="userSpaceOnUse" gradientTransform="translate(2869.01 1469.7) scale(2439.78 1352.49)">
<stop stop-color="#F1F1F1"/>
<stop offset="1" stop-color="#2782CC" stop-opacity="0.5"/>
</radialGradient>
<radialGradient id="paint36_radial_179_590" cx="0" cy="0" r="1" gradientUnits="userSpaceOnUse" gradientTransform="translate(2868.88 1446.25) scale(2439.56 1441.85)">
<stop stop-color="#F1F1F1"/>
<stop offset="1" stop-color="#2782CC" stop-opacity="0.5"/>
</radialGradient>
<radialGradient id="paint37_radial_179_590" cx="0" cy="0" r="1" gradientUnits="userSpaceOnUse" gradientTransform="translate(2869.05 1423.58) scale(2439.56 1533.18)">
<stop stop-color="#F1F1F1"/>
<stop offset="1" stop-color="#2782CC" stop-opacity="0.5"/>
</radialGradient>
<radialGradient id="paint38_radial_179_590" cx="0" cy="0" r="1" gradientUnits="userSpaceOnUse" gradientTransform="translate(2868.76 1401.96) scale(2439.21 1626.22)">
<stop stop-color="#F1F1F1"/>
<stop offset="1" stop-color="#2782CC" stop-opacity="0.5"/>
</radialGradient>
<radialGradient id="paint39_radial_179_590" cx="0" cy="0" r="1" gradientUnits="userSpaceOnUse" gradientTransform="translate(2868.71 1381.26) scale(2439.05 1721.38)">
<stop stop-color="#F1F1F1"/>
<stop offset="1" stop-color="#2782CC" stop-opacity="0.5"/>
</radialGradient>
<radialGradient id="paint40_radial_179_590" cx="0" cy="0" r="1" gradientUnits="userSpaceOnUse" gradientTransform="translate(2868.67 1361.16) scale(2438.89 1817.88)">
<stop stop-color="#F1F1F1"/>
<stop offset="1" stop-color="#2782CC" stop-opacity="0.5"/>
</radialGradient>
<radialGradient id="paint41_radial_179_590" cx="0" cy="0" r="1" gradientUnits="userSpaceOnUse" gradientTransform="translate(2868.42 1341.62) scale(2438.58 1915.84)">
<stop stop-color="#F1F1F1"/>
<stop offset="1" stop-color="#2782CC" stop-opacity="0.5"/>
</radialGradient>
<radialGradient id="paint42_radial_179_590" cx="0" cy="0" r="1" gradientUnits="userSpaceOnUse" gradientTransform="translate(2868.55 1322.4) scale(2438.55 2014.4)">
<stop stop-color="#F1F1F1"/>
<stop offset="1" stop-color="#2782CC" stop-opacity="0.5"/>
</radialGradient>
<radialGradient id="paint43_radial_179_590" cx="0" cy="0" r="1" gradientUnits="userSpaceOnUse" gradientTransform="translate(2868.38 1303.94) scale(2438.29 2114.62)">
<stop stop-color="#F1F1F1"/>
<stop offset="1" stop-color="#2782CC" stop-opacity="0.5"/>
</radialGradient>
<radialGradient id="paint44_radial_179_590" cx="0" cy="0" r="1" gradientUnits="userSpaceOnUse" gradientTransform="translate(2868.46 1285.45) scale(2438.23 2215.21)">
<stop stop-color="#F1F1F1"/>
<stop offset="1" stop-color="#2782CC" stop-opacity="0.5"/>
</radialGradient>
<radialGradient id="paint45_radial_179_590" cx="0" cy="0" r="1" gradientUnits="userSpaceOnUse" gradientTransform="translate(2868.38 1267.53) scale(2438.1 2316.89)">
<stop stop-color="#F1F1F1"/>
<stop offset="1" stop-color="#2782CC" stop-opacity="0.5"/>
</radialGradient>
<radialGradient id="paint46_radial_179_590" cx="0" cy="0" r="1" gradientUnits="userSpaceOnUse" gradientTransform="translate(2868.29 1249.6) scale(2437.92 2418.33)">
<stop stop-color="#F1F1F1"/>
<stop offset="1" stop-color="#2782CC" stop-opacity="0.5"/>
</radialGradient>
<radialGradient id="paint47_radial_179_590" cx="0" cy="0" r="1" gradientUnits="userSpaceOnUse" gradientTransform="translate(2868.08 1231.45) scale(2437.63 2520.06)">
<stop stop-color="#F1F1F1"/>
<stop offset="1" stop-color="#2782CC" stop-opacity="0.5"/>
</radialGradient>
<clipPath id="clip0_179_590">
<rect width="1440" height="754" fill="white"/>
</clipPath>
</defs>
</svg>
