<svg width="128" height="73" viewBox="0 0 128 73" fill="none" xmlns="http://www.w3.org/2000/svg">
<path d="M34.9683 0.185547H53.7423H62.3519H65.786H69.5626H72.9222H76.4745H80.0393H91.5388C91.6837 0.243007 91.9228 0.302594 92.02 0.424963C95.3136 0.840598 97.3846 1.08235 100.455 2.58272C100.756 2.72875 101.053 2.88212 101.346 3.04284C101.64 3.20356 101.929 3.37142 102.214 3.54644C102.499 3.72145 102.78 3.9034 103.056 4.09229C103.332 4.28118 103.603 4.47677 103.87 4.67908C104.136 4.88135 104.397 5.0901 104.653 5.30533C104.909 5.52053 105.16 5.74193 105.405 5.96953C105.65 6.19713 105.89 6.43065 106.123 6.67009C106.357 6.9095 106.584 7.15455 106.806 7.40526C107.027 7.65594 107.243 7.91192 107.451 8.17321C107.66 8.43454 107.862 8.70085 108.058 8.97217C108.254 9.24348 108.443 9.51946 108.625 9.80011C108.807 10.0808 108.982 10.3657 109.15 10.655C109.318 10.9444 109.478 11.2376 109.632 11.5349C109.785 11.8321 109.931 12.133 110.07 12.4374C110.209 12.7419 110.34 13.0496 110.463 13.3605C110.586 13.6714 110.702 13.9852 110.81 14.3019C110.921 14.6312 111.024 14.9631 111.119 15.2975C111.214 15.6319 111.301 15.9685 111.379 16.3071C111.457 16.6458 111.527 16.9861 111.589 17.3283C111.651 17.6704 111.704 18.0138 111.749 18.3585C111.794 18.7032 111.83 19.0488 111.858 19.3954C111.886 19.7419 111.905 20.0889 111.916 20.4363C111.927 20.7838 111.929 21.1313 111.923 21.4788C111.917 21.8264 111.902 22.1736 111.878 22.5205C111.855 22.8673 111.823 23.2134 111.783 23.5587C111.743 23.9039 111.694 24.248 111.637 24.5909C111.58 24.9338 111.514 25.2751 111.44 25.6147C111.366 25.9544 111.284 26.292 111.193 26.6277C111.103 26.9633 111.004 27.2965 110.897 27.6272C110.79 27.958 110.675 28.2859 110.552 28.611C110.429 28.9362 110.298 29.2581 110.159 29.5767C110.02 29.8954 109.873 30.2105 109.719 30.522C107.397 35.2388 102.995 39.118 98.0122 40.8074C96.2071 41.4195 94.2235 41.733 92.3238 41.8421C89.044 42.0305 85.6809 41.8901 82.3944 41.8851L62.1819 41.7946L44.4825 41.7121C41.1149 41.6885 37.6418 41.8252 34.2921 41.4898C32.009 41.2612 29.8677 40.6293 27.8101 39.613C27.5011 39.4632 27.196 39.3059 26.8948 39.1411C26.5935 38.9763 26.2965 38.8042 26.0038 38.6248C25.7109 38.4454 25.4227 38.2589 25.1391 38.0654C24.8554 37.8719 24.5767 37.6715 24.3029 37.4643C24.0291 37.2571 23.7606 37.0433 23.4973 36.8229C23.234 36.6025 22.9762 36.3757 22.7241 36.1427C22.4719 35.9096 22.2256 35.6705 21.9852 35.4254C21.7447 35.1802 21.5104 34.9293 21.2823 34.6727C21.0542 34.416 20.8325 34.1539 20.6173 33.8864C20.402 33.6189 20.1935 33.3463 19.9916 33.0685C19.7897 32.7907 19.5948 32.5081 19.4068 32.2208C19.2188 31.9335 19.038 31.6417 18.8643 31.3455C18.6907 31.0493 18.5244 30.749 18.3655 30.4446C18.2065 30.1402 18.0552 29.8321 17.9114 29.5203C17.7676 29.2085 17.6315 28.8933 17.5032 28.5748C17.3749 28.2563 17.2544 27.9349 17.1419 27.6105C17.0343 27.2923 16.9346 26.9717 16.8428 26.6487C16.7509 26.3257 16.667 26.0006 16.5911 25.6735C16.5151 25.3463 16.4472 25.0176 16.3874 24.6871C16.3275 24.3566 16.2758 24.0249 16.2321 23.6919C16.1885 23.3589 16.153 23.0251 16.1257 22.6904C16.0984 22.3556 16.0793 22.0204 16.0684 21.6848C16.0576 21.3491 16.0549 21.0134 16.0604 20.6777C16.0659 20.3418 16.0797 20.0064 16.1016 19.6713C16.1236 19.3362 16.1537 19.0018 16.192 18.6681C16.2303 18.3345 16.2767 18.002 16.3313 17.6706C16.3859 17.3393 16.4485 17.0094 16.5192 16.6811C16.5899 16.3528 16.6686 16.0264 16.7553 15.702C16.842 15.3775 16.9366 15.0554 17.039 14.7355C17.1415 14.4157 17.2517 14.0986 17.3696 13.7842C17.4876 13.4697 17.6132 13.1584 17.7464 12.8501C17.8796 12.5418 18.0202 12.237 18.1683 11.9355C20.6161 7.00181 24.9028 2.87435 30.2208 1.23331C31.7756 0.753544 33.4798 0.686195 34.9683 0.185547ZM65.3502 2.69755C65.0504 3.40869 65.2164 35.8072 65.1356 39.519C67.365 39.4016 69.6327 39.4855 71.866 39.4929L85.0194 39.5574C88.8018 39.5607 92.6677 39.7356 96.3676 38.8125C98.9551 38.1669 101.977 36.6266 103.787 34.6443C103.863 34.5611 103.905 34.4704 103.94 34.3635C106.101 33.1278 108.459 28.0688 109.103 25.6953C109.181 25.4112 109.252 25.1253 109.316 24.8377C109.38 24.55 109.437 24.261 109.486 23.9705C109.536 23.6801 109.578 23.3886 109.613 23.096C109.648 22.8034 109.676 22.5102 109.696 22.2162C109.717 21.9223 109.73 21.628 109.736 21.3334C109.741 21.0388 109.74 20.7442 109.731 20.4497C109.722 20.1552 109.706 19.861 109.682 19.5673C109.659 19.2736 109.628 18.9807 109.589 18.6885C109.551 18.3963 109.506 18.1053 109.453 17.8153C109.401 17.5254 109.341 17.237 109.274 16.9501C109.207 16.6631 109.133 16.378 109.051 16.0948C108.97 15.8115 108.882 15.5305 108.787 15.2517C108.692 14.9728 108.59 14.6965 108.48 14.4227C108.372 14.149 108.256 13.8781 108.133 13.6101C108.011 13.3421 107.882 13.0773 107.746 12.8157C107.61 12.5541 107.468 12.2961 107.32 12.0416C104.914 7.85478 100.779 4.57158 96.1022 3.31622C93.2467 2.54975 90.2225 2.6917 87.2911 2.66799L78.7181 2.62744C74.2916 2.61312 69.7633 2.40464 65.3502 2.69755ZM43.7978 9.25799C41.7886 9.45296 40.1786 10.0223 38.8515 11.6309C37.7343 12.985 37.1713 14.9538 37.3466 16.6963C37.5086 18.3072 38.2406 19.524 39.4526 20.5605C37.7716 21.7881 36.6796 22.8008 36.3401 24.9634C36.036 26.9002 36.4095 29.1092 37.5799 30.7124C38.6367 32.1602 40.1672 32.9049 41.9119 33.1717C42.8705 33.3184 43.8696 33.33 44.8384 33.3162C47.9915 33.3142 51.1508 33.2692 54.303 33.3125C54.0305 29.8237 54.2397 26.1785 54.2406 22.6729C54.241 18.1888 54.0836 13.6446 54.2593 9.16695C51.8788 9.26977 49.4782 9.19416 47.0954 9.18881C46.0285 9.1864 44.8509 9.10558 43.7978 9.25799ZM76.4745 0.185547L76.4848 0.268552C77.1244 0.285825 79.3515 0.0967596 79.7284 0.399054C81.989 0.432825 85.6131 0.629694 87.755 0.408449C89.1114 0.438902 90.6721 0.576234 92.02 0.424963C91.9228 0.302594 91.6837 0.243007 91.5388 0.185547H80.0393H76.4745ZM69.5626 0.185547L69.5653 0.308237C70.3517 0.354569 72.2161 0.138895 72.8138 0.397469C75.0641 0.414385 77.4977 0.618147 79.7284 0.399054C79.3515 0.0967596 77.1244 0.285825 76.4848 0.268552L76.4745 0.185547H72.9222H69.5626ZM62.3519 0.185547L62.3617 0.320618C64.8824 0.379991 67.4033 0.419923 69.9244 0.440414C70.8276 0.445203 71.9325 0.558849 72.8138 0.397469C72.2161 0.138895 70.3517 0.354569 69.5653 0.308237L69.5626 0.185547H65.786H62.3519ZM53.7423 0.185547C54.9587 0.499029 60.735 0.348222 62.3617 0.320618L62.3519 0.185547H53.7423Z" fill="white"/>
<path d="M53.7422 0.185547H62.3517L62.3615 0.320618C60.7348 0.348222 54.9585 0.499029 53.7422 0.185547Z" fill="#2165B0" fill-opacity="0.835294"/>
<path d="M62.3516 0.185547H65.7857H69.5623L69.565 0.308237C70.3514 0.354569 72.2158 0.138895 72.8135 0.397469C71.9321 0.558849 70.8273 0.445203 69.924 0.440414C67.403 0.419929 64.8821 0.379997 62.3614 0.320618L62.3516 0.185547ZM65.7857 0.185547C66.9677 0.456337 68.3544 0.325893 69.565 0.308237L69.5623 0.185547H65.7857Z" fill="#2165B0" fill-opacity="0.690196"/>
<path d="M65.7861 0.185547H69.5628L69.5655 0.308237C68.3549 0.325893 66.9681 0.456337 65.7861 0.185547Z" fill="#2165B0" fill-opacity="0.458824"/>
<path d="M69.5625 0.185547H72.9221H76.4744L76.4847 0.268552C77.1243 0.285825 79.3514 0.0967596 79.7283 0.399054C77.4976 0.618147 75.064 0.414385 72.8137 0.397469C72.216 0.138895 70.3516 0.354569 69.5652 0.308237L69.5625 0.185547ZM72.9221 0.185547C74.0394 0.409419 75.3388 0.267969 76.4847 0.268552L76.4744 0.185547H72.9221Z" fill="#2165B0" fill-opacity="0.360784"/>
<path d="M72.9219 0.185547H76.4742L76.4844 0.268552C75.3385 0.267969 74.0392 0.409419 72.9219 0.185547Z" fill="#2165B0" fill-opacity="0.266667"/>
<path d="M76.4746 0.185547H80.0394H91.5388C91.6838 0.243007 91.9229 0.302594 92.0201 0.424963C90.6722 0.576234 89.1115 0.438902 87.7551 0.408449C85.6132 0.629694 81.989 0.432825 79.7285 0.399054C79.3516 0.0967596 77.1245 0.285825 76.4849 0.268552L76.4746 0.185547ZM80.0394 0.185547C81.1665 0.35329 87.3634 0.0510075 87.7551 0.408449C89.1115 0.438902 90.6722 0.576234 92.0201 0.424963C91.9229 0.302594 91.6838 0.243007 91.5388 0.185547H80.0394Z" fill="#2165B0" fill-opacity="0.196078"/>
<path d="M80.0391 0.185547H91.5385C91.6835 0.243007 91.9226 0.302594 92.0198 0.424963C90.6719 0.576234 89.1112 0.438902 87.7547 0.408449C87.3631 0.0510075 81.1662 0.35329 80.0391 0.185547Z" fill="#2165B0" fill-opacity="0.0901961"/>
<path d="M45.0122 13.3976C46.5397 13.4085 48.067 13.3916 49.5939 13.3467C49.6934 15.1195 49.6501 16.9052 49.6466 18.6803C48.7192 18.605 47.7642 18.6418 46.8334 18.6392C45.4658 18.6543 43.7418 18.8613 42.6298 17.8983C42.1918 17.519 41.9483 16.9887 41.9166 16.4139C41.8747 15.6612 42.1267 14.8887 42.6325 14.3266C43.3212 13.5618 44.0206 13.4466 45.0122 13.3976Z" fill="white"/>
<path d="M43.6895 22.8609C45.6486 22.7688 47.6361 22.8315 49.5987 22.8298C49.7018 24.9153 49.6505 27.0177 49.6456 29.1059C48.7151 28.9825 47.7695 29.0097 46.8333 29.0073C45.2984 29.0112 43.3287 29.3462 42.02 28.3923C41.3755 27.9226 40.9802 27.2174 40.8615 26.4339C40.7376 25.617 40.904 24.703 41.4073 24.0352C42.0209 23.2209 42.7154 23.0043 43.6895 22.8609Z" fill="white"/>
<path d="M74.7309 9.27212C75.7149 9.0334 83.8311 9.13635 85.2071 9.24679C85.9293 9.30473 86.6554 9.42917 87.3419 9.6641C88.9178 10.2033 90.2363 11.3071 90.9705 12.8096C91.7453 14.3966 91.9232 16.4884 91.3376 18.1628C90.9767 19.1938 90.3554 20.1102 89.3513 20.5889C90.1631 20.919 90.8304 21.3876 91.392 22.0643C92.5825 23.4993 92.9433 25.3232 92.7609 27.1455C92.6645 28.1099 92.3318 29.7076 91.5419 30.3503C91.5369 30.7543 91.1003 31.226 90.8197 31.5044C89.9856 32.3313 88.7246 32.8443 87.5895 33.079C85.7901 33.451 83.8507 33.3171 82.0202 33.317L74.6221 33.3096C74.6301 33.2919 74.6377 33.2739 74.6466 33.2565C74.7394 33.0724 74.7804 32.9465 74.7849 32.7386C74.9031 27.3401 74.7711 21.909 74.7724 16.5072C74.7728 14.835 75.0066 10.6346 74.7309 9.27212ZM79.3519 22.8777C79.4559 23.7929 79.5839 28.3983 79.2096 29.0106C80.9465 28.9655 85.9708 29.4573 87.1028 28.2636C87.1492 28.2149 87.1622 28.1833 87.1778 28.1194C87.7362 27.7096 88.023 27.1798 88.1287 26.4974C88.2567 25.6735 88.1662 24.7374 87.6519 24.0532C87.1229 23.3488 86.2768 23.025 85.4279 22.9121C83.4412 22.6476 81.3547 22.935 79.3519 22.8777ZM79.4625 13.3996C79.2288 14.6908 79.7462 17.5162 79.2413 18.4961C79.2203 18.537 79.2021 18.5763 79.1789 18.6163C80.5736 18.6069 85.1893 18.9775 86.093 18.0748C86.1585 18.0092 86.2165 17.9384 86.2736 17.8652C86.7134 17.5559 86.9967 17.0498 87.0926 16.5232C87.2152 15.8493 87.0016 15.1628 86.6104 14.6117C86.5569 14.5362 86.4998 14.4635 86.4391 14.3934C86.3784 14.3234 86.3147 14.2564 86.2478 14.1924C86.1809 14.1285 86.1111 14.0678 86.0386 14.0104C85.9657 13.9531 85.8905 13.8994 85.8129 13.8492C85.735 13.799 85.655 13.7526 85.5729 13.7099C85.4905 13.6674 85.4064 13.6288 85.3204 13.5942C85.2348 13.5595 85.1475 13.5291 85.0586 13.5027C84.97 13.4764 84.8802 13.4543 84.7892 13.4366C83.5215 13.1994 80.9733 13.4802 79.4625 13.3996Z" fill="white"/>
<path d="M9.82724 65.8979H1.71013V49.8323H9.61046C11.0396 49.8323 12.1556 50.2258 12.9585 51.0126C13.7774 51.7833 14.1869 52.7548 14.1869 53.927C14.1869 54.8905 13.9139 55.7094 13.3679 56.3838C12.838 57.0422 12.1797 57.4517 11.3929 57.6122C12.26 57.7407 12.9906 58.1903 13.5847 58.9611C14.1949 59.7158 14.5 60.5829 14.5 61.5624C14.5 62.847 14.0825 63.8908 13.2475 64.6936C12.4286 65.4965 11.2885 65.8979 9.82724 65.8979ZM9.03239 56.4802C9.73892 56.4802 10.2929 56.2875 10.6943 55.9021C11.0958 55.5167 11.2965 55.0189 11.2965 54.4088C11.2965 53.7825 11.0958 53.2767 10.6943 52.8913C10.2929 52.5059 9.73892 52.3132 9.03239 52.3132H4.52824V56.4802H9.03239ZM9.15282 63.4171C9.92358 63.4171 10.5257 63.2244 10.9593 62.839C11.3929 62.4375 11.6096 61.8836 11.6096 61.177C11.6096 60.5508 11.3929 60.0289 10.9593 59.6114C10.5257 59.1779 9.92358 58.9611 9.15282 58.9611H4.52824V63.4171H9.15282ZM19.7854 65.8979H17.2564V54.2642H19.7854V55.9744C20.2351 55.3963 20.7971 54.9226 21.4715 54.5533C22.1459 54.1839 22.8444 53.9993 23.567 53.9993V56.5043C23.3422 56.4561 23.0772 56.432 22.7722 56.432C22.2423 56.432 21.6722 56.5926 21.062 56.9137C20.4679 57.2188 20.0424 57.5721 19.7854 57.9735V65.8979ZM26.8591 52.8431C26.4416 52.8431 26.0723 52.6906 25.7511 52.3855C25.4461 52.0804 25.2935 51.7111 25.2935 51.2775C25.2935 50.844 25.4461 50.4746 25.7511 50.1696C26.0723 49.8645 26.4416 49.7119 26.8591 49.7119C27.2927 49.7119 27.662 49.8645 27.9671 50.1696C28.2722 50.4746 28.4247 50.844 28.4247 51.2775C28.4247 51.7111 28.2722 52.0804 27.9671 52.3855C27.662 52.6906 27.2927 52.8431 26.8591 52.8431ZM28.1357 65.8979H25.6066V54.2642H28.1357V65.8979ZM36.1375 70.6189C34.1624 70.6189 32.5406 70.0408 31.272 68.8847L32.4522 67.0541C33.3193 68.0497 34.5478 68.5474 36.1375 68.5474C37.1009 68.5474 37.9118 68.2905 38.5702 67.7767C39.2446 67.2789 39.5818 66.4841 39.5818 65.3921V63.9951C38.5862 65.2797 37.3418 65.922 35.8484 65.922C34.3229 65.922 33.0785 65.3921 32.115 64.3323C31.1676 63.2725 30.6939 61.8113 30.6939 59.9486C30.6939 58.102 31.1676 56.6488 32.115 55.589C33.0785 54.5131 34.3229 53.9752 35.8484 53.9752C37.3739 53.9752 38.6183 54.6095 39.5818 55.878V54.2642H42.1109V65.2958C42.1109 66.2914 41.9342 67.1504 41.581 67.873C41.2438 68.6117 40.7781 69.1657 40.184 69.535C39.5898 69.9204 38.9556 70.1934 38.2811 70.3539C37.6228 70.5306 36.9082 70.6189 36.1375 70.6189ZM36.5951 63.682C37.1732 63.682 37.7432 63.5295 38.3052 63.2244C38.8672 62.9193 39.2928 62.5499 39.5818 62.1164V57.7808C39.2928 57.3473 38.8672 56.978 38.3052 56.6729C37.7432 56.3678 37.1732 56.2152 36.5951 56.2152C35.5995 56.2152 34.8047 56.5605 34.2105 57.2509C33.6164 57.9254 33.3193 58.8246 33.3193 59.9486C33.3193 61.0726 33.6164 61.9799 34.2105 62.6704C34.8047 63.3448 35.5995 63.682 36.5951 63.682ZM55.7938 65.8979H53.2647V58.5757C53.2647 57.7246 53.056 57.1225 52.6385 56.7692C52.2371 56.3999 51.659 56.2152 50.9043 56.2152C50.3101 56.2152 49.7481 56.3678 49.2182 56.6729C48.6883 56.978 48.2548 57.3473 47.9176 57.7808V65.8979H45.3885V49.8323H47.9176V55.8539C48.3511 55.3401 48.9292 54.8985 49.6518 54.5292C50.3904 54.1599 51.1853 53.9752 52.0363 53.9752C54.5413 53.9752 55.7938 55.2036 55.7938 57.6604V65.8979ZM62.5707 66.187C61.5912 66.187 60.8445 65.9301 60.3307 65.4162C59.8329 64.9024 59.584 64.1637 59.584 63.2003V56.4802H57.6571V54.2642H59.584V51.0848H62.1131V54.2642H64.4736V56.4802H62.1131V62.574C62.1131 62.9915 62.2094 63.3287 62.4021 63.5857C62.5948 63.8265 62.8678 63.947 63.2211 63.947C63.7349 63.947 64.1123 63.8105 64.3531 63.5375L64.9553 65.4403C64.4254 65.9381 63.6305 66.187 62.5707 66.187ZM81.1455 65.8979H73.0284V49.8323H80.9287C82.3578 49.8323 83.4738 50.2258 84.2767 51.0126C85.0956 51.7833 85.5051 52.7548 85.5051 53.927C85.5051 54.8905 85.2321 55.7094 84.6862 56.3838C84.1563 57.0422 83.4979 57.4517 82.7111 57.6122C83.5782 57.7407 84.3088 58.1903 84.9029 58.9611C85.5131 59.7158 85.8182 60.5829 85.8182 61.5624C85.8182 62.847 85.4007 63.8908 84.5657 64.6936C83.7468 65.4965 82.6067 65.8979 81.1455 65.8979ZM80.3506 56.4802C81.0572 56.4802 81.6111 56.2875 82.0126 55.9021C82.414 55.5167 82.6147 55.0189 82.6147 54.4088C82.6147 53.7825 82.414 53.2767 82.0126 52.8913C81.6111 52.5059 81.0572 52.3132 80.3506 52.3132H75.8465V56.4802H80.3506ZM80.471 63.4171C81.2418 63.4171 81.844 63.2244 82.2775 62.839C82.7111 62.4375 82.9279 61.8836 82.9279 61.177C82.9279 60.5508 82.7111 60.0289 82.2775 59.6114C81.844 59.1779 81.2418 58.9611 80.471 58.9611H75.8465V63.4171H80.471ZM91.1037 65.8979H88.5746V54.2642H91.1037V55.9744C91.5533 55.3963 92.1153 54.9226 92.7897 54.5533C93.4641 54.1839 94.1626 53.9993 94.8852 53.9993V56.5043C94.6604 56.4561 94.3955 56.432 94.0904 56.432C93.5605 56.432 92.9904 56.5926 92.3802 56.9137C91.7861 57.2188 91.3606 57.5721 91.1037 57.9735V65.8979ZM106.559 65.8979H104.03V64.6455C103.131 65.6731 101.879 66.187 100.273 66.187C99.2131 66.187 98.2737 65.8498 97.4548 65.1754C96.6358 64.4849 96.2264 63.5375 96.2264 62.3332C96.2264 61.0967 96.6278 60.1574 97.4307 59.5151C98.2496 58.8728 99.197 58.5516 100.273 58.5516C101.927 58.5516 103.179 59.0494 104.03 60.045V58.3107C104.03 57.6363 103.781 57.1064 103.284 56.721C102.786 56.3357 102.128 56.143 101.309 56.143C100.008 56.143 98.8598 56.6327 97.8642 57.6122L96.8285 55.8539C98.1452 54.6014 99.7751 53.9752 101.718 53.9752C103.147 53.9752 104.311 54.3124 105.211 54.9868C106.11 55.6612 106.559 56.7291 106.559 58.1903V65.8979ZM101.26 64.4528C102.529 64.4528 103.452 64.0513 104.03 63.2484V61.4901C103.452 60.6873 102.529 60.2858 101.26 60.2858C100.538 60.2858 99.9437 60.4785 99.478 60.8639C99.0123 61.2493 98.7795 61.7551 98.7795 62.3813C98.7795 63.0076 99.0123 63.5134 99.478 63.8988C99.9437 64.2681 100.538 64.4528 101.26 64.4528ZM111.091 52.8431C110.673 52.8431 110.304 52.6906 109.983 52.3855C109.678 52.0804 109.525 51.7111 109.525 51.2775C109.525 50.844 109.678 50.4746 109.983 50.1696C110.304 49.8645 110.673 49.7119 111.091 49.7119C111.524 49.7119 111.894 49.8645 112.199 50.1696C112.504 50.4746 112.656 50.844 112.656 51.2775C112.656 51.7111 112.504 52.0804 112.199 52.3855C111.894 52.6906 111.524 52.8431 111.091 52.8431ZM112.367 65.8979H109.838V54.2642H112.367V65.8979ZM126.029 65.8979H123.5V58.6239C123.5 57.0181 122.722 56.2152 121.164 56.2152C120.554 56.2152 119.984 56.3678 119.454 56.6729C118.924 56.978 118.498 57.3473 118.177 57.7808V65.8979H115.648V54.2642H118.177V55.8539C118.611 55.3401 119.189 54.8985 119.912 54.5292C120.634 54.1599 121.421 53.9752 122.272 53.9752C123.508 53.9752 124.44 54.2963 125.066 54.9387C125.708 55.581 126.029 56.5043 126.029 57.7086V65.8979Z" fill="white"/>
</svg>
