<svg width="151" height="88" viewBox="0 0 151 88" fill="none" xmlns="http://www.w3.org/2000/svg">
<path d="M41.2521 0.887573H63.3996H73.5561H77.6073H82.0625H86.0258H90.2164H94.4218H107.988C108.159 0.955358 108.441 1.02565 108.555 1.17001C112.441 1.66033 114.884 1.94553 118.506 3.71548C118.861 3.88775 119.211 4.06869 119.557 4.25828C119.903 4.44788 120.244 4.64591 120.581 4.85238C120.917 5.05884 121.248 5.27348 121.574 5.49631C121.9 5.71914 122.22 5.94988 122.534 6.18854C122.848 6.42715 123.156 6.67341 123.459 6.92732C123.761 7.18119 124.056 7.44237 124.345 7.71087C124.635 7.97937 124.917 8.25485 125.192 8.53731C125.468 8.81973 125.737 9.10882 125.998 9.40458C126.259 9.7003 126.513 10.0023 126.759 10.3105C127.006 10.6188 127.244 10.933 127.475 11.253C127.706 11.5731 127.929 11.8987 128.144 12.2298C128.359 12.5608 128.565 12.897 128.763 13.2383C128.961 13.5796 129.15 13.9256 129.331 14.2762C129.512 14.6269 129.685 14.9818 129.848 15.341C130.012 15.7001 130.167 16.0631 130.312 16.4299C130.457 16.7967 130.594 17.1669 130.721 17.5405C130.852 17.929 130.974 18.3205 131.086 18.715C131.198 19.1095 131.3 19.5065 131.393 19.906C131.485 20.3055 131.568 20.707 131.641 21.1106C131.714 21.5142 131.776 21.9193 131.829 22.326C131.882 22.7326 131.925 23.1404 131.958 23.5492C131.991 23.9579 132.014 24.3673 132.027 24.7771C132.039 25.187 132.042 25.597 132.035 26.007C132.027 26.417 132.01 26.8266 131.982 27.2358C131.955 27.645 131.917 28.0532 131.869 28.4605C131.822 28.8679 131.764 29.2738 131.697 29.6782C131.629 30.0827 131.552 30.4854 131.465 30.8861C131.377 31.2867 131.28 31.6851 131.174 32.081C131.067 32.4769 130.95 32.87 130.824 33.2602C130.698 33.6504 130.562 34.0372 130.417 34.4208C130.272 34.8043 130.117 35.1841 129.953 35.56C129.79 35.9359 129.617 36.3076 129.435 36.6751C126.695 42.2395 121.502 46.8157 115.624 48.8087C113.495 49.5307 111.155 49.9006 108.914 50.0293C105.045 50.2516 101.077 50.0859 97.2001 50.08L73.3556 49.9732L52.4758 49.8759C48.5031 49.848 44.406 50.0094 40.4543 49.6137C37.761 49.344 35.235 48.5985 32.8076 47.3996C32.4431 47.2229 32.0832 47.0373 31.7278 46.8429C31.3725 46.6485 31.0221 46.4455 30.6767 46.2338C30.3313 46.0222 29.9913 45.8023 29.6567 45.5739C29.322 45.3456 28.9932 45.1093 28.6703 44.8648C28.3473 44.6204 28.0305 44.3681 27.7199 44.1082C27.4092 43.8482 27.1052 43.5807 26.8077 43.3057C26.5102 43.0308 26.2196 42.7488 25.936 42.4596C25.6524 42.1704 25.376 41.8744 25.1069 41.5716C24.8378 41.2688 24.5763 40.9597 24.3223 40.6441C24.0684 40.3285 23.8224 40.0068 23.5843 39.6792C23.3461 39.3514 23.1161 39.0181 22.8944 38.6792C22.6726 38.3402 22.4593 37.996 22.2544 37.6465C22.0495 37.2971 21.8534 36.9429 21.6659 36.5838C21.4784 36.2247 21.2998 35.8612 21.1302 35.4934C20.9606 35.1255 20.8001 34.7538 20.6487 34.378C20.4973 34.0023 20.3552 33.6231 20.2225 33.2404C20.0956 32.8651 19.978 32.4869 19.8696 32.1058C19.7612 31.7248 19.6623 31.3413 19.5727 30.9554C19.4831 30.5695 19.403 30.1816 19.3324 29.7917C19.2617 29.4019 19.2007 29.0106 19.1492 28.6178C19.0977 28.2249 19.0559 27.8311 19.0237 27.4362C18.9915 27.0414 18.969 26.6459 18.9561 26.2499C18.9433 25.854 18.9401 25.458 18.9467 25.0619C18.9532 24.6657 18.9694 24.27 18.9953 23.8747C19.0212 23.4793 19.0567 23.0848 19.1019 22.6912C19.1471 22.2977 19.2018 21.9054 19.2662 21.5145C19.3306 21.1236 19.4045 20.7345 19.4879 20.3472C19.5713 19.9599 19.6642 19.5749 19.7664 19.1921C19.8687 18.8094 19.9803 18.4293 20.1011 18.052C20.222 17.6747 20.352 17.3006 20.4911 16.9297C20.6303 16.5588 20.7784 16.1915 20.9356 15.8278C21.0927 15.4641 21.2586 15.1045 21.4333 14.7489C24.3209 8.92863 29.3779 4.05952 35.6515 2.12361C37.4856 1.55763 39.4961 1.47818 41.2521 0.887573ZM77.0932 3.85095C76.7396 4.68988 76.9353 42.91 76.8401 47.2888C79.47 47.1503 82.1452 47.2493 84.7798 47.258L100.297 47.334C104.759 47.3379 109.319 47.5443 113.684 46.4553C116.737 45.6938 120.301 43.8766 122.437 41.5382C122.526 41.44 122.576 41.333 122.617 41.2069C125.167 39.7491 127.948 33.7811 128.707 30.9811C128.8 30.6459 128.883 30.3087 128.959 29.9694C129.034 29.6301 129.101 29.2891 129.16 28.9464C129.218 28.6038 129.268 28.2599 129.309 27.9148C129.351 27.5696 129.384 27.2237 129.408 26.8769C129.432 26.5301 129.447 26.1829 129.454 25.8354C129.461 25.4879 129.459 25.1404 129.448 24.7929C129.438 24.4455 129.419 24.0985 129.391 23.752C129.363 23.4055 129.327 23.0599 129.281 22.7152C129.237 22.3706 129.183 22.0272 129.121 21.6852C129.059 21.3432 128.988 21.0029 128.909 20.6645C128.83 20.3259 128.743 19.9896 128.647 19.6555C128.551 19.3214 128.447 18.9898 128.335 18.6609C128.223 18.3319 128.102 18.0059 127.973 17.683C127.845 17.36 127.709 17.0405 127.564 16.7243C127.419 16.4082 127.267 16.0958 127.107 15.7872C126.947 15.4786 126.779 15.1742 126.604 14.874C123.766 9.93487 118.888 6.06172 113.371 4.58079C110.002 3.6766 106.435 3.84405 102.977 3.81608L92.8632 3.76825C87.6412 3.75135 82.2993 3.50541 77.0932 3.85095ZM51.6681 11.5902C49.2979 11.8202 47.3986 12.4919 45.833 14.3895C44.515 15.987 43.8509 18.3095 44.0577 20.3651C44.2488 22.2654 45.1123 23.7009 46.5421 24.9236C44.5591 26.3718 43.2708 27.5665 42.8703 30.1177C42.5117 32.4026 42.9522 35.0085 44.3329 36.8998C45.5796 38.6076 47.3851 39.4862 49.4433 39.801C50.5741 39.974 51.7528 39.9877 52.8957 39.9714C56.6154 39.969 60.3424 39.916 64.061 39.967C63.7395 35.8513 63.9863 31.5511 63.9873 27.4157C63.9878 22.1258 63.8021 16.7651 64.0094 11.4828C61.2011 11.6041 58.3692 11.5149 55.5582 11.5086C54.2996 11.5058 52.9104 11.4104 51.6681 11.5902ZM90.2164 0.887573L90.2285 0.985493C90.9831 1.00587 93.6104 0.782832 94.055 1.13944C96.7217 1.17928 100.997 1.41153 103.524 1.15053C105.124 1.18645 106.965 1.34846 108.555 1.17001C108.441 1.02565 108.159 0.955358 107.988 0.887573H94.4218H90.2164ZM82.0625 0.887573L82.0657 1.03231C82.9934 1.08697 85.1929 0.832539 85.898 1.13758C88.5526 1.15753 91.4235 1.39791 94.055 1.13944C93.6104 0.782832 90.9831 1.00587 90.2285 0.985493L90.2164 0.887573H86.0258H82.0625ZM73.5561 0.887573L73.5677 1.04692C76.5414 1.11696 79.5152 1.16406 82.4893 1.18824C83.5548 1.19389 84.8582 1.32795 85.898 1.13758C85.1929 0.832539 82.9934 1.08697 82.0657 1.03231L82.0625 0.887573H77.6073H73.5561ZM63.3996 0.887573C64.8345 1.25738 71.6487 1.07948 73.5677 1.04692L73.5561 0.887573H63.3996Z" fill="#0739A6"/>
<path d="M63.3994 0.887573H73.556L73.5676 1.04692C71.6485 1.07948 64.8343 1.25738 63.3994 0.887573Z" fill="#2165B0" fill-opacity="0.835294"/>
<path d="M73.5557 0.887573H77.6068H82.0621L82.0652 1.03231C82.9929 1.08697 85.1924 0.832539 85.8975 1.13758C84.8578 1.32795 83.5544 1.19389 82.4888 1.18824C79.5148 1.16407 76.5409 1.11696 73.5672 1.04692L73.5557 0.887573ZM77.6068 0.887573C79.0012 1.20702 80.6372 1.05314 82.0652 1.03231L82.0621 0.887573H77.6068Z" fill="#2165B0" fill-opacity="0.690196"/>
<path d="M77.6074 0.887573H82.0627L82.0659 1.03231C80.6378 1.05314 79.0018 1.20702 77.6074 0.887573Z" fill="#2165B0" fill-opacity="0.458824"/>
<path d="M82.0625 0.887573H86.0258H90.2164L90.2285 0.985493C90.983 1.00587 93.6103 0.782832 94.055 1.13944C91.4235 1.39791 88.5526 1.15753 85.8979 1.13758C85.1928 0.832539 82.9933 1.08697 82.0657 1.03231L82.0625 0.887573ZM86.0258 0.887573C87.3439 1.15167 88.8767 0.984806 90.2285 0.985493L90.2164 0.887573H86.0258Z" fill="#2165B0" fill-opacity="0.360784"/>
<path d="M86.0254 0.887573H90.216L90.2281 0.985493C88.8763 0.984806 87.3435 1.15167 86.0254 0.887573Z" fill="#2165B0" fill-opacity="0.266667"/>
<path d="M90.2168 0.887573H94.4221H107.988C108.159 0.955358 108.441 1.02565 108.556 1.17001C106.965 1.34846 105.124 1.18645 103.524 1.15053C100.997 1.41153 96.7221 1.17928 94.0554 1.13944C93.6107 0.782832 90.9835 1.00587 90.2289 0.985493L90.2168 0.887573ZM94.4221 0.887573C95.7518 1.08546 103.062 0.728859 103.524 1.15053C105.124 1.18645 106.965 1.34846 108.556 1.17001C108.441 1.02565 108.159 0.955358 107.988 0.887573H94.4221Z" fill="#2165B0" fill-opacity="0.196078"/>
<path d="M94.4219 0.887573H107.988C108.159 0.955358 108.441 1.02565 108.555 1.17001C106.965 1.34846 105.124 1.18645 103.524 1.15053C103.062 0.728859 95.7516 1.08546 94.4219 0.887573Z" fill="#2165B0" fill-opacity="0.0901961"/>
<path d="M53.1004 16.4734C54.9025 16.4864 56.7042 16.4664 58.5055 16.4134C58.6228 18.5048 58.5718 20.6113 58.5676 22.7054C57.4736 22.6166 56.3471 22.66 55.2489 22.6569C53.6356 22.6747 51.6018 22.9189 50.29 21.7829C49.7733 21.3354 49.486 20.7099 49.4487 20.0317C49.3992 19.1439 49.6965 18.2324 50.2932 17.5694C51.1056 16.6672 51.9307 16.5313 53.1004 16.4734Z" fill="#0739A6"/>
<path d="M51.5407 27.6374C53.8517 27.5289 56.1965 27.6028 58.5117 27.6008C58.6333 30.061 58.5727 32.5412 58.5669 35.0046C57.4693 34.8591 56.3538 34.8911 55.2493 34.8883C53.4387 34.8929 51.115 35.288 49.5712 34.1628C48.8108 33.6086 48.3445 32.7768 48.2044 31.8525C48.0584 30.8887 48.2546 29.8105 48.8484 29.0227C49.5722 28.0622 50.3915 27.8066 51.5407 27.6374Z" fill="#0739A6"/>
<path d="M88.1596 11.6066C89.3204 11.325 98.895 11.4464 100.518 11.5767C101.37 11.6451 102.227 11.7919 103.037 12.069C104.896 12.7051 106.451 14.0072 107.317 15.7797C108.231 17.6519 108.441 20.1196 107.75 22.0949C107.325 23.3111 106.592 24.3921 105.407 24.9569C106.365 25.3462 107.152 25.8991 107.815 26.6973C109.219 28.3903 109.645 30.5419 109.429 32.6916C109.316 33.8293 108.923 35.7141 107.991 36.4723C107.986 36.9489 107.47 37.5054 107.139 37.8338C106.155 38.8092 104.668 39.4145 103.329 39.6913C101.206 40.1301 98.9182 39.9722 96.7587 39.972L88.0312 39.9633C88.0407 39.9424 88.0497 39.9212 88.0602 39.9007C88.1696 39.6835 88.2181 39.535 88.2233 39.2897C88.3628 32.9212 88.207 26.5142 88.2086 20.1418C88.2091 18.169 88.4848 13.2139 88.1596 11.6066ZM93.611 27.657C93.7336 28.7365 93.8846 34.1695 93.4431 34.8919C95.4921 34.8386 101.419 35.4188 102.755 34.0107C102.809 33.9532 102.825 33.9159 102.843 33.8405C103.502 33.357 103.84 32.7321 103.965 31.9271C104.116 30.9551 104.009 29.8509 103.402 29.0436C102.778 28.2127 101.78 27.8308 100.779 27.6975C98.4351 27.3855 95.9736 27.7246 93.611 27.657ZM93.7415 16.4758C93.4658 17.999 94.0762 21.332 93.4805 22.4881C93.4558 22.5363 93.4342 22.5826 93.4068 22.6299C95.0522 22.6188 100.497 23.0559 101.563 21.9911C101.641 21.9137 101.709 21.8301 101.776 21.7438C102.295 21.3789 102.629 20.7819 102.743 20.1607C102.887 19.3657 102.635 18.5558 102.174 17.9056C102.111 17.8166 102.043 17.7308 101.972 17.6481C101.9 17.5655 101.825 17.4865 101.746 17.411C101.667 17.3356 101.585 17.264 101.499 17.1964C101.413 17.1287 101.324 17.0653 101.233 17.0061C101.141 16.9469 101.047 16.8921 100.95 16.8419C100.853 16.7916 100.753 16.7461 100.652 16.7053C100.551 16.6644 100.448 16.6285 100.343 16.5974C100.239 16.5663 100.133 16.5403 100.025 16.5194C98.5298 16.2395 95.5237 16.5709 93.7415 16.4758Z" fill="#0739A6"/>
<path d="M11.5931 78.4545H2.01742V59.5021H11.3373C13.0233 59.5021 14.3398 59.9662 15.2869 60.8944C16.253 61.8036 16.7361 62.9497 16.7361 64.3325C16.7361 65.4691 16.414 66.4352 15.77 67.2308C15.1449 68.0074 14.3682 68.4905 13.44 68.6799C14.4629 68.8315 15.3248 69.3619 16.0257 70.2711C16.7455 71.1614 17.1055 72.1844 17.1055 73.3399C17.1055 74.8553 16.6129 76.0866 15.6279 77.0337C14.6618 77.9809 13.3169 78.4545 11.5931 78.4545ZM10.6554 67.3444C11.4889 67.3444 12.1424 67.1171 12.616 66.6625C13.0896 66.2079 13.3263 65.6206 13.3263 64.9008C13.3263 64.162 13.0896 63.5653 12.616 63.1107C12.1424 62.6561 11.4889 62.4288 10.6554 62.4288H5.3419V67.3444H10.6554ZM10.7975 75.5278C11.7067 75.5278 12.4171 75.3005 12.9285 74.8458C13.44 74.3723 13.6957 73.7187 13.6957 72.8852C13.6957 72.1465 13.44 71.5308 12.9285 71.0383C12.4171 70.5269 11.7067 70.2711 10.7975 70.2711H5.3419V75.5278H10.7975ZM23.3406 78.4545H20.3571V64.7303H23.3406V66.7477C23.871 66.0658 24.534 65.507 25.3296 65.0713C26.1253 64.6356 26.9493 64.4178 27.8017 64.4178V67.3729C27.5365 67.316 27.2239 67.2876 26.864 67.2876C26.2389 67.2876 25.5664 67.477 24.8466 67.8559C24.1457 68.2158 23.6437 68.6326 23.3406 69.1061V78.4545ZM31.6854 63.0539C31.1929 63.0539 30.7572 62.8739 30.3783 62.514C30.0184 62.1541 29.8384 61.7184 29.8384 61.2069C29.8384 60.6955 30.0184 60.2598 30.3783 59.8999C30.7572 59.54 31.1929 59.36 31.6854 59.36C32.1968 59.36 32.6325 59.54 32.9924 59.8999C33.3523 60.2598 33.5323 60.6955 33.5323 61.2069C33.5323 61.7184 33.3523 62.1541 32.9924 62.514C32.6325 62.8739 32.1968 63.0539 31.6854 63.0539ZM33.1913 78.4545H30.2078V64.7303H33.1913V78.4545ZM42.6309 84.0237C40.3009 84.0237 38.3877 83.3417 36.8912 81.9779L38.2835 79.8184C39.3064 80.9928 40.7556 81.5801 42.6309 81.5801C43.7675 81.5801 44.7241 81.277 45.5008 80.6708C46.2964 80.0836 46.6942 79.1459 46.6942 77.8578V76.2097C45.5197 77.7252 44.0516 78.4829 42.2899 78.4829C40.4904 78.4829 39.0223 77.8578 37.8857 76.6075C36.7681 75.3573 36.2093 73.6335 36.2093 71.4361C36.2093 69.2577 36.7681 67.5433 37.8857 66.2931C39.0223 65.0239 40.4904 64.3893 42.2899 64.3893C44.0895 64.3893 45.5576 65.1376 46.6942 66.6341V64.7303H49.6777V77.7441C49.6777 78.9186 49.4693 79.932 49.0526 80.7844C48.6548 81.6558 48.1054 82.3094 47.4045 82.745C46.7036 83.1997 45.9554 83.5217 45.1598 83.7111C44.3831 83.9195 43.5402 84.0237 42.6309 84.0237ZM43.1708 75.8403C43.8527 75.8403 44.5252 75.6604 45.1882 75.3005C45.8512 74.9406 46.3532 74.5049 46.6942 73.9934V68.8788C46.3532 68.3674 45.8512 67.9317 45.1882 67.5718C44.5252 67.2118 43.8527 67.0319 43.1708 67.0319C41.9963 67.0319 41.0586 67.4392 40.3578 68.2537C39.6569 69.0493 39.3064 70.1101 39.3064 71.4361C39.3064 72.7621 39.6569 73.8324 40.3578 74.6469C41.0586 75.4425 41.9963 75.8403 43.1708 75.8403ZM65.8193 78.4545H62.8358V69.8165C62.8358 68.8125 62.5895 68.1022 62.097 67.6854C61.6234 67.2497 60.9415 67.0319 60.0511 67.0319C59.3503 67.0319 58.6873 67.2118 58.0621 67.5718C57.437 67.9317 56.9256 68.3674 56.5278 68.8788V78.4545H53.5442V59.5021H56.5278V66.6057C57.0392 65.9995 57.7212 65.4786 58.5736 65.0429C59.445 64.6072 60.3826 64.3893 61.3866 64.3893C64.3417 64.3893 65.8193 65.8385 65.8193 68.7367V78.4545ZM73.8139 78.7954C72.6584 78.7954 71.7776 78.4924 71.1714 77.8862C70.5842 77.28 70.2905 76.4086 70.2905 75.2721V67.3444H68.0174V64.7303H70.2905V60.9796H73.274V64.7303H76.0587V67.3444H73.274V74.5333C73.274 75.0258 73.3877 75.4236 73.615 75.7267C73.8423 76.0108 74.1644 76.1529 74.5811 76.1529C75.1873 76.1529 75.6324 75.9919 75.9166 75.6699L76.6269 77.9146C76.0018 78.5018 75.0642 78.7954 73.8139 78.7954ZM95.7263 78.4545H86.1506V59.5021H95.4706C97.1565 59.5021 98.473 59.9662 99.4202 60.8944C100.386 61.8036 100.869 62.9497 100.869 64.3325C100.869 65.4691 100.547 66.4352 99.9032 67.2308C99.2781 68.0074 98.5014 68.4905 97.5732 68.6799C98.5961 68.8315 99.4581 69.3619 100.159 70.2711C100.879 71.1614 101.239 72.1844 101.239 73.3399C101.239 74.8553 100.746 76.0866 99.7611 77.0337C98.795 77.9809 97.4501 78.4545 95.7263 78.4545ZM94.7886 67.3444C95.6221 67.3444 96.2756 67.1171 96.7492 66.6625C97.2228 66.2079 97.4596 65.6206 97.4596 64.9008C97.4596 64.162 97.2228 63.5653 96.7492 63.1107C96.2756 62.6561 95.6221 62.4288 94.7886 62.4288H89.4751V67.3444H94.7886ZM94.9307 75.5278C95.84 75.5278 96.5503 75.3005 97.0618 74.8458C97.5732 74.3723 97.829 73.7187 97.829 72.8852C97.829 72.1465 97.5732 71.5308 97.0618 71.0383C96.5503 70.5269 95.84 70.2711 94.9307 70.2711H89.4751V75.5278H94.9307ZM107.474 78.4545H104.49V64.7303H107.474V66.7477C108.004 66.0658 108.667 65.507 109.463 65.0713C110.258 64.6356 111.082 64.4178 111.935 64.4178V67.3729C111.67 67.316 111.357 67.2876 110.997 67.2876C110.372 67.2876 109.7 67.477 108.98 67.8559C108.279 68.2158 107.777 68.6326 107.474 69.1061V78.4545ZM125.707 78.4545H122.723V76.9769C121.662 78.1893 120.185 78.7954 118.291 78.7954C117.04 78.7954 115.932 78.3976 114.966 77.602C114 76.7875 113.517 75.6699 113.517 74.2491C113.517 72.7905 113.991 71.6824 114.938 70.9247C115.904 70.1669 117.021 69.7881 118.291 69.7881C120.242 69.7881 121.719 70.3753 122.723 71.5498V69.5039C122.723 68.7083 122.43 68.0832 121.842 67.6286C121.255 67.174 120.479 66.9466 119.512 66.9466C117.978 66.9466 116.624 67.5244 115.449 68.6799L114.227 66.6057C115.781 65.1281 117.703 64.3893 119.996 64.3893C121.681 64.3893 123.055 64.7871 124.116 65.5828C125.176 66.3784 125.707 67.6381 125.707 69.3619V78.4545ZM119.456 76.7496C120.952 76.7496 122.041 76.276 122.723 75.3289V73.2546C122.041 72.3075 120.952 71.8339 119.456 71.8339C118.603 71.8339 117.902 72.0612 117.353 72.5159C116.804 72.9705 116.529 73.5672 116.529 74.306C116.529 75.0447 116.804 75.6414 117.353 76.0961C117.902 76.5318 118.603 76.7496 119.456 76.7496ZM131.052 63.0539C130.56 63.0539 130.124 62.8739 129.745 62.514C129.386 62.1541 129.206 61.7184 129.206 61.2069C129.206 60.6955 129.386 60.2598 129.745 59.8999C130.124 59.54 130.56 59.36 131.052 59.36C131.564 59.36 132 59.54 132.36 59.8999C132.719 60.2598 132.899 60.6955 132.899 61.2069C132.899 61.7184 132.719 62.1541 132.36 62.514C132 62.8739 131.564 63.0539 131.052 63.0539ZM132.558 78.4545H129.575V64.7303H132.558V78.4545ZM148.675 78.4545H145.692V69.8733C145.692 67.979 144.773 67.0319 142.936 67.0319C142.216 67.0319 141.543 67.2118 140.918 67.5718C140.293 67.9317 139.791 68.3674 139.412 68.8788V78.4545H136.429V64.7303H139.412V66.6057C139.924 65.9995 140.606 65.4786 141.458 65.0429C142.311 64.6072 143.239 64.3893 144.243 64.3893C145.701 64.3893 146.8 64.7682 147.539 65.5259C148.297 66.2836 148.675 67.3729 148.675 68.7936V78.4545Z" fill="#0739A6"/>
</svg>
