<svg width="164" height="15" viewBox="0 0 164 15" fill="none" xmlns="http://www.w3.org/2000/svg">
<mask id="mask0_179_777" style="mask-type:luminance" maskUnits="userSpaceOnUse" x="0" y="0" width="164" height="15">
<path d="M164 0H0V15H164V0Z" fill="white"/>
</mask>
<g mask="url(#mask0_179_777)">
<path fill-rule="evenodd" clip-rule="evenodd" d="M32.3663 0.42969C30.2901 1.14453 29.6899 1.92854 29.6128 4.64954C29.5742 6.13686 29.4862 10.5527 29.723 11.7922C30.4333 15.3318 36.7278 15.4528 39.8888 14.4728C41.9208 13.8387 42.3173 12.9393 42.3558 10.3163C42.3944 8.37939 42.3558 6.64415 42.3944 5.18566C42.3944 2.30326 41.7721 0.533456 38.7708 0.181803C36.8819 -0.0545551 34.0404 -0.141027 32.3608 0.42969H32.3663ZM39.9217 10.9216V4.41894C39.9713 2.5915 37.372 2.82785 36.0669 2.82785C34.6351 2.82785 32.135 2.6722 32.135 4.41894V10.9216C32.135 11.8325 33.2363 12.1726 34.4864 12.2648C35.6328 12.3067 36.7806 12.272 37.9228 12.1611C39.0902 12.0689 39.8502 11.7288 39.8997 10.9102L39.9217 10.9216Z" fill="#EC2327"/>
<path fill-rule="evenodd" clip-rule="evenodd" d="M16.6925 0.0590363C19.7324 0.0590363 23.1502 -0.158351 25.0286 0.241172C26.907 0.640694 27.8907 1.87451 27.8907 4.3539C27.8907 8.46665 26.6458 9.64167 23.8838 9.94135C23.8043 9.94774 23.7244 9.94774 23.6448 9.94135C22.0109 10.0882 19.8547 9.94135 17.126 9.94135V13.6252C17.126 13.9898 16.989 14.3395 16.7452 14.5973C16.5012 14.8552 16.1705 15 15.8256 15C15.4807 15 15.1499 14.8552 14.906 14.5973C14.6622 14.3395 14.5252 13.9898 14.5252 13.6252V11.275C14.4751 9.5477 14.5252 7.50307 14.5252 5.79336C14.5252 4.40091 14.5752 2.90857 14.5252 1.51612C14.5023 1.3556 14.5096 1.1919 14.5467 1.03439C14.5838 0.876874 14.65 0.728654 14.7414 0.598207C14.8327 0.467763 14.9476 0.357663 15.0792 0.274216C15.2109 0.190769 15.357 0.135615 15.5088 0.111914C15.8989 0.0527897 16.2936 0.0350753 16.687 0.0590363H16.6925ZM23.7004 2.83219H17.1316V7.22693H22.9112C24.5785 7.22693 25.4343 7.10941 25.5065 5.10007C25.5788 3.0907 25.0175 2.87332 23.7004 2.83219Z" fill="#EC2327"/>
<path d="M12.8298 13.6184V7.836V5.2673C12.8408 2.33924 12.193 0.542343 9.18999 0.182964C7.30702 -0.0468028 4.45227 -0.152849 2.76689 0.436297C0.702702 1.15505 0.0988176 1.9504 0.0219594 4.71939C0.0219594 5.78574 -0.0274493 8.33087 0.0219594 10.1808V13.6037C0.0226788 13.7847 0.0566194 13.9639 0.121844 14.1308C0.187067 14.2978 0.282297 14.4494 0.402096 14.5768C0.521895 14.7043 0.663916 14.8052 0.82005 14.8737C0.976185 14.9423 1.14338 14.9772 1.31208 14.9764C1.65234 14.9765 1.97884 14.8322 2.22047 14.5751C2.46209 14.318 2.5993 13.9688 2.60219 13.6037V8.04809V7.94204V4.48373C2.60219 2.7104 5.11105 2.86947 6.5494 2.86947C7.82854 2.86947 10.3594 2.63381 10.3099 4.48373V12.6257V13.6273C10.3107 13.8083 10.3446 13.9874 10.4098 14.1544C10.4751 14.3213 10.5703 14.4729 10.6901 14.6003C10.8099 14.7278 10.9519 14.8287 11.108 14.8973C11.2641 14.9659 11.4314 15.0008 11.6001 15C11.9393 15 12.2647 14.8553 12.5046 14.5979C12.7444 14.3405 12.8298 13.9825 12.8298 13.6184Z" fill="#EC2327"/>
<path fill-rule="evenodd" clip-rule="evenodd" d="M44.0684 13.6235C44.0698 13.2558 44.2074 12.9035 44.4512 12.6435C44.6949 12.3835 45.0251 12.2367 45.3699 12.2352H46.2339L51.8664 0.750633C51.9882 0.50414 52.1758 0.301787 52.4056 0.169257C52.6353 0.0367277 52.8969 -0.0200035 53.1569 0.00626351C53.4145 -0.0187533 53.6733 0.0386978 53.9002 0.171282C54.1271 0.303865 54.3118 0.505566 54.4307 0.750633L60.0633 12.2352H60.6172C60.9619 12.2367 61.2921 12.3835 61.5359 12.6435C61.7796 12.9035 61.9172 13.2558 61.9187 13.6235C61.9179 13.805 61.8837 13.9846 61.8179 14.152C61.7521 14.3195 61.656 14.4715 61.5352 14.5993C61.4143 14.7271 61.271 14.8283 61.1135 14.897C60.956 14.9658 60.7873 15.0008 60.6172 15H45.3699C45.1996 15.0008 45.031 14.9658 44.8735 14.897C44.716 14.8283 44.5727 14.7271 44.4518 14.5993C44.3309 14.4715 44.2349 14.3195 44.1691 14.152C44.1033 13.9846 44.0691 13.805 44.0684 13.6235ZM53.1569 4.1062L49.1637 12.2352H57.1335L53.1569 4.1062Z" fill="#117DC1"/>
<path fill-rule="evenodd" clip-rule="evenodd" d="M79.5313 0.0523373C79.7187 0.0531067 79.9048 0.0894059 80.0776 0.159162C80.251 0.228919 80.4081 0.330767 80.5399 0.45889C80.6724 0.587014 80.7771 0.738906 80.8484 0.905889C80.919 1.07287 80.9556 1.25168 80.9543 1.4321V5.48333L88.6586 0.251963C88.9695 0.0430888 89.353 -0.0406705 89.7277 0.0185665C90.1018 0.0778037 90.4373 0.275343 90.6625 0.569017C90.771 0.717333 90.8486 0.884876 90.8902 1.06203C90.9319 1.23919 90.9363 1.42248 90.9041 1.6014C90.8719 1.78032 90.8032 1.95133 90.7016 2.10464C90.6007 2.25796 90.4689 2.39055 90.3143 2.49482L82.9829 7.4972L90.3143 12.4996C90.6253 12.7112 90.8366 13.0326 90.9016 13.3934C90.9672 13.7543 90.8808 14.1254 90.6625 14.4254C90.438 14.7197 90.1037 14.9186 89.7296 14.98C89.3556 15.0413 88.9714 14.9603 88.6586 14.7542L80.9543 9.51698V13.6269C80.9543 13.8063 80.9178 13.9839 80.8459 14.1496C80.7746 14.3152 80.6692 14.4656 80.5374 14.5922C80.405 14.7187 80.2479 14.819 80.0757 14.887C79.9029 14.9552 79.718 14.9898 79.5313 14.989C79.1535 14.9891 78.7908 14.8462 78.5221 14.5912C78.2534 14.3362 78.1001 13.9898 78.0957 13.6269V1.4321C78.0989 1.06712 78.2509 0.717946 78.5196 0.459852C78.7883 0.201758 79.1516 0.0554046 79.5313 0.0523373Z" fill="#117DC1"/>
<path fill-rule="evenodd" clip-rule="evenodd" d="M100.398 2.76378V13.6299C100.395 13.9934 100.249 14.3409 99.9906 14.5973C99.7326 14.8538 99.3838 14.9984 99.0192 15C98.8388 15.0008 98.6591 14.9659 98.4919 14.8974C98.3248 14.8289 98.1727 14.7281 98.0447 14.6008C97.9166 14.4735 97.8151 14.3222 97.7457 14.1556C97.6763 13.989 97.6404 13.8103 97.6404 13.6299V2.76378H93.9895C93.6224 2.76379 93.2704 2.6192 93.0099 2.36149C92.7494 2.10378 92.6018 1.75381 92.5986 1.38779C92.6018 1.02068 92.7488 0.669483 93.0093 0.409885C93.2691 0.15029 93.6211 0.00308513 93.9895 0H104.05C104.231 0.00077387 104.411 0.0372842 104.579 0.107446C104.747 0.177609 104.899 0.280049 105.027 0.408918C105.155 0.537787 105.256 0.690561 105.325 0.858515C105.394 1.02647 105.429 1.20632 105.428 1.38779C105.428 1.75273 105.283 2.10271 105.025 2.36076C104.766 2.61881 104.415 2.76378 104.05 2.76378H100.398Z" fill="#117DC1"/>
<path fill-rule="evenodd" clip-rule="evenodd" d="M153.95 6.02357H159.203C161.058 6.02357 161.762 6.0884 161.762 4.4499C161.762 3.27112 161.337 2.77013 159.203 2.77013H153.95V6.02357ZM153.95 12.2416H160.574C161.531 12.0295 161.762 11.5343 161.762 10.6679C161.762 9.02948 161.058 9.10017 159.203 9.10017H153.95V12.2534V12.2416ZM160.698 15C157.95 15 155.181 15 152.433 15C152.101 15.0016 151.781 14.8585 151.544 14.6023C151.307 14.346 151.173 13.9973 151.17 13.6326V1.38507C151.171 1.01922 151.304 0.6687 151.54 0.409452C151.775 0.150203 152.095 0.00309723 152.428 0C154.762 0 157.203 0 159.499 0C161.795 0 163.993 0.972496 163.993 3.90177C164.03 4.85808 163.912 5.81395 163.644 6.72496C163.587 6.88304 163.517 7.035 163.434 7.1788C163.37 7.31022 163.342 7.45917 163.354 7.60767C163.365 7.75624 163.416 7.89789 163.499 8.01574C163.568 8.16691 163.629 8.32239 163.681 8.48133C163.919 9.3585 164.024 10.2723 163.993 11.1866C163.975 12.157 163.626 13.0849 163.015 13.7874C162.405 14.4899 161.576 14.9163 160.692 14.9823L160.698 15Z" fill="#117DC1"/>
<path fill-rule="evenodd" clip-rule="evenodd" d="M66.3935 0.42969C64.3176 1.14453 63.7171 1.92854 63.6401 4.64954C63.6017 6.13686 63.5134 10.5527 63.7505 11.7922C64.4608 15.3318 70.7609 15.4528 73.9217 14.4728C75.9483 13.8387 76.3445 12.9393 76.3829 10.3163C76.4221 8.37939 76.3829 6.64415 76.422 5.18566C76.422 2.30326 75.7995 0.533456 72.7983 0.181803C70.9091 -0.0545551 68.0675 -0.141027 66.3884 0.42969H66.3935ZM73.9494 10.9216V4.41894C73.9986 2.5915 71.3992 2.82785 70.0942 2.82785C68.6623 2.82785 66.1626 2.6722 66.1626 4.41894V10.9216C66.1626 11.8325 67.2639 12.1726 68.5141 12.2648C69.6602 12.3064 70.8082 12.2718 71.9499 12.1611C73.1174 12.0689 73.8775 11.7288 73.9274 10.9102L73.9494 10.9216Z" fill="#117DC1"/>
<path fill-rule="evenodd" clip-rule="evenodd" d="M109.905 0.42969C107.836 1.14453 107.223 1.92854 107.146 4.64954C107.108 6.13686 107.025 10.5527 107.273 11.7922C107.968 15.3318 114.292 15.4528 117.448 14.4728C119.478 13.8387 119.881 12.9393 119.931 10.3163C119.931 8.37939 119.931 6.64415 119.931 5.18566C119.958 2.30326 119.307 0.533456 116.306 0.181803C114.419 -0.0545551 111.577 -0.141027 109.883 0.42969H109.905ZM117.465 10.9216V4.41894C117.514 2.5915 114.904 2.82785 113.602 2.82785C112.173 2.82785 109.663 2.6722 109.663 4.41894V10.9216C109.663 11.8325 110.766 12.1726 112.035 12.2648C113.178 12.3065 114.323 12.2718 115.461 12.1611C116.637 12.0689 117.393 11.7288 117.448 10.9102L117.465 10.9216Z" fill="#117DC1"/>
<path fill-rule="evenodd" clip-rule="evenodd" d="M139.465 0.42969C137.383 1.14453 136.787 1.92854 136.71 4.64954C136.678 6.13686 136.589 10.5527 136.827 11.7922C137.537 15.3318 143.834 15.4528 146.996 14.4728C149.029 13.8387 149.426 12.9393 149.464 10.3163C149.497 8.37939 149.464 6.64415 149.497 5.18566C149.497 2.30326 148.874 0.533456 145.877 0.181803C143.983 -0.0545551 141.145 -0.141027 139.465 0.42969ZM147.046 10.9216V4.41894C147.095 2.5915 144.489 2.82785 143.189 2.82785C141.757 2.82785 139.25 2.6722 139.25 4.41894V10.9216C139.25 11.8325 140.352 12.1726 141.608 12.2648C142.753 12.3067 143.899 12.272 145.04 12.1611C146.214 12.0689 146.974 11.7288 147.024 10.9102L147.046 10.9216Z" fill="#117DC1"/>
<path fill-rule="evenodd" clip-rule="evenodd" d="M123.967 0.0442268C127.014 0.0442268 130.241 -0.143903 132.117 0.255858C133.994 0.655617 134.993 1.89018 134.993 4.37105C134.993 8.48622 133.749 9.66202 130.99 9.9677C130.911 9.97376 130.831 9.97376 130.751 9.9677C129.086 10.1147 126.949 9.99711 124.239 9.99711V13.6244C124.239 13.9892 124.102 14.3391 123.859 14.5971C123.616 14.8551 123.285 15 122.941 15C122.596 15 122.266 14.8551 122.022 14.5971C121.778 14.3391 121.641 13.9892 121.641 13.6244V11.2728C121.581 9.54444 121.608 7.49857 121.641 5.78197C121.641 4.38869 121.68 2.90134 121.641 1.50805C121.595 1.183 121.673 0.851824 121.857 0.587278C122.041 0.32273 122.317 0.14644 122.624 0.0971295C123.01 0.0411403 123.4 0.0234191 123.79 0.0442118L123.967 0.0442268ZM130.763 2.84255H124.234V7.23991H129.996C131.662 7.23991 132.528 7.12233 132.606 5.11766C132.683 3.11298 132.112 2.8837 130.757 2.84255H130.763Z" fill="#117DC1"/>
</g>
</svg>
