<svg xmlns="http://www.w3.org/2000/svg" version="1.1" xmlns:xlink="http://www.w3.org/1999/xlink" xmlns:svgjs="http://svgjs.dev/svgjs" width="1000" height="1000"><g clip-path="url(#SvgjsClipPath1098)"><rect width="1000" height="1000" fill="#ffffff"></rect><g transform="matrix(7.826086956521739,0,0,7.826086956521739,50,300.4347826086956)"><svg xmlns="http://www.w3.org/2000/svg" version="1.1" xmlns:xlink="http://www.w3.org/1999/xlink" xmlns:svgjs="http://svgjs.dev/svgjs" width="115" height="51"><svg width="115" height="51" viewBox="0 0 115 51" fill="none" xmlns="http://www.w3.org/2000/svg">
<path d="M23.2521 0.887573H45.3996H55.5561H59.6073H64.0625H68.0258H72.2164H76.4218H89.988C90.159 0.955358 90.441 1.02565 90.555 1.17001C94.441 1.66033 96.884 1.94553 100.506 3.71548C100.861 3.88775 101.211 4.06869 101.557 4.25828C101.903 4.44788 102.244 4.64591 102.581 4.85238C102.917 5.05884 103.248 5.27348 103.574 5.49631C103.9 5.71914 104.22 5.94988 104.534 6.18854C104.848 6.42715 105.156 6.67341 105.459 6.92732C105.761 7.18119 106.056 7.44237 106.345 7.71087C106.635 7.97937 106.917 8.25485 107.192 8.53731C107.468 8.81973 107.737 9.10882 107.998 9.40458C108.259 9.7003 108.513 10.0023 108.759 10.3105C109.006 10.6188 109.244 10.933 109.475 11.253C109.706 11.5731 109.929 11.8987 110.144 12.2298C110.359 12.5608 110.565 12.897 110.763 13.2383C110.961 13.5796 111.15 13.9256 111.331 14.2762C111.512 14.6269 111.685 14.9818 111.848 15.341C112.012 15.7001 112.167 16.0631 112.312 16.4299C112.457 16.7967 112.594 17.1669 112.721 17.5405C112.852 17.929 112.974 18.3205 113.086 18.715C113.198 19.1095 113.3 19.5065 113.393 19.906C113.485 20.3055 113.568 20.707 113.641 21.1106C113.714 21.5142 113.776 21.9193 113.829 22.326C113.882 22.7326 113.925 23.1404 113.958 23.5492C113.991 23.9579 114.014 24.3673 114.027 24.7771C114.039 25.187 114.042 25.597 114.035 26.007C114.027 26.417 114.01 26.8266 113.982 27.2358C113.955 27.645 113.917 28.0532 113.869 28.4605C113.822 28.8679 113.764 29.2738 113.697 29.6782C113.629 30.0827 113.552 30.4854 113.465 30.8861C113.377 31.2867 113.28 31.6851 113.174 32.081C113.067 32.4769 112.95 32.87 112.824 33.2602C112.698 33.6504 112.562 34.0372 112.417 34.4208C112.272 34.8043 112.117 35.1841 111.953 35.56C111.79 35.9359 111.617 36.3076 111.435 36.6751C108.695 42.2395 103.502 46.8157 97.624 48.8087C95.495 49.5307 93.155 49.9006 90.914 50.0293C87.045 50.2516 83.077 50.0859 79.2001 50.08L55.3556 49.9732L34.4758 49.8759C30.5031 49.848 26.406 50.0094 22.4543 49.6137C19.761 49.344 17.235 48.5985 14.8076 47.3996C14.4431 47.2229 14.0832 47.0373 13.7278 46.8429C13.3725 46.6485 13.0221 46.4455 12.6767 46.2338C12.3313 46.0222 11.9913 45.8023 11.6567 45.5739C11.322 45.3456 10.9932 45.1093 10.6703 44.8648C10.3473 44.6204 10.0305 44.3681 9.7199 44.1082C9.4092 43.8482 9.1052 43.5807 8.8077 43.3057C8.5102 43.0308 8.2196 42.7488 7.936 42.4596C7.6524 42.1704 7.376 41.8744 7.1069 41.5716C6.8378 41.2688 6.5763 40.9597 6.3223 40.6441C6.0684 40.3285 5.8224 40.0068 5.5843 39.6792C5.3461 39.3514 5.1161 39.0181 4.8944 38.6792C4.6726 38.3402 4.4593 37.996 4.2544 37.6465C4.0495 37.2971 3.8534 36.9429 3.6659 36.5838C3.4784 36.2247 3.2998 35.8612 3.1302 35.4934C2.9606 35.1255 2.8001 34.7538 2.6487 34.378C2.4973 34.0023 2.3552 33.6231 2.2225 33.2404C2.0956 32.8651 1.978 32.4869 1.8696 32.1058C1.7612 31.7248 1.6623 31.3413 1.5727 30.9554C1.4831 30.5695 1.403 30.1816 1.3324 29.7917C1.2617 29.4019 1.2007 29.0106 1.1492 28.6178C1.0977 28.2249 1.0559 27.8311 1.0237 27.4362C0.991502 27.0414 0.969002 26.6459 0.956102 26.2499C0.943302 25.854 0.9401 25.458 0.9467 25.0619C0.9532 24.6657 0.969402 24.27 0.995302 23.8747C1.0212 23.4793 1.0567 23.0848 1.1019 22.6912C1.1471 22.2977 1.2018 21.9054 1.2662 21.5145C1.3306 21.1236 1.4045 20.7345 1.4879 20.3472C1.5713 19.9599 1.6642 19.5749 1.7664 19.1921C1.8687 18.8094 1.9803 18.4293 2.1011 18.052C2.222 17.6747 2.352 17.3006 2.4911 16.9297C2.6303 16.5588 2.7784 16.1915 2.9356 15.8278C3.0927 15.4641 3.2586 15.1045 3.4333 14.7489C6.3209 8.92863 11.3779 4.05952 17.6515 2.12361C19.4856 1.55763 21.4961 1.47818 23.2521 0.887573ZM59.0932 3.85095C58.7396 4.68988 58.9353 42.91 58.8401 47.2888C61.47 47.1503 64.1452 47.2493 66.7798 47.258L82.297 47.334C86.759 47.3379 91.319 47.5443 95.684 46.4553C98.737 45.6938 102.301 43.8766 104.437 41.5382C104.526 41.44 104.576 41.333 104.617 41.2069C107.167 39.7491 109.948 33.7811 110.707 30.9811C110.8 30.6459 110.883 30.3087 110.959 29.9694C111.034 29.6301 111.101 29.2891 111.16 28.9464C111.218 28.6038 111.268 28.2599 111.309 27.9148C111.351 27.5696 111.384 27.2237 111.408 26.8769C111.432 26.5301 111.447 26.1829 111.454 25.8354C111.461 25.4879 111.459 25.1404 111.448 24.7929C111.438 24.4455 111.419 24.0985 111.391 23.752C111.363 23.4055 111.327 23.0599 111.281 22.7152C111.237 22.3706 111.183 22.0272 111.121 21.6852C111.059 21.3432 110.988 21.0029 110.909 20.6645C110.83 20.3259 110.743 19.9896 110.647 19.6555C110.551 19.3214 110.447 18.9898 110.335 18.6609C110.223 18.3319 110.102 18.0059 109.973 17.683C109.845 17.36 109.709 17.0405 109.564 16.7243C109.419 16.4082 109.267 16.0958 109.107 15.7872C108.947 15.4786 108.779 15.1742 108.604 14.874C105.766 9.93487 100.888 6.06172 95.371 4.58079C92.002 3.6766 88.435 3.84405 84.977 3.81608L74.8632 3.76825C69.6412 3.75135 64.2993 3.50541 59.0932 3.85095ZM33.6681 11.5902C31.2979 11.8202 29.3986 12.4919 27.833 14.3895C26.515 15.987 25.8509 18.3095 26.0577 20.3651C26.2488 22.2654 27.1123 23.7009 28.5421 24.9236C26.5591 26.3718 25.2708 27.5665 24.8703 30.1177C24.5117 32.4026 24.9522 35.0085 26.3329 36.8998C27.5796 38.6076 29.3851 39.4862 31.4433 39.801C32.5741 39.974 33.7528 39.9877 34.8957 39.9714C38.6154 39.969 42.3424 39.916 46.061 39.967C45.7395 35.8513 45.9863 31.5511 45.9873 27.4157C45.9878 22.1258 45.8021 16.7651 46.0094 11.4828C43.2011 11.6041 40.3692 11.5149 37.5582 11.5086C36.2996 11.5058 34.9104 11.4104 33.6681 11.5902ZM72.2164 0.887573L72.2285 0.985493C72.9831 1.00587 75.6104 0.782832 76.055 1.13944C78.7217 1.17928 82.997 1.41153 85.524 1.15053C87.124 1.18645 88.965 1.34846 90.555 1.17001C90.441 1.02565 90.159 0.955358 89.988 0.887573H76.4218H72.2164ZM64.0625 0.887573L64.0657 1.03231C64.9934 1.08697 67.1929 0.832539 67.898 1.13758C70.5526 1.15753 73.4235 1.39791 76.055 1.13944C75.6104 0.782832 72.9831 1.00587 72.2285 0.985493L72.2164 0.887573H68.0258H64.0625ZM55.5561 0.887573L55.5677 1.04692C58.5414 1.11696 61.5152 1.16406 64.4893 1.18824C65.5548 1.19389 66.8582 1.32795 67.898 1.13758C67.1929 0.832539 64.9934 1.08697 64.0657 1.03231L64.0625 0.887573H59.6073H55.5561ZM45.3996 0.887573C46.8345 1.25738 53.6487 1.07948 55.5677 1.04692L55.5561 0.887573H45.3996Z" fill="#0739A6"></path>
<path d="M45.3994 0.887573H55.556L55.5676 1.04692C53.6485 1.07948 46.8343 1.25738 45.3994 0.887573Z" fill="#2165B0" fill-opacity="0.835294"></path>
<path d="M55.5557 0.887573H59.6068H64.0621L64.0652 1.03231C64.9929 1.08697 67.1924 0.832539 67.8975 1.13758C66.8578 1.32795 65.5544 1.19389 64.4888 1.18824C61.5148 1.16407 58.5409 1.11696 55.5672 1.04692L55.5557 0.887573ZM59.6068 0.887573C61.0012 1.20702 62.6372 1.05314 64.0652 1.03231L64.0621 0.887573H59.6068Z" fill="#2165B0" fill-opacity="0.690196"></path>
<path d="M59.6074 0.887573H64.0627L64.0659 1.03231C62.6378 1.05314 61.0018 1.20702 59.6074 0.887573Z" fill="#2165B0" fill-opacity="0.458824"></path>
<path d="M64.0625 0.887573H68.0258H72.2164L72.2285 0.985493C72.983 1.00587 75.6103 0.782832 76.055 1.13944C73.4235 1.39791 70.5526 1.15753 67.8979 1.13758C67.1928 0.832539 64.9933 1.08697 64.0657 1.03231L64.0625 0.887573ZM68.0258 0.887573C69.3439 1.15167 70.8767 0.984806 72.2285 0.985493L72.2164 0.887573H68.0258Z" fill="#2165B0" fill-opacity="0.360784"></path>
<path d="M68.0254 0.887573H72.216L72.2281 0.985493C70.8763 0.984806 69.3435 1.15167 68.0254 0.887573Z" fill="#2165B0" fill-opacity="0.266667"></path>
<path d="M72.2168 0.887573H76.4221H89.988C90.159 0.955358 90.441 1.02565 90.556 1.17001C88.965 1.34846 87.124 1.18645 85.524 1.15053C82.997 1.41153 78.7221 1.17928 76.0554 1.13944C75.6107 0.782832 72.9835 1.00587 72.2289 0.985493L72.2168 0.887573ZM76.4221 0.887573C77.7518 1.08546 85.062 0.728859 85.524 1.15053C87.124 1.18645 88.965 1.34846 90.556 1.17001C90.441 1.02565 90.159 0.955358 89.988 0.887573H76.4221Z" fill="#2165B0" fill-opacity="0.196078"></path>
<path d="M76.4219 0.887573H89.988C90.159 0.955358 90.441 1.02565 90.555 1.17001C88.965 1.34846 87.124 1.18645 85.524 1.15053C85.062 0.728859 77.7516 1.08546 76.4219 0.887573Z" fill="#2165B0" fill-opacity="0.0901961"></path>
<path d="M35.1004 16.4734C36.9025 16.4864 38.7042 16.4664 40.5055 16.4134C40.6228 18.5048 40.5718 20.6113 40.5676 22.7054C39.4736 22.6166 38.3471 22.66 37.2489 22.6569C35.6356 22.6747 33.6018 22.9189 32.29 21.7829C31.7733 21.3354 31.486 20.7099 31.4487 20.0317C31.3992 19.1439 31.6965 18.2324 32.2932 17.5694C33.1056 16.6672 33.9307 16.5313 35.1004 16.4734Z" fill="#0739A6"></path>
<path d="M33.5407 27.6374C35.8517 27.5289 38.1965 27.6028 40.5117 27.6008C40.6333 30.061 40.5727 32.5412 40.5669 35.0046C39.4693 34.8591 38.3538 34.8911 37.2493 34.8883C35.4387 34.8929 33.115 35.288 31.5712 34.1628C30.8108 33.6086 30.3445 32.7768 30.2044 31.8525C30.0584 30.8887 30.2546 29.8105 30.8484 29.0227C31.5722 28.0622 32.3915 27.8066 33.5407 27.6374Z" fill="#0739A6"></path>
<path d="M70.1597 11.6066C71.3205 11.325 80.8951 11.4464 82.5181 11.5767C83.3701 11.6451 84.2271 11.7919 85.0371 12.069C86.8961 12.7051 88.4511 14.0072 89.3171 15.7797C90.2311 17.6519 90.4411 20.1196 89.7501 22.0949C89.3251 23.3111 88.5921 24.3921 87.4071 24.9569C88.3651 25.3462 89.1521 25.8991 89.8151 26.6973C91.2191 28.3903 91.6451 30.5419 91.4291 32.6916C91.3161 33.8293 90.9231 35.7141 89.9911 36.4723C89.9861 36.9489 89.4701 37.5054 89.1391 37.8338C88.1551 38.8092 86.6681 39.4145 85.3291 39.6913C83.2061 40.1301 80.9183 39.9722 78.7588 39.972L70.0312 39.9633C70.0407 39.9424 70.0498 39.9212 70.0603 39.9007C70.1697 39.6835 70.2182 39.535 70.2234 39.2897C70.3629 32.9212 70.2071 26.5142 70.2087 20.1418C70.2092 18.169 70.4849 13.2139 70.1597 11.6066ZM75.6111 27.657C75.7337 28.7365 75.8847 34.1695 75.4432 34.8919C77.4922 34.8386 83.4191 35.4188 84.7551 34.0107C84.8091 33.9532 84.8251 33.9159 84.8431 33.8405C85.5021 33.357 85.84 32.7321 85.965 31.9271C86.116 30.9551 86.0091 29.8509 85.4021 29.0436C84.7781 28.2127 83.7801 27.8308 82.7791 27.6975C80.4352 27.3855 77.9737 27.7246 75.6111 27.657ZM75.7416 16.4758C75.4659 17.999 76.0763 21.332 75.4806 22.4881C75.4559 22.5363 75.4343 22.5826 75.4069 22.6299C77.0523 22.6188 82.4971 23.0559 83.5631 21.9911C83.6411 21.9137 83.7091 21.8301 83.7761 21.7438C84.2951 21.3789 84.629 20.7819 84.743 20.1607C84.887 19.3657 84.6351 18.5558 84.1741 17.9056C84.1111 17.8166 84.0431 17.7308 83.9721 17.6481C83.9001 17.5655 83.8251 17.4865 83.7461 17.411C83.6671 17.3356 83.5851 17.264 83.4991 17.1964C83.4131 17.1287 83.3241 17.0653 83.2331 17.0061C83.1411 16.9469 83.0471 16.8921 82.9501 16.8419C82.8531 16.7916 82.7531 16.7461 82.6521 16.7053C82.5511 16.6644 82.4481 16.6285 82.3431 16.5974C82.2391 16.5663 82.1331 16.5403 82.0251 16.5194C80.5299 16.2395 77.5238 16.5709 75.7416 16.4758Z" fill="#0739A6"></path>
</svg></svg></g></g><defs><clipPath id="SvgjsClipPath1098"><rect width="1000" height="1000" x="0" y="0" rx="200" ry="200"></rect></clipPath></defs></svg>